{"glyphs":{"0":{"ha":881,"x_min":72,"x_max":808,"o":"m 440 992 q 638 930 556 992 q 765 755 721 868 q 808 486 808 642 q 765 218 808 332 q 638 42 721 104 q 440 -19 556 -19 q 243 42 325 -19 q 117 218 161 104 q 72 486 72 332 q 117 755 72 642 q 243 930 161 868 q 440 992 325 992 m 440 939 q 298 822 349 939 q 247 486 247 704 q 298 151 247 268 q 440 33 349 33 q 583 151 533 33 q 633 486 633 268 q 583 822 633 704 q 440 939 533 939 z "},"1":{"ha":522,"x_min":67,"x_max":457,"o":"m 457 0 l 457 14 l 428 14 q 374 35 397 14 q 351 88 351 57 l 351 992 l 338 992 q 274 952 310 968 q 202 927 239 936 q 130 912 165 918 q 67 903 94 906 l 67 889 l 108 889 q 164 870 144 889 q 183 810 183 851 l 183 89 q 161 36 183 58 q 107 14 139 14 l 78 14 l 76 0 l 457 0 z "},"2":{"ha":828,"x_min":69,"x_max":779,"o":"m 131 700 l 78 894 q 160 947 111 925 q 264 980 208 968 q 374 992 319 992 q 551 958 474 992 q 672 863 628 925 q 715 713 715 800 q 685 576 715 643 q 607 448 656 510 q 501 331 558 386 q 390 228 444 275 q 294 146 336 182 l 592 146 q 663 158 633 146 q 717 200 693 171 q 765 275 742 229 l 779 275 l 701 0 l 69 0 l 69 14 q 185 139 124 71 q 308 281 247 207 q 420 432 369 356 q 501 582 471 508 q 532 721 532 656 q 481 884 532 825 q 342 939 429 943 q 196 874 249 935 q 144 700 143 814 l 131 700 z "},"3":{"ha":754,"x_min":67,"x_max":674,"o":"m 336 989 q 500 964 432 992 q 605 886 568 936 q 642 769 642 836 q 619 672 642 715 q 561 598 597 628 q 483 556 525 568 q 401 554 440 544 q 493 540 446 554 q 582 493 540 525 q 649 411 624 461 q 674 292 674 361 q 640 148 674 213 q 546 36 606 83 q 409 -37 486 -11 q 245 -67 332 -64 q 71 -44 158 -69 l 74 -31 q 233 -9 158 -32 q 367 58 308 14 q 458 165 425 103 q 492 303 492 226 q 453 434 492 383 q 353 509 415 485 q 218 533 292 533 l 221 547 q 341 576 283 547 q 433 659 399 606 q 464 785 468 713 q 440 865 461 831 q 381 919 418 900 q 293 936 344 938 q 166 876 208 933 q 128 717 124 818 l 114 717 l 67 890 q 175 958 108 931 q 336 989 242 986 z "},"4":{"ha":843,"x_min":25,"x_max":788,"o":"m 463 788 l 617 992 l 631 992 l 631 1 l 463 1 l 463 788 m 617 992 l 631 919 l 182 417 l 690 417 q 745 426 729 417 q 774 456 761 436 l 788 456 l 751 313 l 25 313 l 25 326 l 617 992 m 631 89 q 653 36 631 58 q 707 14 676 14 l 722 14 l 722 0 l 369 0 l 371 14 l 385 14 q 440 35 417 14 q 463 89 463 57 l 631 89 z "},"5":{"ha":744,"x_min":47,"x_max":658,"o":"m 590 815 l 224 789 l 175 611 q 370 628 281 638 q 525 580 460 619 q 624 474 590 540 q 654 319 658 408 q 603 144 650 217 q 484 25 556 71 q 331 -42 413 -21 q 174 -63 249 -64 q 47 -43 99 -62 l 50 -29 q 136 -19 85 -31 q 243 18 188 -7 q 348 83 299 43 q 431 177 397 122 q 468 303 464 232 q 425 443 475 390 q 287 506 375 496 q 88 475 199 517 l 75 482 l 186 922 l 518 949 q 588 968 563 949 q 628 1018 613 988 l 642 1018 l 590 815 z "},"6":{"ha":843,"x_min":75,"x_max":776,"o":"m 646 1019 l 651 1010 q 456 913 532 972 q 339 774 381 853 q 281 598 297 694 q 265 390 265 501 q 282 203 265 282 q 336 81 299 124 q 436 38 374 38 q 531 74 496 38 q 583 167 567 110 q 597 289 599 225 q 580 411 596 363 q 533 485 564 460 q 457 515 501 511 q 384 506 419 519 q 325 465 349 492 l 315 478 q 389 548 344 521 q 485 584 433 575 q 586 581 536 593 q 678 537 636 569 q 746 447 719 504 q 775 307 772 390 q 739 148 776 222 q 625 27 701 74 q 438 -21 549 -19 q 245 25 326 -22 q 119 167 164 72 q 76 401 75 263 q 112 638 76 526 q 217 835 147 750 q 394 971 288 921 q 646 1019 501 1021 z "},"7":{"ha":736,"x_min":32,"x_max":699,"o":"m 32 744 l 46 744 q 85 807 61 786 q 150 828 108 828 l 563 828 l 461 575 q 417 475 443 532 q 362 353 392 418 q 301 222 332 288 q 244 100 271 157 q 197 0 217 43 l 350 0 q 379 102 361 43 q 419 228 397 161 q 463 360 440 294 q 506 479 486 425 q 538 565 525 533 l 699 972 l 71 969 l 32 744 z "},"8":{"ha":814,"x_min":63,"x_max":750,"o":"m 118 736 q 154 869 118 813 q 255 958 190 926 q 404 992 319 990 q 550 965 485 993 q 654 883 615 936 q 693 757 693 829 q 662 645 693 693 q 578 568 631 597 q 460 528 526 539 l 419 540 q 490 604 464 565 q 527 688 517 643 q 538 772 538 733 q 502 892 538 846 q 404 938 467 938 q 306 894 340 939 q 272 789 272 850 q 290 710 272 746 q 344 643 307 675 q 440 578 382 611 q 544 524 490 551 q 646 463 599 497 q 722 378 693 428 q 750 257 750 329 q 706 109 750 171 q 583 14 663 47 q 396 -19 503 -19 q 268 -3 329 -19 q 160 44 207 13 q 88 124 114 75 q 64 239 63 172 q 81 326 64 288 q 127 392 99 364 q 190 442 156 421 q 259 478 224 463 q 326 503 294 493 l 374 494 q 265 403 310 463 q 221 247 221 344 q 268 93 219 150 q 401 33 317 36 q 501 55 460 32 q 563 117 542 78 q 585 200 585 156 q 569 272 585 242 q 526 327 554 303 q 459 373 497 351 q 375 417 421 394 q 284 471 329 442 q 201 538 239 500 q 140 626 163 576 q 118 736 118 675 z "},"9":{"ha":843,"x_min":68,"x_max":767,"o":"m 197 -51 l 192 -42 q 386 52 311 -7 q 503 191 461 111 q 561 367 544 271 q 578 572 578 463 q 561 765 578 685 q 508 888 544 846 q 408 929 471 929 q 313 894 349 929 q 261 802 276 860 q 246 678 246 744 q 263 556 247 606 q 310 481 279 507 q 386 453 342 456 q 460 463 425 449 q 519 501 494 476 l 526 490 q 454 419 499 446 q 358 383 410 392 q 256 388 307 375 q 162 433 204 400 q 94 523 119 467 q 69 660 69 579 q 108 830 68 757 q 224 945 147 903 q 406 989 300 988 q 671 884 575 992 q 767 565 767 776 q 732 331 767 443 q 626 132 697 219 q 449 -5 556 44 q 197 -51 342 -54 z "},"A":{"ha":993,"x_min":-31,"x_max":1025,"o":"m 494 997 l 933 8 l 728 8 l 429 775 l 494 997 m 196 101 q 192 54 185 74 q 215 24 199 35 q 249 14 232 14 l 261 14 l 261 0 l -31 0 l -31 14 q -24 14 -31 14 q -18 14 -18 14 q 48 34 14 14 q 104 101 82 54 l 196 101 m 494 997 l 501 851 l 156 4 l 61 4 l 419 828 q 431 855 422 833 q 452 904 440 876 q 472 958 464 932 q 482 997 481 983 l 494 997 m 657 347 l 657 294 l 239 294 l 239 347 l 657 347 m 692 101 l 892 101 q 948 34 914 54 q 1014 14 982 14 q 1019 14 1014 14 q 1025 14 1025 14 l 1025 0 l 626 0 l 626 14 l 639 14 q 686 37 665 14 q 692 101 707 60 z "},"Á":{"ha":993,"x_min":-31,"x_max":1025,"o":"m 494 997 l 933 8 l 728 8 l 429 775 l 494 997 m 196 101 q 192 54 185 74 q 215 24 199 35 q 249 14 232 14 l 261 14 l 261 0 l -31 0 l -31 14 q -24 14 -31 14 q -18 14 -18 14 q 48 34 14 14 q 104 101 82 54 l 196 101 m 494 997 l 501 851 l 156 4 l 61 4 l 419 828 q 431 855 422 833 q 452 904 440 876 q 472 958 464 932 q 482 997 481 983 l 494 997 m 657 347 l 657 294 l 239 294 l 239 347 l 657 347 m 692 101 l 892 101 q 948 34 914 54 q 1014 14 982 14 q 1019 14 1014 14 q 1025 14 1025 14 l 1025 0 l 626 0 l 626 14 l 639 14 q 686 37 665 14 q 692 101 707 60 z "},"Ă":{"ha":993,"x_min":-31,"x_max":1025,"o":"m 494 997 l 933 8 l 728 8 l 429 775 l 494 997 m 196 101 q 192 54 185 74 q 215 24 199 35 q 249 14 232 14 l 261 14 l 261 0 l -31 0 l -31 14 q -24 14 -31 14 q -18 14 -18 14 q 48 34 14 14 q 104 101 82 54 l 196 101 m 494 997 l 501 851 l 156 4 l 61 4 l 419 828 q 431 855 422 833 q 452 904 440 876 q 472 958 464 932 q 482 997 481 983 l 494 997 m 657 347 l 657 294 l 239 294 l 239 347 l 657 347 m 692 101 l 892 101 q 948 34 914 54 q 1014 14 982 14 q 1019 14 1014 14 q 1025 14 1025 14 l 1025 0 l 626 0 l 626 14 l 639 14 q 686 37 665 14 q 692 101 707 60 z "},"Â":{"ha":993,"x_min":-31,"x_max":1025,"o":"m 494 997 l 933 8 l 728 8 l 429 775 l 494 997 m 196 101 q 192 54 185 74 q 215 24 199 35 q 249 14 232 14 l 261 14 l 261 0 l -31 0 l -31 14 q -24 14 -31 14 q -18 14 -18 14 q 48 34 14 14 q 104 101 82 54 l 196 101 m 494 997 l 501 851 l 156 4 l 61 4 l 419 828 q 431 855 422 833 q 452 904 440 876 q 472 958 464 932 q 482 997 481 983 l 494 997 m 657 347 l 657 294 l 239 294 l 239 347 l 657 347 m 692 101 l 892 101 q 948 34 914 54 q 1014 14 982 14 q 1019 14 1014 14 q 1025 14 1025 14 l 1025 0 l 626 0 l 626 14 l 639 14 q 686 37 665 14 q 692 101 707 60 z "},"Ä":{"ha":993,"x_min":-31,"x_max":1025,"o":"m 494 997 l 933 8 l 728 8 l 429 775 l 494 997 m 196 101 q 192 54 185 74 q 215 24 199 35 q 249 14 232 14 l 261 14 l 261 0 l -31 0 l -31 14 q -24 14 -31 14 q -18 14 -18 14 q 48 34 14 14 q 104 101 82 54 l 196 101 m 494 997 l 501 851 l 156 4 l 61 4 l 419 828 q 431 855 422 833 q 452 904 440 876 q 472 958 464 932 q 482 997 481 983 l 494 997 m 657 347 l 657 294 l 239 294 l 239 347 l 657 347 m 692 101 l 892 101 q 948 34 914 54 q 1014 14 982 14 q 1019 14 1014 14 q 1025 14 1025 14 l 1025 0 l 626 0 l 626 14 l 639 14 q 686 37 665 14 q 692 101 707 60 z "},"À":{"ha":993,"x_min":-31,"x_max":1025,"o":"m 494 997 l 933 8 l 728 8 l 429 775 l 494 997 m 196 101 q 192 54 185 74 q 215 24 199 35 q 249 14 232 14 l 261 14 l 261 0 l -31 0 l -31 14 q -24 14 -31 14 q -18 14 -18 14 q 48 34 14 14 q 104 101 82 54 l 196 101 m 494 997 l 501 851 l 156 4 l 61 4 l 419 828 q 431 855 422 833 q 452 904 440 876 q 472 958 464 932 q 482 997 481 983 l 494 997 m 657 347 l 657 294 l 239 294 l 239 347 l 657 347 m 692 101 l 892 101 q 948 34 914 54 q 1014 14 982 14 q 1019 14 1014 14 q 1025 14 1025 14 l 1025 0 l 626 0 l 626 14 l 639 14 q 686 37 665 14 q 692 101 707 60 z "},"Ā":{"ha":993,"x_min":-31,"x_max":1025,"o":"m 494 997 l 933 8 l 728 8 l 429 775 l 494 997 m 196 101 q 192 54 185 74 q 215 24 199 35 q 249 14 232 14 l 261 14 l 261 0 l -31 0 l -31 14 q -24 14 -31 14 q -18 14 -18 14 q 48 34 14 14 q 104 101 82 54 l 196 101 m 494 997 l 501 851 l 156 4 l 61 4 l 419 828 q 431 855 422 833 q 452 904 440 876 q 472 958 464 932 q 482 997 481 983 l 494 997 m 657 347 l 657 294 l 239 294 l 239 347 l 657 347 m 692 101 l 892 101 q 948 34 914 54 q 1014 14 982 14 q 1019 14 1014 14 q 1025 14 1025 14 l 1025 0 l 626 0 l 626 14 l 639 14 q 686 37 665 14 q 692 101 707 60 z "},"Ą":{"ha":1014,"x_min":-31,"x_max":1046,"o":"m 506 992 l 949 26 l 747 15 l 440 769 l 506 992 m 506 992 l 513 846 l 156 4 l 60 4 l 431 822 q 442 849 433 828 q 463 899 451 871 q 484 952 475 926 q 493 992 493 978 l 506 992 m 668 347 l 668 294 l 250 294 l 250 347 l 668 347 m 196 101 q 192 54 185 74 q 215 24 199 35 q 249 14 232 14 l 261 14 l 261 0 l -31 0 l -31 14 q -24 14 -31 14 q -18 14 -18 14 q 48 34 14 14 q 104 101 82 54 l 196 101 m 788 0 q 719 -39 739 -10 q 700 -100 699 -68 q 728 -165 701 -140 q 794 -190 756 -190 q 865 -158 832 -190 l 874 -167 q 835 -233 865 -210 q 767 -261 806 -257 q 692 -250 728 -265 q 633 -201 656 -235 q 613 -117 610 -168 q 640 -49 615 -75 q 693 -7 664 -24 q 725 34 721 10 q 713 100 729 58 l 915 97 q 969 35 936 53 q 1033 14 1003 17 q 1040 13 1033 14 q 1046 13 1046 13 l 1046 0 q 981 2 1014 0 q 914 6 947 4 q 849 6 881 7 q 788 0 817 6 z "},"Å":{"ha":993,"x_min":-31,"x_max":1025,"o":"m 494 992 l 933 8 l 728 8 l 429 769 l 494 992 m 196 101 q 192 54 185 74 q 215 24 199 35 q 249 14 232 14 l 261 14 l 261 0 l -31 0 l -31 14 q -24 14 -31 14 q -18 14 -18 14 q 48 34 14 14 q 104 101 82 54 l 196 101 m 494 992 l 501 846 l 156 4 l 61 4 l 419 822 q 431 849 422 828 q 452 899 440 871 q 472 952 464 926 q 482 992 481 978 l 494 992 m 657 347 l 657 294 l 239 294 l 239 347 l 657 347 m 692 101 l 892 101 q 948 34 914 54 q 1014 14 982 14 q 1019 14 1014 14 q 1025 14 1025 14 l 1025 0 l 626 0 l 626 14 l 639 14 q 686 37 665 14 q 692 101 707 60 m 490 1165 q 579 1140 543 1165 q 615 1068 615 1114 q 578 997 615 1025 q 489 969 542 969 q 401 997 438 969 q 364 1068 364 1025 q 401 1138 364 1111 q 490 1165 438 1165 m 489 1142 q 447 1122 464 1142 q 429 1068 429 1101 q 447 1015 429 1035 q 489 996 464 996 q 533 1015 515 996 q 550 1068 550 1035 q 533 1122 550 1101 q 489 1142 515 1142 z "},"Ã":{"ha":993,"x_min":-31,"x_max":1025,"o":"m 494 997 l 933 8 l 728 8 l 429 775 l 494 997 m 196 101 q 192 54 185 74 q 215 24 199 35 q 249 14 232 14 l 261 14 l 261 0 l -31 0 l -31 14 q -24 14 -31 14 q -18 14 -18 14 q 48 34 14 14 q 104 101 82 54 l 196 101 m 494 997 l 501 851 l 156 4 l 61 4 l 419 828 q 431 855 422 833 q 452 904 440 876 q 472 958 464 932 q 482 997 481 983 l 494 997 m 657 347 l 657 294 l 239 294 l 239 347 l 657 347 m 692 101 l 892 101 q 948 34 914 54 q 1014 14 982 14 q 1019 14 1014 14 q 1025 14 1025 14 l 1025 0 l 626 0 l 626 14 l 639 14 q 686 37 665 14 q 692 101 707 60 z "},"Æ":{"ha":1318,"x_min":-26,"x_max":1272,"o":"m 215 96 q 205 55 201 74 q 224 25 208 36 q 258 14 239 14 l 271 14 l 271 0 l -26 0 l -26 14 q -22 14 -26 14 q -17 14 -17 14 q 51 38 18 14 q 110 100 83 61 l 215 96 m 817 972 l 817 0 l 647 0 l 647 908 l 817 972 m 650 81 l 650 0 l 564 0 l 565 14 q 572 14 565 14 q 578 14 578 14 q 626 34 606 14 q 647 81 646 54 l 650 81 m 1192 54 l 1192 0 l 813 0 l 813 54 l 1192 54 m 1126 496 l 1126 443 l 407 443 l 414 496 l 1126 496 m 1190 972 l 1190 918 l 715 918 l 678 865 l 160 4 l 47 4 l 638 901 q 640 942 650 925 q 608 958 631 958 l 603 958 l 603 972 l 1190 972 m 1272 246 l 1204 0 l 968 0 l 1014 54 q 1167 106 1104 54 q 1258 246 1229 158 l 1272 246 m 1126 446 l 1126 326 l 1113 326 l 1113 340 q 1083 413 1113 383 q 1011 443 1054 442 l 1011 446 l 1126 446 m 1126 613 l 1126 493 l 1011 493 l 1011 496 q 1083 526 1054 497 q 1113 599 1113 556 l 1113 613 l 1126 613 m 1190 922 l 1190 788 l 1176 788 l 1176 806 q 1147 887 1178 856 q 1064 918 1115 918 l 1064 922 l 1190 922 m 1190 997 l 1190 957 l 1021 972 q 1085 976 1051 972 q 1149 986 1119 981 q 1190 997 1178 992 z "},"B":{"ha":896,"x_min":67,"x_max":842,"o":"m 218 972 l 426 972 q 602 947 526 972 q 720 869 678 921 q 763 736 763 817 q 738 631 763 675 q 677 561 714 586 q 597 529 640 536 q 724 486 669 521 q 810 396 779 451 q 842 268 842 340 q 797 123 842 183 q 668 31 751 63 q 472 0 585 0 l 331 0 q 331 15 331 0 q 332 44 332 29 q 332 58 332 58 l 431 58 q 544 83 496 58 q 620 157 593 107 q 647 282 647 207 q 625 394 647 349 q 566 465 603 439 q 483 503 529 492 q 390 514 438 514 l 390 526 q 456 535 422 526 q 517 566 489 544 q 562 626 544 588 q 579 722 579 664 q 557 833 579 789 q 493 897 535 876 q 393 918 451 918 l 232 918 q 228 932 232 919 q 222 958 225 944 q 218 972 218 972 m 343 972 l 343 0 l 174 0 l 174 972 l 343 972 m 178 101 l 178 0 l 67 0 l 67 14 q 76 14 69 14 q 85 14 83 14 q 147 40 121 14 q 174 101 172 65 l 178 101 m 178 871 l 174 871 q 147 933 172 907 q 85 958 121 958 q 76 958 83 958 q 67 958 69 958 l 67 972 l 178 972 l 178 871 z "},"C":{"ha":1074,"x_min":69,"x_max":1000,"o":"m 997 406 l 1000 174 q 915 76 968 119 q 787 6 863 32 q 610 -19 711 -19 q 326 43 449 -18 q 137 217 204 104 q 69 488 69 331 q 136 755 69 642 q 325 930 203 868 q 615 992 447 992 q 810 967 724 992 q 956 910 896 943 l 967 686 l 954 686 q 831 878 919 818 q 625 939 743 939 q 428 884 511 939 q 301 728 346 829 q 256 490 256 628 q 299 251 256 353 q 423 92 343 149 q 610 33 503 36 q 791 69 714 33 q 917 186 868 104 q 986 406 967 268 l 997 406 z "},"Ć":{"ha":1074,"x_min":69,"x_max":1000,"o":"m 997 406 l 1000 174 q 915 76 968 119 q 787 6 863 32 q 610 -19 711 -19 q 326 43 449 -18 q 137 217 204 104 q 69 488 69 331 q 136 755 69 642 q 325 930 203 868 q 615 992 447 992 q 810 967 724 992 q 956 910 896 943 l 967 686 l 954 686 q 831 878 919 818 q 625 939 743 939 q 428 884 511 939 q 301 728 346 829 q 256 490 256 628 q 299 251 256 353 q 423 92 343 149 q 610 33 503 36 q 791 69 714 33 q 917 186 868 104 q 986 406 967 268 l 997 406 z "},"Č":{"ha":1074,"x_min":69,"x_max":1000,"o":"m 997 406 l 1000 174 q 915 76 968 119 q 787 6 863 32 q 610 -19 711 -19 q 326 43 449 -18 q 137 217 204 104 q 69 488 69 331 q 136 755 69 642 q 325 930 203 868 q 615 992 447 992 q 810 967 724 992 q 956 910 896 943 l 967 686 l 954 686 q 831 878 919 818 q 625 939 743 939 q 428 884 511 939 q 301 728 346 829 q 256 490 256 628 q 299 251 256 353 q 423 92 343 149 q 610 33 503 36 q 791 69 714 33 q 917 186 868 104 q 986 406 967 268 l 997 406 z "},"Ç":{"ha":1074,"x_min":69,"x_max":1000,"o":"m 997 406 l 1000 174 q 915 76 968 119 q 787 6 863 32 q 610 -19 711 -19 q 326 43 449 -18 q 137 217 204 104 q 69 488 69 331 q 136 755 69 642 q 325 930 203 868 q 615 992 447 992 q 810 967 724 992 q 956 910 896 943 l 967 686 l 954 686 q 831 878 919 818 q 625 939 743 939 q 428 884 511 939 q 301 728 346 829 q 256 490 256 628 q 299 251 256 353 q 423 92 343 149 q 610 33 503 36 q 791 69 714 33 q 917 186 868 104 q 986 406 967 268 l 997 406 z "},"Ċ":{"ha":1074,"x_min":69,"x_max":1000,"o":"m 997 406 l 1000 174 q 915 76 968 119 q 787 6 863 32 q 610 -19 711 -19 q 326 43 449 -18 q 137 217 204 104 q 69 488 69 331 q 136 755 69 642 q 325 930 203 868 q 615 992 447 992 q 810 967 724 992 q 956 910 896 943 l 967 686 l 954 686 q 831 878 919 818 q 625 939 743 939 q 428 884 511 939 q 301 728 346 829 q 256 490 256 628 q 299 251 256 353 q 423 92 343 149 q 610 33 503 36 q 791 69 714 33 q 917 186 868 104 q 986 406 967 268 l 997 406 z "},"D":{"ha":1140,"x_min":67,"x_max":1081,"o":"m 560 972 q 835 913 718 972 q 1017 744 953 854 q 1081 486 1081 635 q 1017 228 1081 338 q 835 60 953 119 q 560 0 718 0 l 240 0 l 239 53 q 305 53 265 53 q 387 53 344 53 q 466 53 429 53 q 526 53 503 53 q 549 53 549 53 q 733 106 656 53 q 853 257 810 160 q 896 486 896 354 q 853 715 896 618 q 732 866 810 813 q 549 919 654 919 q 524 919 549 919 q 462 919 500 919 q 379 919 424 919 q 294 919 335 919 q 225 919 253 919 l 225 972 l 560 972 m 343 972 l 343 0 l 174 0 l 174 972 l 343 972 m 178 101 l 178 0 l 67 0 l 67 14 q 76 14 67 14 q 85 14 85 14 q 147 40 121 14 q 174 101 172 65 l 178 101 m 178 871 l 174 871 q 147 933 174 907 q 85 958 121 958 q 76 958 85 958 q 68 958 68 958 l 67 972 l 178 972 l 178 871 z "},"Ð":{"ha":1140,"x_min":67,"x_max":1081,"o":"m 67 513 l 542 513 l 542 460 l 67 460 l 67 513 m 563 972 q 838 913 722 972 q 1017 744 954 854 q 1081 486 1081 635 q 1017 228 1081 338 q 838 60 954 119 q 563 0 722 0 l 244 0 l 243 53 q 309 53 269 53 q 390 53 349 53 q 469 53 432 53 q 528 53 506 53 q 551 53 551 53 q 737 106 658 53 q 859 257 815 160 q 903 486 903 354 q 859 715 903 618 q 737 866 815 813 q 551 919 658 919 q 528 919 551 919 q 465 919 504 919 q 383 919 426 919 q 298 919 339 919 q 229 919 257 919 l 229 972 l 563 972 m 347 972 l 347 0 l 178 0 l 178 972 l 347 972 m 182 101 l 182 0 l 71 0 l 71 14 q 80 14 71 14 q 89 14 89 14 q 151 40 125 14 q 178 101 176 65 l 182 101 m 182 871 l 178 871 q 151 933 176 907 q 89 958 125 958 q 81 958 89 958 q 71 958 72 958 l 71 972 l 182 972 l 182 871 z "},"Ď":{"ha":1140,"x_min":67,"x_max":1081,"o":"m 560 972 q 835 913 718 972 q 1017 744 953 854 q 1081 486 1081 635 q 1017 228 1081 338 q 835 60 953 119 q 560 0 718 0 l 240 0 l 239 53 q 305 53 265 53 q 387 53 344 53 q 466 53 429 53 q 526 53 503 53 q 549 53 549 53 q 733 106 656 53 q 853 257 810 160 q 896 486 896 354 q 853 715 896 618 q 732 866 810 813 q 549 919 654 919 q 524 919 549 919 q 462 919 500 919 q 379 919 424 919 q 294 919 335 919 q 225 919 253 919 l 225 972 l 560 972 m 343 972 l 343 0 l 174 0 l 174 972 l 343 972 m 178 101 l 178 0 l 67 0 l 67 14 q 76 14 67 14 q 85 14 85 14 q 147 40 121 14 q 174 101 172 65 l 178 101 m 178 871 l 174 871 q 147 933 174 907 q 85 958 121 958 q 76 958 85 958 q 68 958 68 958 l 67 972 l 178 972 l 178 871 z "},"Đ":{"ha":1140,"x_min":67,"x_max":1081,"o":"m 560 972 q 835 913 718 972 q 1017 744 953 854 q 1081 486 1081 635 q 1017 228 1081 338 q 835 60 953 119 q 560 0 718 0 l 240 0 l 239 53 q 305 53 265 53 q 387 53 344 53 q 466 53 429 53 q 526 53 503 53 q 549 53 549 53 q 733 106 656 53 q 853 257 810 160 q 896 486 896 354 q 853 715 896 618 q 732 866 810 813 q 549 919 654 919 q 524 919 549 919 q 462 919 500 919 q 379 919 424 919 q 294 919 335 919 q 225 919 253 919 l 225 972 l 560 972 m 343 972 l 343 0 l 174 0 l 174 972 l 343 972 m 178 101 l 178 0 l 67 0 l 67 14 q 76 14 67 14 q 85 14 85 14 q 147 40 121 14 q 174 101 172 65 l 178 101 m 178 871 l 174 871 q 147 933 174 907 q 85 958 121 958 q 76 958 85 958 q 68 958 68 958 l 67 972 l 178 972 l 178 871 z "},"E":{"ha":851,"x_min":67,"x_max":808,"o":"m 343 972 l 343 0 l 174 0 l 174 972 l 343 972 m 711 54 l 735 0 l 339 0 l 339 54 l 711 54 m 658 506 l 658 453 l 339 453 l 339 506 l 658 506 m 724 972 l 724 918 l 339 918 l 339 972 l 724 972 m 808 264 l 739 0 l 479 0 l 529 54 q 651 80 600 54 q 738 153 703 106 q 794 264 772 201 l 808 264 m 658 456 l 658 336 l 644 336 l 644 351 q 615 424 644 394 q 543 453 586 453 l 543 456 l 658 456 m 658 622 l 658 503 l 543 503 l 543 506 q 615 536 586 507 q 644 608 644 565 l 644 622 l 658 622 m 724 922 l 724 778 l 710 778 l 710 797 q 676 884 710 850 q 588 919 643 918 l 588 922 l 724 922 m 724 997 l 724 957 l 554 972 q 619 976 585 972 q 682 986 653 981 q 724 997 711 992 m 178 101 l 178 0 l 67 0 l 67 14 q 76 14 67 14 q 85 14 85 14 q 147 40 121 14 q 174 101 172 65 l 178 101 m 178 871 l 174 871 q 147 933 172 907 q 85 958 121 958 q 76 958 85 958 q 67 958 67 958 l 67 972 l 178 972 l 178 871 z "},"É":{"ha":851,"x_min":67,"x_max":808,"o":"m 343 972 l 343 0 l 174 0 l 174 972 l 343 972 m 711 54 l 735 0 l 339 0 l 339 54 l 711 54 m 658 506 l 658 453 l 339 453 l 339 506 l 658 506 m 724 972 l 724 918 l 339 918 l 339 972 l 724 972 m 808 264 l 739 0 l 479 0 l 529 54 q 651 80 600 54 q 738 153 703 106 q 794 264 772 201 l 808 264 m 658 456 l 658 336 l 644 336 l 644 351 q 615 424 644 394 q 543 453 586 453 l 543 456 l 658 456 m 658 622 l 658 503 l 543 503 l 543 506 q 615 536 586 507 q 644 608 644 565 l 644 622 l 658 622 m 724 922 l 724 778 l 710 778 l 710 797 q 676 884 710 850 q 588 919 643 918 l 588 922 l 724 922 m 724 997 l 724 957 l 554 972 q 619 976 585 972 q 682 986 653 981 q 724 997 711 992 m 178 101 l 178 0 l 67 0 l 67 14 q 76 14 67 14 q 85 14 85 14 q 147 40 121 14 q 174 101 172 65 l 178 101 m 178 871 l 174 871 q 147 933 172 907 q 85 958 121 958 q 76 958 85 958 q 67 958 67 958 l 67 972 l 178 972 l 178 871 z "},"Ě":{"ha":851,"x_min":67,"x_max":808,"o":"m 343 972 l 343 0 l 174 0 l 174 972 l 343 972 m 711 54 l 735 0 l 339 0 l 339 54 l 711 54 m 658 506 l 658 453 l 339 453 l 339 506 l 658 506 m 724 972 l 724 918 l 339 918 l 339 972 l 724 972 m 808 264 l 739 0 l 479 0 l 529 54 q 651 80 600 54 q 738 153 703 106 q 794 264 772 201 l 808 264 m 658 456 l 658 336 l 644 336 l 644 351 q 615 424 644 394 q 543 453 586 453 l 543 456 l 658 456 m 658 622 l 658 503 l 543 503 l 543 506 q 615 536 586 507 q 644 608 644 565 l 644 622 l 658 622 m 724 922 l 724 778 l 710 778 l 710 797 q 676 884 710 850 q 588 919 643 918 l 588 922 l 724 922 m 724 997 l 724 957 l 554 972 q 619 976 585 972 q 682 986 653 981 q 724 997 711 992 m 178 101 l 178 0 l 67 0 l 67 14 q 76 14 67 14 q 85 14 85 14 q 147 40 121 14 q 174 101 172 65 l 178 101 m 178 871 l 174 871 q 147 933 172 907 q 85 958 121 958 q 76 958 85 958 q 67 958 67 958 l 67 972 l 178 972 l 178 871 z "},"Ê":{"ha":851,"x_min":67,"x_max":808,"o":"m 343 972 l 343 0 l 174 0 l 174 972 l 343 972 m 711 54 l 735 0 l 339 0 l 339 54 l 711 54 m 658 506 l 658 453 l 339 453 l 339 506 l 658 506 m 724 972 l 724 918 l 339 918 l 339 972 l 724 972 m 808 264 l 739 0 l 479 0 l 529 54 q 651 80 600 54 q 738 153 703 106 q 794 264 772 201 l 808 264 m 658 456 l 658 336 l 644 336 l 644 351 q 615 424 644 394 q 543 453 586 453 l 543 456 l 658 456 m 658 622 l 658 503 l 543 503 l 543 506 q 615 536 586 507 q 644 608 644 565 l 644 622 l 658 622 m 724 922 l 724 778 l 710 778 l 710 797 q 676 884 710 850 q 588 919 643 918 l 588 922 l 724 922 m 724 997 l 724 957 l 554 972 q 619 976 585 972 q 682 986 653 981 q 724 997 711 992 m 178 101 l 178 0 l 67 0 l 67 14 q 76 14 67 14 q 85 14 85 14 q 147 40 121 14 q 174 101 172 65 l 178 101 m 178 871 l 174 871 q 147 933 172 907 q 85 958 121 958 q 76 958 85 958 q 67 958 67 958 l 67 972 l 178 972 l 178 871 z "},"Ë":{"ha":851,"x_min":67,"x_max":808,"o":"m 343 972 l 343 0 l 174 0 l 174 972 l 343 972 m 711 54 l 735 0 l 339 0 l 339 54 l 711 54 m 658 506 l 658 453 l 339 453 l 339 506 l 658 506 m 724 972 l 724 918 l 339 918 l 339 972 l 724 972 m 808 264 l 739 0 l 479 0 l 529 54 q 651 80 600 54 q 738 153 703 106 q 794 264 772 201 l 808 264 m 658 456 l 658 336 l 644 336 l 644 351 q 615 424 644 394 q 543 453 586 453 l 543 456 l 658 456 m 658 622 l 658 503 l 543 503 l 543 506 q 615 536 586 507 q 644 608 644 565 l 644 622 l 658 622 m 724 922 l 724 778 l 710 778 l 710 797 q 676 884 710 850 q 588 919 643 918 l 588 922 l 724 922 m 724 997 l 724 957 l 554 972 q 619 976 585 972 q 682 986 653 981 q 724 997 711 992 m 178 101 l 178 0 l 67 0 l 67 14 q 76 14 67 14 q 85 14 85 14 q 147 40 121 14 q 174 101 172 65 l 178 101 m 178 871 l 174 871 q 147 933 172 907 q 85 958 121 958 q 76 958 85 958 q 67 958 67 958 l 67 972 l 178 972 l 178 871 z "},"Ė":{"ha":851,"x_min":67,"x_max":808,"o":"m 343 972 l 343 0 l 174 0 l 174 972 l 343 972 m 711 54 l 735 0 l 339 0 l 339 54 l 711 54 m 658 506 l 658 453 l 339 453 l 339 506 l 658 506 m 724 972 l 724 918 l 339 918 l 339 972 l 724 972 m 808 264 l 739 0 l 479 0 l 529 54 q 651 80 600 54 q 738 153 703 106 q 794 264 772 201 l 808 264 m 658 456 l 658 336 l 644 336 l 644 351 q 615 424 644 394 q 543 453 586 453 l 543 456 l 658 456 m 658 622 l 658 503 l 543 503 l 543 506 q 615 536 586 507 q 644 608 644 565 l 644 622 l 658 622 m 724 922 l 724 778 l 710 778 l 710 797 q 676 884 710 850 q 588 919 643 918 l 588 922 l 724 922 m 724 997 l 724 957 l 554 972 q 619 976 585 972 q 682 986 653 981 q 724 997 711 992 m 178 101 l 178 0 l 67 0 l 67 14 q 76 14 67 14 q 85 14 85 14 q 147 40 121 14 q 174 101 172 65 l 178 101 m 178 871 l 174 871 q 147 933 172 907 q 85 958 121 958 q 76 958 85 958 q 67 958 67 958 l 67 972 l 178 972 l 178 871 z "},"È":{"ha":851,"x_min":67,"x_max":808,"o":"m 343 972 l 343 0 l 174 0 l 174 972 l 343 972 m 711 54 l 735 0 l 339 0 l 339 54 l 711 54 m 658 506 l 658 453 l 339 453 l 339 506 l 658 506 m 724 972 l 724 918 l 339 918 l 339 972 l 724 972 m 808 264 l 739 0 l 479 0 l 529 54 q 651 80 600 54 q 738 153 703 106 q 794 264 772 201 l 808 264 m 658 456 l 658 336 l 644 336 l 644 351 q 615 424 644 394 q 543 453 586 453 l 543 456 l 658 456 m 658 622 l 658 503 l 543 503 l 543 506 q 615 536 586 507 q 644 608 644 565 l 644 622 l 658 622 m 724 922 l 724 778 l 710 778 l 710 797 q 676 884 710 850 q 588 919 643 918 l 588 922 l 724 922 m 724 997 l 724 957 l 554 972 q 619 976 585 972 q 682 986 653 981 q 724 997 711 992 m 178 101 l 178 0 l 67 0 l 67 14 q 76 14 67 14 q 85 14 85 14 q 147 40 121 14 q 174 101 172 65 l 178 101 m 178 871 l 174 871 q 147 933 172 907 q 85 958 121 958 q 76 958 85 958 q 67 958 67 958 l 67 972 l 178 972 l 178 871 z "},"Ē":{"ha":851,"x_min":67,"x_max":808,"o":"m 343 972 l 343 0 l 174 0 l 174 972 l 343 972 m 711 54 l 735 0 l 339 0 l 339 54 l 711 54 m 658 506 l 658 453 l 339 453 l 339 506 l 658 506 m 724 972 l 724 918 l 339 918 l 339 972 l 724 972 m 808 264 l 739 0 l 479 0 l 529 54 q 651 80 600 54 q 738 153 703 106 q 794 264 772 201 l 808 264 m 658 456 l 658 336 l 644 336 l 644 351 q 615 424 644 394 q 543 453 586 453 l 543 456 l 658 456 m 658 622 l 658 503 l 543 503 l 543 506 q 615 536 586 507 q 644 608 644 565 l 644 622 l 658 622 m 724 922 l 724 778 l 710 778 l 710 797 q 676 884 710 850 q 588 919 643 918 l 588 922 l 724 922 m 724 997 l 724 957 l 554 972 q 619 976 585 972 q 682 986 653 981 q 724 997 711 992 m 178 101 l 178 0 l 67 0 l 67 14 q 76 14 67 14 q 85 14 85 14 q 147 40 121 14 q 174 101 172 65 l 178 101 m 178 871 l 174 871 q 147 933 172 907 q 85 958 121 958 q 76 958 85 958 q 67 958 67 958 l 67 972 l 178 972 l 178 871 z "},"Ę":{"ha":851,"x_min":67,"x_max":811,"o":"m 343 972 l 343 0 l 174 0 l 174 972 l 343 972 m 711 54 l 735 0 l 339 0 l 339 54 l 711 54 m 658 506 l 658 453 l 339 453 l 339 506 l 658 506 m 724 972 l 724 918 l 339 918 l 339 972 l 724 972 m 808 264 l 739 0 l 479 0 l 529 54 q 651 80 600 54 q 738 153 703 106 q 794 264 772 201 l 808 264 m 658 456 l 658 336 l 644 336 l 644 351 q 615 424 644 394 q 543 453 586 453 l 543 456 l 658 456 m 658 622 l 658 503 l 543 503 l 543 506 q 615 536 586 507 q 644 608 644 565 l 644 622 l 658 622 m 724 922 l 724 778 l 710 778 l 710 797 q 676 884 710 850 q 588 919 643 918 l 588 922 l 724 922 m 724 997 l 724 957 l 554 972 q 619 976 585 972 q 682 986 653 981 q 724 997 711 992 m 178 101 l 178 0 l 67 0 l 67 14 q 76 14 67 14 q 85 14 85 14 q 147 40 121 14 q 174 101 172 65 l 178 101 m 178 871 l 174 871 q 147 933 172 907 q 85 958 121 958 q 76 958 85 958 q 67 958 67 958 l 67 972 l 178 972 l 178 871 z "},"F":{"ha":801,"x_min":67,"x_max":724,"o":"m 343 972 l 343 0 l 174 0 l 174 972 l 343 972 m 658 506 l 658 453 l 339 453 l 339 506 l 658 506 m 724 972 l 724 918 l 339 918 l 339 972 l 724 972 m 658 456 l 658 336 l 644 336 l 644 351 q 615 424 644 394 q 543 453 586 453 l 543 456 l 658 456 m 658 622 l 658 503 l 543 503 l 543 506 q 615 536 586 507 q 644 608 644 565 l 644 622 l 658 622 m 724 922 l 724 788 l 710 788 l 710 806 q 678 887 710 856 q 596 918 647 918 l 596 922 l 724 922 m 724 997 l 724 957 l 554 972 q 619 976 585 972 q 682 986 653 981 q 724 997 711 992 m 178 101 l 178 0 l 67 0 l 67 14 q 76 14 67 14 q 85 14 85 14 q 147 40 121 14 q 174 101 172 65 l 178 101 m 178 871 l 174 871 q 147 933 172 907 q 85 958 121 958 q 76 958 85 958 q 67 958 67 958 l 67 972 l 178 972 l 178 871 m 339 101 l 343 101 q 370 40 344 65 q 432 14 396 14 q 440 14 432 14 q 450 14 449 14 l 450 0 l 339 0 l 339 101 z "},"G":{"ha":1144,"x_min":69,"x_max":1117,"o":"m 1026 389 l 1026 160 q 933 76 994 118 q 783 8 871 35 q 585 -19 696 -19 q 315 44 432 -18 q 134 219 199 106 q 69 488 69 332 q 133 754 69 640 q 315 930 197 868 q 590 992 433 992 q 735 981 667 992 q 862 951 804 969 q 960 910 919 932 l 971 686 l 958 686 q 884 831 933 776 q 767 913 835 886 q 619 939 699 939 q 423 883 504 939 q 299 724 342 826 q 256 482 256 622 q 297 245 256 346 q 415 90 338 144 q 597 33 492 35 q 703 49 653 33 q 794 94 753 64 q 858 165 835 124 l 860 389 q 789 451 860 451 l 767 451 l 767 465 l 1117 465 l 1117 451 l 1096 451 q 1026 389 1024 451 z "},"Ğ":{"ha":1144,"x_min":69,"x_max":1117,"o":"m 1026 389 l 1026 160 q 933 76 994 118 q 783 8 871 35 q 585 -19 696 -19 q 315 44 432 -18 q 134 219 199 106 q 69 488 69 332 q 133 754 69 640 q 315 930 197 868 q 590 992 433 992 q 735 981 667 992 q 862 951 804 969 q 960 910 919 932 l 971 686 l 958 686 q 884 831 933 776 q 767 913 835 886 q 619 939 699 939 q 423 883 504 939 q 299 724 342 826 q 256 482 256 622 q 297 245 256 346 q 415 90 338 144 q 597 33 492 35 q 703 49 653 33 q 794 94 753 64 q 858 165 835 124 l 860 389 q 789 451 860 451 l 767 451 l 767 465 l 1117 465 l 1117 451 l 1096 451 q 1026 389 1024 451 z "},"Ģ":{"ha":1144,"x_min":69,"x_max":1117,"o":"m 1026 389 l 1026 160 q 933 76 994 118 q 783 8 871 35 q 585 -19 696 -19 q 315 44 432 -18 q 134 219 199 106 q 69 488 69 332 q 133 754 69 640 q 315 930 197 868 q 590 992 433 992 q 735 981 667 992 q 862 951 804 969 q 960 910 919 932 l 971 686 l 958 686 q 884 831 933 776 q 767 913 835 886 q 619 939 699 939 q 423 883 504 939 q 299 724 342 826 q 256 482 256 622 q 297 245 256 346 q 415 90 338 144 q 597 33 492 35 q 703 49 653 33 q 794 94 753 64 q 858 165 835 124 l 860 389 q 789 451 860 451 l 767 451 l 767 465 l 1117 465 l 1117 451 l 1096 451 q 1026 389 1024 451 m 535 -147 q 552 -104 535 -119 q 593 -89 569 -89 q 652 -122 633 -89 q 671 -192 671 -154 q 632 -287 671 -250 q 535 -326 593 -325 l 532 -315 q 568 -289 556 -306 q 581 -253 581 -272 q 576 -226 581 -239 q 561 -204 571 -214 q 543 -178 551 -192 q 535 -147 535 -164 z "},"Ġ":{"ha":1144,"x_min":69,"x_max":1117,"o":"m 1026 389 l 1026 160 q 933 76 994 118 q 783 8 871 35 q 585 -19 696 -19 q 315 44 432 -18 q 134 219 199 106 q 69 488 69 332 q 133 754 69 640 q 315 930 197 868 q 590 992 433 992 q 735 981 667 992 q 862 951 804 969 q 960 910 919 932 l 971 686 l 958 686 q 884 831 933 776 q 767 913 835 886 q 619 939 699 939 q 423 883 504 939 q 299 724 342 826 q 256 482 256 622 q 297 245 256 346 q 415 90 338 144 q 597 33 492 35 q 703 49 653 33 q 794 94 753 64 q 858 165 835 124 l 860 389 q 789 451 860 451 l 767 451 l 767 465 l 1117 465 l 1117 451 l 1096 451 q 1026 389 1024 451 z "},"H":{"ha":1174,"x_min":67,"x_max":1108,"o":"m 1001 972 l 1001 0 l 832 0 l 832 972 l 1001 972 m 343 972 l 343 0 l 174 0 l 174 972 l 343 972 m 844 510 l 844 457 l 329 457 l 329 510 l 844 510 m 178 101 l 178 0 l 67 0 l 67 14 q 76 14 67 14 q 85 14 85 14 q 147 40 121 14 q 174 101 172 65 l 178 101 m 178 871 l 174 871 q 147 933 172 907 q 85 958 121 958 q 76 958 85 958 q 67 958 67 958 l 67 972 l 178 972 l 178 871 m 339 101 l 343 101 q 370 40 344 65 q 432 14 396 14 q 440 14 432 14 q 450 14 449 14 l 450 0 l 339 0 l 339 101 m 339 871 l 339 972 l 450 972 l 450 958 q 440 958 449 958 q 432 958 432 958 q 370 933 396 958 q 343 871 344 907 l 339 871 m 836 101 l 836 0 l 725 0 l 725 14 q 735 14 726 14 q 743 14 743 14 q 806 40 779 14 q 832 101 832 65 l 836 101 m 836 871 l 832 871 q 806 933 832 907 q 743 958 779 958 q 735 958 743 958 q 725 958 726 958 l 725 972 l 836 972 l 836 871 m 997 101 l 1001 101 q 1028 40 1003 65 q 1090 14 1054 14 q 1099 14 1090 14 q 1108 14 1108 14 l 1108 0 l 997 0 l 997 101 m 997 871 l 997 972 l 1108 972 l 1108 958 q 1099 958 1108 958 q 1090 958 1090 958 q 1028 933 1054 958 q 1001 871 1003 907 l 997 871 z "},"Ħ":{"ha":1146,"x_min":53,"x_max":1093,"o":"m 1079 739 l 1079 686 l 69 686 l 69 739 l 1079 739 m 986 972 l 986 0 l 818 0 l 818 972 l 986 972 m 328 972 l 328 0 l 160 0 l 160 972 l 328 972 m 831 510 l 831 457 l 314 457 l 314 510 l 831 510 m 163 101 l 163 0 l 53 0 l 53 14 q 61 14 53 14 q 71 14 69 14 q 133 40 107 14 q 160 101 158 65 l 163 101 m 163 871 l 160 871 q 133 933 158 907 q 71 958 107 958 q 61 958 69 958 q 53 958 53 958 l 53 972 l 163 972 l 163 871 m 324 101 l 328 101 q 356 40 329 65 q 417 14 382 14 q 425 14 417 14 q 435 14 433 14 l 435 0 l 324 0 l 324 101 m 324 871 l 324 972 l 435 972 l 435 958 q 425 958 433 958 q 417 958 417 958 q 356 933 382 958 q 328 871 329 907 l 324 871 m 822 101 l 822 0 l 711 0 l 711 14 q 720 14 711 14 q 729 14 729 14 q 791 40 765 14 q 818 101 817 65 l 822 101 m 822 871 l 818 871 q 791 933 817 907 q 729 958 765 958 q 720 958 729 958 q 711 958 711 958 l 711 972 l 822 972 l 822 871 m 982 101 l 986 101 q 1013 40 988 65 q 1075 14 1039 14 q 1084 14 1075 14 q 1093 14 1093 14 l 1093 0 l 982 0 l 982 101 m 982 871 l 982 972 l 1093 972 l 1093 958 q 1084 958 1093 958 q 1075 958 1075 958 q 1013 933 1039 958 q 986 871 988 907 l 982 871 z "},"I":{"ha":514,"x_min":67,"x_max":450,"o":"m 343 972 l 343 0 l 174 0 l 174 972 l 343 972 m 178 101 l 178 0 l 67 0 l 67 14 q 76 14 67 14 q 85 14 85 14 q 147 40 121 14 q 174 101 172 65 l 178 101 m 178 871 l 174 871 q 147 933 172 907 q 85 958 121 958 q 76 958 85 958 q 67 958 67 958 l 67 972 l 178 972 l 178 871 m 339 101 l 343 101 q 370 40 344 65 q 432 14 396 14 q 440 14 432 14 q 450 14 449 14 l 450 0 l 339 0 l 339 101 m 339 871 l 339 972 l 450 972 l 450 958 q 440 958 449 958 q 432 958 432 958 q 370 933 396 958 q 343 871 344 907 l 339 871 z "},"Ĳ":{"ha":1021,"x_min":67,"x_max":967,"o":"m 343 972 l 343 0 l 174 0 l 174 972 l 343 972 m 178 101 l 178 0 l 67 0 l 67 14 q 76 14 67 14 q 85 14 85 14 q 147 40 121 14 q 174 101 172 65 l 178 101 m 178 871 l 174 871 q 147 933 172 907 q 85 958 121 958 q 76 958 85 958 q 67 958 67 958 l 67 972 l 178 972 l 178 871 m 339 101 l 343 101 q 370 40 344 65 q 432 14 396 14 q 440 14 432 14 q 450 14 449 14 l 450 0 l 339 0 l 339 101 m 339 871 l 339 972 l 450 972 l 450 958 q 440 958 449 958 q 432 958 432 958 q 370 933 396 958 q 343 871 344 907 l 339 871 m 860 972 l 860 28 q 833 -101 860 -43 q 759 -199 806 -158 q 653 -261 713 -240 q 528 -278 593 -282 l 528 -265 q 618 -197 582 -243 q 672 -90 654 -150 q 690 32 690 -31 l 690 972 l 860 972 m 694 871 l 690 871 q 663 933 689 907 q 601 958 638 958 q 592 958 601 958 q 583 958 583 958 l 583 972 l 694 972 l 694 871 m 856 871 l 856 972 l 967 972 l 967 958 q 958 958 967 958 q 949 958 949 958 q 887 933 913 958 q 860 871 861 907 l 856 871 z "},"Í":{"ha":514,"x_min":67,"x_max":513,"o":"m 343 972 l 343 0 l 174 0 l 174 972 l 343 972 m 178 101 l 178 0 l 67 0 l 67 14 q 76 14 67 14 q 85 14 85 14 q 147 40 121 14 q 174 101 172 65 l 178 101 m 178 871 l 174 871 q 147 933 172 907 q 85 958 121 958 q 76 958 85 958 q 67 958 67 958 l 67 972 l 178 972 l 178 871 m 339 101 l 343 101 q 370 40 344 65 q 432 14 396 14 q 440 14 432 14 q 450 14 449 14 l 450 0 l 339 0 l 339 101 m 339 871 l 339 972 l 450 972 l 450 958 q 440 958 449 958 q 432 958 432 958 q 370 933 396 958 q 343 871 344 907 l 339 871 z "},"Î":{"ha":514,"x_min":65,"x_max":458,"o":"m 343 972 l 343 0 l 174 0 l 174 972 l 343 972 m 178 101 l 178 0 l 67 0 l 67 14 q 76 14 67 14 q 85 14 85 14 q 147 40 121 14 q 174 101 172 65 l 178 101 m 178 871 l 174 871 q 147 933 172 907 q 85 958 121 958 q 76 958 85 958 q 67 958 67 958 l 67 972 l 178 972 l 178 871 m 339 101 l 343 101 q 370 40 344 65 q 432 14 396 14 q 440 14 432 14 q 450 14 449 14 l 450 0 l 339 0 l 339 101 m 339 871 l 339 972 l 450 972 l 450 958 q 440 958 449 958 q 432 958 432 958 q 370 933 396 958 q 343 871 344 907 l 339 871 z "},"Ï":{"ha":514,"x_min":29,"x_max":481,"o":"m 343 972 l 343 0 l 174 0 l 174 972 l 343 972 m 178 101 l 178 0 l 67 0 l 67 14 q 76 14 67 14 q 85 14 85 14 q 147 40 121 14 q 174 101 172 65 l 178 101 m 178 871 l 174 871 q 147 933 172 907 q 85 958 121 958 q 76 958 85 958 q 67 958 67 958 l 67 972 l 178 972 l 178 871 m 339 101 l 343 101 q 370 40 344 65 q 432 14 396 14 q 440 14 432 14 q 450 14 449 14 l 450 0 l 339 0 l 339 101 m 339 871 l 339 972 l 450 972 l 450 958 q 440 958 449 958 q 432 958 432 958 q 370 933 396 958 q 343 871 344 907 l 339 871 z "},"İ":{"ha":514,"x_min":67,"x_max":450,"o":"m 343 972 l 343 0 l 174 0 l 174 972 l 343 972 m 178 101 l 178 0 l 67 0 l 67 14 q 76 14 67 14 q 85 14 85 14 q 147 40 121 14 q 174 101 172 65 l 178 101 m 178 871 l 174 871 q 147 933 172 907 q 85 958 121 958 q 76 958 85 958 q 67 958 67 958 l 67 972 l 178 972 l 178 871 m 339 101 l 343 101 q 370 40 344 65 q 432 14 396 14 q 440 14 432 14 q 450 14 449 14 l 450 0 l 339 0 l 339 101 m 339 871 l 339 972 l 450 972 l 450 958 q 440 958 449 958 q 432 958 432 958 q 370 933 396 958 q 343 871 344 907 l 339 871 z "},"Ì":{"ha":514,"x_min":10,"x_max":450,"o":"m 343 972 l 343 0 l 174 0 l 174 972 l 343 972 m 178 101 l 178 0 l 67 0 l 67 14 q 76 14 67 14 q 85 14 85 14 q 147 40 121 14 q 174 101 172 65 l 178 101 m 178 871 l 174 871 q 147 933 172 907 q 85 958 121 958 q 76 958 85 958 q 67 958 67 958 l 67 972 l 178 972 l 178 871 m 339 101 l 343 101 q 370 40 344 65 q 432 14 396 14 q 440 14 432 14 q 450 14 449 14 l 450 0 l 339 0 l 339 101 m 339 871 l 339 972 l 450 972 l 450 958 q 440 958 449 958 q 432 958 432 958 q 370 933 396 958 q 343 871 344 907 l 339 871 m 283 1071 l 274 1061 q 186 1094 232 1075 q 95 1136 140 1113 q 10 1183 50 1160 q 42 1241 22 1217 q 92 1283 61 1265 q 157 1222 122 1257 q 225 1148 192 1186 q 283 1071 258 1110 z "},"Ī":{"ha":514,"x_min":67,"x_max":450,"o":"m 343 972 l 343 0 l 174 0 l 174 972 l 343 972 m 178 101 l 178 0 l 67 0 l 67 14 q 76 14 67 14 q 85 14 85 14 q 147 40 121 14 q 174 101 172 65 l 178 101 m 178 871 l 174 871 q 147 933 172 907 q 85 958 121 958 q 76 958 85 958 q 67 958 67 958 l 67 972 l 178 972 l 178 871 m 339 101 l 343 101 q 370 40 344 65 q 432 14 396 14 q 440 14 432 14 q 450 14 449 14 l 450 0 l 339 0 l 339 101 m 339 871 l 339 972 l 450 972 l 450 958 q 440 958 449 958 q 432 958 432 958 q 370 933 396 958 q 343 871 344 907 l 339 871 z "},"Į":{"ha":514,"x_min":67,"x_max":450,"o":"m 343 972 l 343 0 l 174 0 l 174 972 l 343 972 m 178 101 l 178 0 l 67 0 l 67 14 q 76 14 67 14 q 85 14 85 14 q 147 40 121 14 q 174 101 172 65 l 178 101 m 178 871 l 174 871 q 147 933 172 907 q 85 958 121 958 q 76 958 85 958 q 67 958 67 958 l 67 972 l 178 972 l 178 871 m 339 101 l 343 101 q 370 40 344 65 q 432 14 396 14 q 440 14 432 14 q 450 14 449 14 l 450 0 l 339 0 l 339 101 m 339 871 l 339 972 l 450 972 l 450 958 q 440 958 449 958 q 432 958 432 958 q 370 933 396 958 q 343 871 344 907 l 339 871 z "},"J":{"ha":506,"x_min":14,"x_max":453,"o":"m 346 972 l 346 28 q 319 -101 346 -43 q 245 -199 292 -158 q 139 -261 199 -240 q 14 -278 79 -282 l 14 -265 q 104 -197 68 -243 q 158 -90 140 -150 q 176 32 176 -31 l 176 972 l 346 972 m 181 871 l 176 871 q 149 933 175 907 q 88 958 124 958 q 78 958 88 958 q 69 958 69 958 l 69 972 l 181 972 l 181 871 m 342 871 l 342 972 l 453 972 l 453 958 q 444 958 453 958 q 435 958 435 958 q 373 933 399 958 q 346 871 347 907 l 342 871 z "},"K":{"ha":1006,"x_min":67,"x_max":1029,"o":"m 517 576 l 890 90 q 953 34 921 53 q 1029 14 986 15 l 1029 0 l 933 0 q 886 2 918 0 q 815 13 854 4 q 735 43 775 22 q 664 103 694 64 q 638 138 660 110 q 585 208 617 167 q 519 294 553 249 q 455 378 485 339 q 406 442 425 417 q 388 467 388 467 l 517 576 m 882 963 l 465 472 l 388 467 l 769 963 l 882 963 m 979 972 l 979 960 l 974 960 q 888 942 928 960 q 821 892 849 924 l 717 894 q 722 939 733 918 q 683 960 711 960 l 669 960 l 669 972 l 974 972 l 979 972 m 343 972 l 343 0 l 174 0 l 174 972 l 343 972 m 178 101 l 178 0 l 67 0 l 67 14 q 76 14 68 14 q 85 14 83 14 q 147 40 121 14 q 174 101 172 65 l 178 101 m 178 871 l 174 871 q 147 933 172 907 q 85 958 121 958 q 76 958 83 958 q 67 958 68 958 l 67 972 l 178 972 l 178 871 m 339 101 l 343 101 q 370 40 344 65 q 432 14 396 14 q 440 14 432 14 q 450 14 449 14 l 450 0 l 339 0 l 339 101 m 339 871 l 339 972 l 450 972 l 450 958 q 440 958 449 958 q 432 958 432 958 q 370 933 396 958 q 343 871 344 907 l 339 871 z "},"Ķ":{"ha":1006,"x_min":67,"x_max":1029,"o":"m 517 576 l 890 90 q 953 34 921 53 q 1029 14 986 15 l 1029 0 l 933 0 q 886 2 918 0 q 815 13 854 4 q 735 43 775 22 q 664 103 694 64 q 638 138 660 110 q 585 208 617 167 q 519 294 553 249 q 455 378 485 339 q 406 442 425 417 q 388 467 388 467 l 517 576 m 882 963 l 465 472 l 388 467 l 769 963 l 882 963 m 979 972 l 979 960 l 974 960 q 888 942 928 960 q 821 892 849 924 l 717 894 q 722 939 733 918 q 683 960 711 960 l 669 960 l 669 972 l 974 972 l 979 972 m 343 972 l 343 0 l 174 0 l 174 972 l 343 972 m 178 101 l 178 0 l 67 0 l 67 14 q 76 14 68 14 q 85 14 83 14 q 147 40 121 14 q 174 101 172 65 l 178 101 m 178 871 l 174 871 q 147 933 172 907 q 85 958 121 958 q 76 958 83 958 q 67 958 68 958 l 67 972 l 178 972 l 178 871 m 339 101 l 343 101 q 370 40 344 65 q 432 14 396 14 q 440 14 432 14 q 450 14 449 14 l 450 0 l 339 0 l 339 101 m 339 871 l 339 972 l 450 972 l 450 958 q 440 958 449 958 q 432 958 432 958 q 370 933 396 958 q 343 871 344 907 l 339 871 m 522 -147 q 540 -104 522 -119 q 581 -89 557 -89 q 640 -122 621 -89 q 658 -192 658 -154 q 619 -287 658 -250 q 522 -326 581 -325 l 519 -315 q 556 -289 543 -306 q 568 -253 568 -272 q 563 -226 568 -239 q 549 -204 558 -214 q 531 -178 539 -192 q 522 -147 522 -164 z "},"L":{"ha":831,"x_min":67,"x_max":808,"o":"m 343 972 l 343 0 l 174 0 l 174 972 l 343 972 m 711 54 l 735 0 l 339 0 l 339 54 l 711 54 m 808 264 l 739 0 l 479 0 l 529 54 q 651 80 600 54 q 738 153 703 106 q 794 264 772 201 l 808 264 m 178 101 l 178 0 l 67 0 l 67 14 q 76 14 67 14 q 85 14 85 14 q 147 40 121 14 q 174 101 172 65 l 178 101 m 178 871 l 174 871 q 147 933 172 907 q 85 958 121 958 q 76 958 85 958 q 67 958 67 958 l 67 972 l 178 972 l 178 871 m 339 871 l 339 972 l 450 972 l 450 958 q 440 958 449 958 q 432 958 432 958 q 370 933 396 958 q 343 871 344 907 l 339 871 z "},"Ĺ":{"ha":831,"x_min":67,"x_max":808,"o":"m 343 972 l 343 0 l 174 0 l 174 972 l 343 972 m 711 54 l 735 0 l 339 0 l 339 54 l 711 54 m 808 264 l 739 0 l 479 0 l 529 54 q 651 80 600 54 q 738 153 703 106 q 794 264 772 201 l 808 264 m 178 101 l 178 0 l 67 0 l 67 14 q 76 14 67 14 q 85 14 85 14 q 147 40 121 14 q 174 101 172 65 l 178 101 m 178 871 l 174 871 q 147 933 172 907 q 85 958 121 958 q 76 958 85 958 q 67 958 67 958 l 67 972 l 178 972 l 178 871 m 339 871 l 339 972 l 450 972 l 450 958 q 440 958 449 958 q 432 958 432 958 q 370 933 396 958 q 343 871 344 907 l 339 871 z "},"Ľ":{"ha":831,"x_min":67,"x_max":808,"o":"m 343 972 l 343 0 l 174 0 l 174 972 l 343 972 m 711 54 l 735 0 l 339 0 l 339 54 l 711 54 m 808 264 l 739 0 l 479 0 l 529 54 q 651 80 600 54 q 738 153 703 106 q 794 264 772 201 l 808 264 m 178 101 l 178 0 l 67 0 l 67 14 q 76 14 67 14 q 85 14 85 14 q 147 40 121 14 q 174 101 172 65 l 178 101 m 178 871 l 174 871 q 147 933 172 907 q 85 958 121 958 q 76 958 85 958 q 67 958 67 958 l 67 972 l 178 972 l 178 871 m 339 871 l 339 972 l 450 972 l 450 958 q 440 958 449 958 q 432 958 432 958 q 370 933 396 958 q 343 871 344 907 l 339 871 m 560 961 q 595 981 574 978 q 638 973 617 983 q 668 939 658 963 q 681 866 685 901 q 657 802 676 831 q 608 758 638 774 q 544 746 579 742 l 542 756 q 581 785 569 765 q 590 826 593 804 q 571 868 588 849 q 548 914 554 888 q 560 961 542 940 z "},"Ļ":{"ha":831,"x_min":67,"x_max":808,"o":"m 343 972 l 343 0 l 174 0 l 174 972 l 343 972 m 711 54 l 735 0 l 339 0 l 339 54 l 711 54 m 808 264 l 739 0 l 479 0 l 529 54 q 651 80 600 54 q 738 153 703 106 q 794 264 772 201 l 808 264 m 178 101 l 178 0 l 67 0 l 67 14 q 76 14 67 14 q 85 14 85 14 q 147 40 121 14 q 174 101 172 65 l 178 101 m 178 871 l 174 871 q 147 933 172 907 q 85 958 121 958 q 76 958 85 958 q 67 958 67 958 l 67 972 l 178 972 l 178 871 m 339 871 l 339 972 l 450 972 l 450 958 q 440 958 449 958 q 432 958 432 958 q 370 933 396 958 q 343 871 344 907 l 339 871 m 392 -147 q 409 -104 392 -119 q 450 -89 426 -89 q 509 -122 490 -89 q 528 -192 528 -154 q 489 -287 528 -250 q 392 -326 450 -325 l 389 -315 q 425 -289 413 -306 q 438 -253 438 -272 q 433 -226 438 -239 q 418 -204 428 -214 q 400 -178 408 -192 q 392 -147 392 -164 z "},"Ŀ":{"ha":831,"x_min":67,"x_max":808,"o":"m 343 972 l 343 0 l 174 0 l 174 972 l 343 972 m 178 101 l 178 0 l 67 0 l 67 14 q 76 14 67 14 q 85 14 85 14 q 147 40 121 14 q 174 101 172 65 l 178 101 m 711 54 l 735 0 l 339 0 l 339 54 l 711 54 m 808 264 l 739 0 l 479 0 l 529 54 q 651 80 600 54 q 738 153 703 106 q 794 264 772 201 l 808 264 m 178 972 l 178 871 l 174 871 q 147 933 172 907 q 85 958 121 958 q 76 958 85 958 q 67 958 67 958 l 67 972 l 178 972 m 450 972 l 450 958 q 440 958 449 958 q 432 958 432 958 q 370 933 396 958 q 343 871 344 907 l 339 871 l 339 972 l 450 972 m 540 518 q 484 540 507 518 q 461 596 461 563 q 484 652 461 629 q 540 675 507 675 q 595 652 572 675 q 618 596 618 629 q 595 540 618 563 q 540 518 572 518 z "},"Ł":{"ha":831,"x_min":25,"x_max":808,"o":"m 343 972 l 343 0 l 174 0 l 174 972 l 343 972 m 178 972 l 178 871 l 174 871 q 147 933 172 907 q 85 958 121 958 q 76 958 85 958 q 67 958 67 958 l 67 972 l 178 972 m 450 972 l 450 958 q 440 958 449 958 q 432 958 432 958 q 370 933 396 958 q 343 871 344 907 l 339 871 l 339 972 l 450 972 m 178 101 l 178 0 l 67 0 l 67 14 q 76 14 67 14 q 85 14 85 14 q 147 40 121 14 q 174 101 172 65 l 178 101 m 711 54 l 735 0 l 339 0 l 339 54 l 711 54 m 808 264 l 739 0 l 479 0 l 529 54 q 651 80 600 54 q 738 153 703 106 q 794 264 772 201 l 808 264 m 25 381 l 489 649 l 515 601 l 51 333 l 25 381 z "},"M":{"ha":1314,"x_min":-1,"x_max":1317,"o":"m 1065 992 l 1076 860 l 685 125 q 672 101 685 125 q 647 42 660 76 q 633 -25 635 7 l 619 -25 l 576 85 l 1065 992 m 153 101 l 153 0 l -1 0 l -1 14 q 10 14 0 14 q 21 14 21 14 q 88 37 58 14 q 122 101 117 60 l 153 101 m 207 79 q 207 76 207 78 q 207 72 207 75 q 223 31 207 50 q 261 13 239 13 l 282 13 l 282 0 l 197 0 l 197 79 l 207 79 m 233 992 l 247 992 l 289 871 l 199 0 l 110 0 l 233 992 m 247 992 l 683 206 l 619 -25 l 214 721 l 247 992 m 1078 992 l 1206 0 l 1021 0 l 949 706 l 1065 992 l 1078 992 m 1163 101 l 1193 101 q 1228 37 1200 60 q 1294 14 1257 14 q 1305 14 1294 14 q 1317 14 1315 14 l 1317 0 l 1163 0 l 1163 101 m 1013 79 l 1022 79 l 1022 0 l 938 0 l 938 13 l 958 13 q 997 31 982 13 q 1013 72 1013 50 q 1013 76 1013 75 q 1013 79 1013 78 z "},"N":{"ha":1190,"x_min":49,"x_max":1142,"o":"m 158 993 l 1018 143 l 1033 -19 l 174 829 l 158 993 m 164 99 l 164 0 l 49 0 l 49 14 q 61 14 49 14 q 75 14 74 14 q 135 39 110 14 q 160 99 160 64 l 164 99 m 314 99 q 339 39 314 64 q 399 14 364 14 q 413 14 400 14 q 425 14 425 14 l 425 0 l 310 0 l 310 99 l 314 99 m 158 993 l 313 825 l 314 0 l 160 0 l 160 819 q 152 944 160 894 q 144 993 144 993 l 158 993 m 1031 972 l 1031 158 q 1035 68 1031 108 q 1042 4 1039 28 q 1046 -19 1046 -19 l 1033 -19 l 879 154 l 879 972 l 1031 972 m 1142 972 l 1142 958 q 1129 958 1142 958 q 1117 958 1117 958 q 1057 934 1082 958 q 1031 874 1032 910 l 1026 874 l 1026 972 l 1142 972 m 767 972 l 882 972 l 882 874 l 879 874 q 853 934 878 910 q 793 958 829 958 q 781 958 793 958 q 767 958 768 958 l 767 972 z "},"Ń":{"ha":1190,"x_min":49,"x_max":1142,"o":"m 158 993 l 1018 143 l 1033 -19 l 174 829 l 158 993 m 164 99 l 164 0 l 49 0 l 49 14 q 61 14 49 14 q 75 14 74 14 q 135 39 110 14 q 160 99 160 64 l 164 99 m 314 99 q 339 39 314 64 q 399 14 364 14 q 413 14 400 14 q 425 14 425 14 l 425 0 l 310 0 l 310 99 l 314 99 m 158 993 l 313 825 l 314 0 l 160 0 l 160 819 q 152 944 160 894 q 144 993 144 993 l 158 993 m 1031 972 l 1031 158 q 1035 68 1031 108 q 1042 4 1039 28 q 1046 -19 1046 -19 l 1033 -19 l 879 154 l 879 972 l 1031 972 m 1142 972 l 1142 958 q 1129 958 1142 958 q 1117 958 1117 958 q 1057 934 1082 958 q 1031 874 1032 910 l 1026 874 l 1026 972 l 1142 972 m 767 972 l 882 972 l 882 874 l 879 874 q 853 934 878 910 q 793 958 829 958 q 781 958 793 958 q 767 958 768 958 l 767 972 z "},"Ň":{"ha":1190,"x_min":49,"x_max":1142,"o":"m 158 993 l 1018 143 l 1033 -19 l 174 829 l 158 993 m 164 99 l 164 0 l 49 0 l 49 14 q 61 14 49 14 q 75 14 74 14 q 135 39 110 14 q 160 99 160 64 l 164 99 m 314 99 q 339 39 314 64 q 399 14 364 14 q 413 14 400 14 q 425 14 425 14 l 425 0 l 310 0 l 310 99 l 314 99 m 158 993 l 313 825 l 314 0 l 160 0 l 160 819 q 152 944 160 894 q 144 993 144 993 l 158 993 m 1031 972 l 1031 158 q 1035 68 1031 108 q 1042 4 1039 28 q 1046 -19 1046 -19 l 1033 -19 l 879 154 l 879 972 l 1031 972 m 1142 972 l 1142 958 q 1129 958 1142 958 q 1117 958 1117 958 q 1057 934 1082 958 q 1031 874 1032 910 l 1026 874 l 1026 972 l 1142 972 m 767 972 l 882 972 l 882 874 l 879 874 q 853 934 878 910 q 793 958 829 958 q 781 958 793 958 q 767 958 768 958 l 767 972 z "},"Ņ":{"ha":1190,"x_min":49,"x_max":1142,"o":"m 158 993 l 1018 143 l 1033 -19 l 174 829 l 158 993 m 164 99 l 164 0 l 49 0 l 49 14 q 61 14 49 14 q 75 14 74 14 q 135 39 110 14 q 160 99 160 64 l 164 99 m 314 99 q 339 39 314 64 q 399 14 364 14 q 413 14 400 14 q 425 14 425 14 l 425 0 l 310 0 l 310 99 l 314 99 m 158 993 l 313 825 l 314 0 l 160 0 l 160 819 q 152 944 160 894 q 144 993 144 993 l 158 993 m 1031 972 l 1031 158 q 1035 68 1031 108 q 1042 4 1039 28 q 1046 -19 1046 -19 l 1033 -19 l 879 154 l 879 972 l 1031 972 m 1142 972 l 1142 958 q 1129 958 1142 958 q 1117 958 1117 958 q 1057 934 1082 958 q 1031 874 1032 910 l 1026 874 l 1026 972 l 1142 972 m 767 972 l 882 972 l 882 874 l 879 874 q 853 934 878 910 q 793 958 829 958 q 781 958 793 958 q 767 958 768 958 l 767 972 m 576 -147 q 594 -104 576 -119 q 635 -89 611 -89 q 694 -122 675 -89 q 713 -192 713 -154 q 674 -287 713 -250 q 576 -326 635 -325 l 574 -315 q 610 -289 597 -306 q 622 -253 622 -272 q 617 -226 622 -239 q 603 -204 613 -214 q 585 -178 593 -192 q 576 -147 576 -164 z "},"Ŋ":{"ha":1178,"x_min":49,"x_max":1124,"o":"m 150 993 l 297 825 l 299 0 l 150 0 l 150 819 q 143 944 150 894 q 136 993 136 993 l 150 993 m 154 93 l 154 0 l 49 0 l 49 17 q 60 17 49 17 q 72 17 72 17 q 127 39 104 17 q 150 93 150 61 l 154 93 m 299 93 q 322 39 299 61 q 376 17 344 17 q 390 17 378 17 q 401 17 401 17 l 401 0 l 294 0 l 294 93 l 299 93 m 1022 -18 l 164 829 l 150 993 l 1010 144 l 1022 -18 m 1024 -29 q 1002 -142 1024 -93 q 944 -222 981 -190 q 860 -267 907 -253 q 760 -278 813 -281 l 753 -267 q 801 -229 779 -250 q 840 -179 824 -208 q 866 -107 857 -150 q 875 -1 875 -64 l 875 972 l 1022 972 l 1024 -29 m 772 972 l 878 972 l 878 879 l 874 879 q 851 933 874 911 q 796 956 828 956 q 784 956 796 956 q 772 956 772 956 l 772 972 m 1124 972 l 1124 956 q 1112 956 1124 956 q 1100 956 1100 956 q 1045 933 1068 956 q 1022 879 1022 911 l 1018 879 l 1018 972 l 1124 972 z "},"Ñ":{"ha":1190,"x_min":49,"x_max":1142,"o":"m 158 993 l 1018 143 l 1033 -19 l 174 829 l 158 993 m 164 99 l 164 0 l 49 0 l 49 14 q 61 14 49 14 q 75 14 74 14 q 135 39 110 14 q 160 99 160 64 l 164 99 m 314 99 q 339 39 314 64 q 399 14 364 14 q 413 14 400 14 q 425 14 425 14 l 425 0 l 310 0 l 310 99 l 314 99 m 158 993 l 313 825 l 314 0 l 160 0 l 160 819 q 152 944 160 894 q 144 993 144 993 l 158 993 m 1031 972 l 1031 158 q 1035 68 1031 108 q 1042 4 1039 28 q 1046 -19 1046 -19 l 1033 -19 l 879 154 l 879 972 l 1031 972 m 1142 972 l 1142 958 q 1129 958 1142 958 q 1117 958 1117 958 q 1057 934 1082 958 q 1031 874 1032 910 l 1026 874 l 1026 972 l 1142 972 m 767 972 l 882 972 l 882 874 l 879 874 q 853 934 878 910 q 793 958 829 958 q 781 958 793 958 q 767 958 768 958 l 767 972 z "},"O":{"ha":1201,"x_min":78,"x_max":1139,"o":"m 608 992 q 888 930 768 992 q 1074 754 1008 868 q 1139 486 1139 640 q 1074 218 1139 332 q 888 42 1008 104 q 608 -19 768 -19 q 328 42 447 -19 q 143 218 208 104 q 78 486 78 332 q 143 754 78 640 q 328 930 208 868 q 608 992 447 992 m 608 33 q 790 89 713 33 q 909 246 867 144 q 951 486 951 347 q 909 726 951 625 q 790 883 867 828 q 608 939 713 939 q 427 883 504 939 q 308 726 350 828 q 265 486 265 625 q 308 246 265 347 q 427 89 350 144 q 608 33 504 33 z "},"Ó":{"ha":1201,"x_min":78,"x_max":1139,"o":"m 608 992 q 888 930 768 992 q 1074 754 1008 868 q 1139 486 1139 640 q 1074 218 1139 332 q 888 42 1008 104 q 608 -19 768 -19 q 328 42 447 -19 q 143 218 208 104 q 78 486 78 332 q 143 754 78 640 q 328 930 208 868 q 608 992 447 992 m 608 33 q 790 89 713 33 q 909 246 867 144 q 951 486 951 347 q 909 726 951 625 q 790 883 867 828 q 608 939 713 939 q 427 883 504 939 q 308 726 350 828 q 265 486 265 625 q 308 246 265 347 q 427 89 350 144 q 608 33 504 33 z "},"Ô":{"ha":1201,"x_min":78,"x_max":1139,"o":"m 608 992 q 888 930 768 992 q 1074 754 1008 868 q 1139 486 1139 640 q 1074 218 1139 332 q 888 42 1008 104 q 608 -19 768 -19 q 328 42 447 -19 q 143 218 208 104 q 78 486 78 332 q 143 754 78 640 q 328 930 208 868 q 608 992 447 992 m 608 33 q 790 89 713 33 q 909 246 867 144 q 951 486 951 347 q 909 726 951 625 q 790 883 867 828 q 608 939 713 939 q 427 883 504 939 q 308 726 350 828 q 265 486 265 625 q 308 246 265 347 q 427 89 350 144 q 608 33 504 33 z "},"Ö":{"ha":1201,"x_min":78,"x_max":1139,"o":"m 608 992 q 888 930 768 992 q 1074 754 1008 868 q 1139 486 1139 640 q 1074 218 1139 332 q 888 42 1008 104 q 608 -19 768 -19 q 328 42 447 -19 q 143 218 208 104 q 78 486 78 332 q 143 754 78 640 q 328 930 208 868 q 608 992 447 992 m 608 33 q 790 89 713 33 q 909 246 867 144 q 951 486 951 347 q 909 726 951 625 q 790 883 867 828 q 608 939 713 939 q 427 883 504 939 q 308 726 350 828 q 265 486 265 625 q 308 246 265 347 q 427 89 350 144 q 608 33 504 33 z "},"Ò":{"ha":1201,"x_min":78,"x_max":1139,"o":"m 608 992 q 888 930 768 992 q 1074 754 1008 868 q 1139 486 1139 640 q 1074 218 1139 332 q 888 42 1008 104 q 608 -19 768 -19 q 328 42 447 -19 q 143 218 208 104 q 78 486 78 332 q 143 754 78 640 q 328 930 208 868 q 608 992 447 992 m 608 33 q 792 89 714 33 q 912 246 869 144 q 954 486 954 347 q 912 726 954 625 q 792 883 869 828 q 608 939 714 939 q 425 883 503 939 q 305 726 347 828 q 263 486 263 625 q 305 246 263 347 q 425 89 347 144 q 608 33 503 33 m 629 1079 l 619 1069 q 531 1101 576 1082 q 440 1144 485 1121 q 354 1192 394 1167 q 388 1249 368 1225 q 438 1292 407 1274 q 502 1229 467 1264 q 570 1156 538 1194 q 629 1079 603 1117 z "},"Ő":{"ha":1201,"x_min":78,"x_max":1139,"o":"m 608 992 q 888 930 768 992 q 1074 754 1008 868 q 1139 486 1139 640 q 1074 218 1139 332 q 888 42 1008 104 q 608 -19 768 -19 q 328 42 447 -19 q 143 218 208 104 q 78 486 78 332 q 143 754 78 640 q 328 930 208 868 q 608 992 447 992 m 608 33 q 790 89 713 33 q 909 246 867 144 q 951 486 951 347 q 909 726 951 625 q 790 883 867 828 q 608 939 713 939 q 427 883 504 939 q 308 726 350 828 q 265 486 265 625 q 308 246 265 347 q 427 89 350 144 q 608 33 504 33 z "},"Ō":{"ha":1201,"x_min":78,"x_max":1139,"o":"m 608 992 q 888 930 768 992 q 1074 754 1008 868 q 1139 486 1139 640 q 1074 218 1139 332 q 888 42 1008 104 q 608 -19 768 -19 q 328 42 447 -19 q 143 218 208 104 q 78 486 78 332 q 143 754 78 640 q 328 930 208 868 q 608 992 447 992 m 608 33 q 790 89 713 33 q 909 246 867 144 q 951 486 951 347 q 909 726 951 625 q 790 883 867 828 q 608 939 713 939 q 427 883 504 939 q 308 726 350 828 q 265 486 265 625 q 308 246 265 347 q 427 89 350 144 q 608 33 504 33 z "},"Ø":{"ha":1193,"x_min":78,"x_max":1131,"o":"m 604 992 q 883 930 764 992 q 1066 754 1001 868 q 1131 486 1131 640 q 1066 218 1131 332 q 883 42 1001 104 q 604 -19 764 -19 q 325 42 443 -19 q 142 218 207 104 q 78 486 78 332 q 142 754 78 640 q 325 930 207 868 q 604 992 443 992 m 604 33 q 788 89 710 33 q 908 246 865 144 q 950 486 950 347 q 908 726 950 625 q 788 883 865 828 q 604 939 710 939 q 421 883 499 939 q 301 726 343 828 q 258 486 258 625 q 301 246 258 347 q 421 89 343 144 q 604 33 499 33 m 992 1006 l 1039 968 l 196 -32 l 150 7 l 992 1006 z "},"Õ":{"ha":1201,"x_min":78,"x_max":1139,"o":"m 608 992 q 888 930 768 992 q 1074 754 1008 868 q 1139 486 1139 640 q 1074 218 1139 332 q 888 42 1008 104 q 608 -19 768 -19 q 328 42 447 -19 q 143 218 208 104 q 78 486 78 332 q 143 754 78 640 q 328 930 208 868 q 608 992 447 992 m 608 33 q 790 89 713 33 q 909 246 867 144 q 951 486 951 347 q 909 726 951 625 q 790 883 867 828 q 608 939 713 939 q 427 883 504 939 q 308 726 350 828 q 265 486 265 625 q 308 246 265 347 q 427 89 350 144 q 608 33 504 33 z "},"Œ":{"ha":1446,"x_min":78,"x_max":1413,"o":"m 608 992 q 688 988 647 992 q 765 979 728 985 q 810 974 788 976 q 860 972 832 972 l 861 0 q 832 0 849 0 q 786 -3 815 0 q 733 -8 764 -4 q 669 -16 703 -12 q 601 -19 635 -19 q 326 42 444 -19 q 143 218 208 104 q 78 488 78 332 q 143 755 78 642 q 327 930 208 868 q 608 992 446 992 m 610 33 q 691 44 653 33 q 753 72 729 54 q 778 111 778 90 l 778 861 q 754 901 778 885 q 692 928 731 918 q 610 939 654 939 q 427 884 507 939 q 302 728 347 829 q 257 486 257 628 q 301 246 257 347 q 424 89 344 144 q 610 33 504 33 m 944 972 l 944 0 l 779 4 l 779 972 l 944 972 m 1317 54 l 1339 0 l 942 0 l 936 54 l 1317 54 m 1264 506 l 1264 453 l 940 453 l 940 506 l 1264 506 m 1328 972 l 1328 918 l 939 918 l 939 972 l 1328 972 m 1413 264 l 1343 0 l 1086 0 l 1136 54 q 1258 80 1207 54 q 1343 153 1308 106 q 1399 264 1378 201 l 1413 264 m 1264 456 l 1264 336 l 1250 336 l 1250 351 q 1221 424 1250 394 q 1149 453 1192 453 l 1149 456 l 1264 456 m 1264 622 l 1264 503 l 1149 503 l 1149 506 q 1221 536 1192 507 q 1250 608 1250 565 l 1250 622 l 1264 622 m 1328 922 l 1328 778 l 1313 778 l 1313 797 q 1279 884 1313 850 q 1192 919 1246 918 l 1192 922 l 1328 922 m 1328 997 l 1328 957 l 1158 972 q 1223 976 1189 972 q 1286 986 1257 981 q 1328 997 1315 992 z "},"P":{"ha":875,"x_min":69,"x_max":826,"o":"m 328 972 l 499 972 q 680 938 608 972 q 788 844 751 904 q 825 706 824 785 q 801 581 826 636 q 730 488 775 525 q 628 433 685 450 q 511 423 572 415 q 393 465 450 431 l 393 479 q 412 478 393 479 q 461 481 431 476 q 526 501 492 486 q 589 548 560 515 q 633 635 618 581 q 641 675 639 653 q 642 718 643 697 q 593 865 640 810 q 460 919 546 919 l 342 919 q 338 933 342 919 q 331 959 335 946 q 328 972 328 972 m 346 972 l 346 0 l 176 0 l 176 972 l 346 972 m 181 101 l 181 0 l 69 0 l 69 14 q 78 14 71 14 q 88 14 86 14 q 149 40 124 14 q 176 101 175 65 l 181 101 m 181 871 l 176 871 q 150 933 176 907 q 88 958 124 958 q 79 958 86 958 q 71 958 72 958 l 69 972 l 181 972 l 181 871 m 342 101 l 346 101 q 373 40 347 65 q 435 14 399 14 q 443 14 435 14 q 453 14 451 14 l 453 0 l 342 0 l 342 101 z "},"Þ":{"ha":856,"x_min":60,"x_max":808,"o":"m 336 972 l 336 0 l 167 0 l 167 972 l 336 972 m 169 101 l 169 0 l 60 0 l 60 14 q 68 14 60 14 q 78 14 76 14 q 140 40 114 14 q 167 101 165 65 l 169 101 m 169 871 l 167 871 q 140 933 165 907 q 78 958 114 958 q 68 958 76 958 q 60 958 60 958 l 60 972 l 169 972 l 169 871 m 332 101 l 336 101 q 363 40 336 65 q 425 14 389 14 q 433 14 425 14 q 442 14 442 14 l 442 0 l 332 0 l 332 101 m 332 871 l 332 972 l 442 972 l 442 958 q 433 958 442 958 q 425 958 425 958 q 363 933 389 958 q 336 871 336 907 l 332 871 m 313 767 l 485 767 q 666 733 596 767 q 770 638 736 699 q 807 500 804 578 q 783 375 808 431 q 713 282 757 319 q 612 227 668 244 q 496 217 556 210 q 378 260 436 225 l 378 274 q 397 272 378 274 q 447 276 417 271 q 511 295 478 281 q 574 342 544 310 q 618 429 603 375 q 626 469 624 447 q 628 513 628 492 q 578 659 625 604 q 446 714 532 714 l 326 714 q 323 727 326 714 q 316 753 319 740 q 313 767 313 767 z "},"Q":{"ha":1204,"x_min":72,"x_max":1871,"o":"m 592 -19 l 569 29 q 689 16 632 25 q 803 -8 746 7 q 922 -43 860 -22 q 1053 -91 983 -64 q 1208 -153 1124 -118 q 1388 -204 1297 -187 q 1565 -216 1479 -221 q 1728 -184 1651 -211 q 1864 -106 1804 -157 l 1871 -111 q 1828 -215 1865 -164 q 1726 -304 1790 -265 q 1573 -360 1661 -343 q 1378 -360 1485 -376 q 1147 -286 1271 -344 q 1005 -208 1075 -250 q 865 -126 935 -165 q 728 -57 796 -86 q 592 -19 660 -28 m 603 992 q 881 930 763 992 q 1066 754 1000 868 q 1132 486 1132 640 q 1066 218 1132 332 q 881 42 1000 104 q 603 -19 761 -19 q 323 42 442 -19 q 138 218 204 104 q 72 486 72 332 q 138 754 72 640 q 323 930 204 868 q 603 992 442 992 m 603 33 q 784 89 707 33 q 903 246 861 144 q 946 486 946 347 q 903 726 946 625 q 784 883 861 828 q 603 939 707 939 q 420 883 497 939 q 301 726 343 828 q 258 486 258 625 q 301 246 258 347 q 421 89 343 144 q 603 33 499 33 z "},"R":{"ha":1006,"x_min":69,"x_max":1049,"o":"m 328 972 l 513 972 q 631 957 575 972 q 731 910 688 942 q 798 828 774 878 q 822 711 822 779 q 796 590 822 650 q 718 491 769 531 q 592 446 667 451 q 663 399 629 433 q 719 332 697 365 q 737 306 721 331 q 776 247 753 282 q 826 178 800 213 q 871 119 851 143 q 927 60 901 83 q 982 26 953 38 q 1049 14 1011 14 l 1049 0 l 933 0 q 805 15 861 0 q 707 61 749 31 q 635 138 665 92 q 611 176 626 150 q 578 233 596 201 q 542 295 560 265 q 513 349 525 325 q 497 382 501 372 q 449 447 475 422 q 392 475 422 472 l 392 489 q 410 488 394 489 q 444 489 425 488 q 520 503 482 490 q 589 549 558 515 q 633 644 619 583 q 639 676 636 657 q 640 717 642 696 q 590 864 636 814 q 474 917 544 914 q 418 917 447 918 q 367 917 389 917 q 342 917 346 917 q 338 932 342 918 q 331 959 335 946 q 328 972 328 972 m 346 972 l 346 0 l 176 0 l 176 972 l 346 972 m 181 101 l 181 0 l 69 0 l 69 14 q 78 14 71 14 q 88 14 86 14 q 149 40 124 14 q 176 101 175 65 l 181 101 m 181 871 l 176 871 q 149 933 175 907 q 88 958 124 958 q 78 958 86 958 q 69 958 71 958 l 69 972 l 181 972 l 181 871 m 342 101 l 346 101 q 372 40 346 65 q 435 14 399 14 q 444 14 436 14 q 451 14 451 14 l 451 0 l 342 0 l 342 101 z "},"Ŕ":{"ha":1006,"x_min":69,"x_max":1049,"o":"m 328 972 l 513 972 q 631 957 575 972 q 731 910 688 942 q 798 828 774 878 q 822 711 822 779 q 796 590 822 650 q 718 491 769 531 q 592 446 667 451 q 663 399 629 433 q 719 332 697 365 q 737 306 721 331 q 776 247 753 282 q 826 178 800 213 q 871 119 851 143 q 927 60 901 83 q 982 26 953 38 q 1049 14 1011 14 l 1049 0 l 933 0 q 805 15 861 0 q 707 61 749 31 q 635 138 665 92 q 611 176 626 150 q 578 233 596 201 q 542 295 560 265 q 513 349 525 325 q 497 382 501 372 q 449 447 475 422 q 392 475 422 472 l 392 489 q 410 488 394 489 q 444 489 425 488 q 520 503 482 490 q 589 549 558 515 q 633 644 619 583 q 639 676 636 657 q 640 717 642 696 q 590 864 636 814 q 474 917 544 914 q 418 917 447 918 q 367 917 389 917 q 342 917 346 917 q 338 932 342 918 q 331 959 335 946 q 328 972 328 972 m 346 972 l 346 0 l 176 0 l 176 972 l 346 972 m 181 101 l 181 0 l 69 0 l 69 14 q 78 14 71 14 q 88 14 86 14 q 149 40 124 14 q 176 101 175 65 l 181 101 m 181 871 l 176 871 q 149 933 175 907 q 88 958 124 958 q 78 958 86 958 q 69 958 71 958 l 69 972 l 181 972 l 181 871 m 342 101 l 346 101 q 372 40 346 65 q 435 14 399 14 q 444 14 436 14 q 451 14 451 14 l 451 0 l 342 0 l 342 101 z "},"Ř":{"ha":1006,"x_min":69,"x_max":1049,"o":"m 328 972 l 513 972 q 631 957 575 972 q 731 910 688 942 q 798 828 774 878 q 822 711 822 779 q 796 590 822 650 q 718 491 769 531 q 592 446 667 451 q 663 399 629 433 q 719 332 697 365 q 737 306 721 331 q 776 247 753 282 q 826 178 800 213 q 871 119 851 143 q 927 60 901 83 q 982 26 953 38 q 1049 14 1011 14 l 1049 0 l 933 0 q 805 15 861 0 q 707 61 749 31 q 635 138 665 92 q 611 176 626 150 q 578 233 596 201 q 542 295 560 265 q 513 349 525 325 q 497 382 501 372 q 449 447 475 422 q 392 475 422 472 l 392 489 q 410 488 394 489 q 444 489 425 488 q 520 503 482 490 q 589 549 558 515 q 633 644 619 583 q 639 676 636 657 q 640 717 642 696 q 590 864 636 814 q 474 917 544 914 q 418 917 447 918 q 367 917 389 917 q 342 917 346 917 q 338 932 342 918 q 331 959 335 946 q 328 972 328 972 m 346 972 l 346 0 l 176 0 l 176 972 l 346 972 m 181 101 l 181 0 l 69 0 l 69 14 q 78 14 71 14 q 88 14 86 14 q 149 40 124 14 q 176 101 175 65 l 181 101 m 181 871 l 176 871 q 149 933 175 907 q 88 958 124 958 q 78 958 86 958 q 69 958 71 958 l 69 972 l 181 972 l 181 871 m 342 101 l 346 101 q 372 40 346 65 q 435 14 399 14 q 444 14 436 14 q 451 14 451 14 l 451 0 l 342 0 l 342 101 z "},"Ŗ":{"ha":1006,"x_min":69,"x_max":1049,"o":"m 328 972 l 513 972 q 631 957 575 972 q 731 910 688 942 q 798 828 774 878 q 822 711 822 779 q 796 590 822 650 q 718 491 769 531 q 592 446 667 451 q 663 399 629 433 q 719 332 697 365 q 737 306 721 331 q 776 247 753 282 q 826 178 800 213 q 871 119 851 143 q 927 60 901 83 q 982 26 953 38 q 1049 14 1011 14 l 1049 0 l 933 0 q 805 15 861 0 q 707 61 749 31 q 635 138 665 92 q 611 176 626 150 q 578 233 596 201 q 542 295 560 265 q 513 349 525 325 q 497 382 501 372 q 449 447 475 422 q 392 475 422 472 l 392 489 q 410 488 394 489 q 444 489 425 488 q 520 503 482 490 q 589 549 558 515 q 633 644 619 583 q 639 676 636 657 q 640 717 642 696 q 590 864 636 814 q 474 917 544 914 q 418 917 447 918 q 367 917 389 917 q 342 917 346 917 q 338 932 342 918 q 331 959 335 946 q 328 972 328 972 m 346 972 l 346 0 l 176 0 l 176 972 l 346 972 m 181 101 l 181 0 l 69 0 l 69 14 q 78 14 71 14 q 88 14 86 14 q 149 40 124 14 q 176 101 175 65 l 181 101 m 181 871 l 176 871 q 149 933 175 907 q 88 958 124 958 q 78 958 86 958 q 69 958 71 958 l 69 972 l 181 972 l 181 871 m 342 101 l 346 101 q 372 40 346 65 q 435 14 399 14 q 444 14 436 14 q 451 14 451 14 l 451 0 l 342 0 l 342 101 m 521 -147 q 538 -104 521 -119 q 579 -89 556 -89 q 638 -122 619 -89 q 657 -192 657 -154 q 618 -287 657 -250 q 521 -326 579 -325 l 518 -315 q 554 -289 542 -306 q 567 -253 567 -272 q 562 -226 567 -239 q 547 -204 557 -214 q 529 -178 538 -192 q 521 -147 521 -164 z "},"S":{"ha":756,"x_min":72,"x_max":689,"o":"m 372 992 q 435 989 399 992 q 508 981 471 986 q 574 972 544 976 q 614 961 603 967 l 603 785 l 589 785 q 538 897 589 856 q 407 939 488 939 q 278 897 326 939 q 229 796 231 856 q 249 728 226 761 q 311 668 272 696 l 579 469 q 663 378 636 432 q 686 258 689 325 q 594 56 682 131 q 354 -19 506 -19 q 249 -10 303 -19 q 151 17 196 -1 q 81 63 107 36 q 74 130 72 90 q 85 212 75 169 q 108 283 94 254 l 121 283 q 144 155 115 213 q 230 65 174 97 q 363 33 286 32 q 501 82 449 36 q 553 200 553 128 q 531 276 553 242 q 461 338 508 310 l 210 528 q 119 628 146 569 q 96 751 92 688 q 133 873 100 818 q 227 960 167 928 q 372 992 288 992 m 615 978 l 614 949 l 469 949 l 469 978 l 615 978 z "},"Ś":{"ha":756,"x_min":72,"x_max":689,"o":"m 372 992 q 435 989 399 992 q 508 981 471 986 q 574 972 544 976 q 614 961 603 967 l 603 785 l 589 785 q 538 897 589 856 q 407 939 488 939 q 278 897 326 939 q 229 796 231 856 q 249 728 226 761 q 311 668 272 696 l 579 469 q 663 378 636 432 q 686 258 689 325 q 594 56 682 131 q 354 -19 506 -19 q 249 -10 303 -19 q 151 17 196 -1 q 81 63 107 36 q 74 130 72 90 q 85 212 75 169 q 108 283 94 254 l 121 283 q 144 155 115 213 q 230 65 174 97 q 363 33 286 32 q 501 82 449 36 q 553 200 553 128 q 531 276 553 242 q 461 338 508 310 l 210 528 q 119 628 146 569 q 96 751 92 688 q 133 873 100 818 q 227 960 167 928 q 372 992 288 992 m 615 978 l 614 949 l 469 949 l 469 978 l 615 978 z "},"Š":{"ha":756,"x_min":72,"x_max":689,"o":"m 372 992 q 435 989 399 992 q 508 981 471 986 q 574 972 544 976 q 614 961 603 967 l 603 785 l 589 785 q 538 897 589 856 q 407 939 488 939 q 278 897 326 939 q 229 796 231 856 q 249 728 226 761 q 311 668 272 696 l 579 469 q 663 378 636 432 q 686 258 689 325 q 594 56 682 131 q 354 -19 506 -19 q 249 -10 303 -19 q 151 17 196 -1 q 81 63 107 36 q 74 130 72 90 q 85 212 75 169 q 108 283 94 254 l 121 283 q 144 155 115 213 q 230 65 174 97 q 363 33 286 32 q 501 82 449 36 q 553 200 553 128 q 531 276 553 242 q 461 338 508 310 l 210 528 q 119 628 146 569 q 96 751 92 688 q 133 873 100 818 q 227 960 167 928 q 372 992 288 992 m 615 978 l 614 949 l 469 949 l 469 978 l 615 978 z "},"Ş":{"ha":756,"x_min":72,"x_max":689,"o":"m 372 992 q 435 989 399 992 q 508 981 471 986 q 574 972 544 976 q 614 961 603 967 l 603 785 l 589 785 q 538 897 589 856 q 407 939 488 939 q 278 897 326 939 q 229 796 231 856 q 249 728 226 761 q 311 668 272 696 l 579 469 q 663 378 636 432 q 686 258 689 325 q 594 56 682 131 q 354 -19 506 -19 q 249 -10 303 -19 q 151 17 196 -1 q 81 63 107 36 q 74 130 72 90 q 85 212 75 169 q 108 283 94 254 l 121 283 q 144 155 115 213 q 230 65 174 97 q 363 33 286 32 q 501 82 449 36 q 553 200 553 128 q 531 276 553 242 q 461 338 508 310 l 210 528 q 119 628 146 569 q 96 751 92 688 q 133 873 100 818 q 227 960 167 928 q 372 992 288 992 m 615 978 l 614 949 l 469 949 l 469 978 l 615 978 z "},"Ș":{"ha":754,"x_min":72,"x_max":688,"o":"m 363 992 q 426 990 390 992 q 499 983 463 988 q 566 974 536 979 q 613 961 596 968 l 601 797 l 588 797 q 569 857 588 826 q 519 908 551 888 q 464 931 496 924 q 399 939 432 939 q 310 919 349 939 q 250 868 272 900 q 226 797 228 836 q 248 726 225 758 q 310 667 271 694 l 578 468 q 659 380 631 432 q 685 260 688 328 q 592 56 681 131 q 357 -19 504 -18 q 193 2 268 -19 q 81 63 118 24 q 74 128 72 92 q 83 201 75 164 q 106 267 92 238 l 118 267 q 147 149 117 203 q 233 65 176 96 q 369 33 290 33 q 503 83 456 36 q 550 199 550 131 q 529 274 550 239 q 460 339 508 308 l 210 529 q 118 629 146 572 q 96 753 90 686 q 135 876 100 822 q 228 961 169 931 q 363 992 288 992 m 614 978 l 611 949 l 467 949 l 467 978 l 614 978 m 310 -147 q 327 -104 310 -119 q 368 -89 344 -89 q 427 -122 408 -89 q 446 -192 446 -154 q 407 -287 446 -250 q 310 -326 368 -325 l 307 -315 q 343 -289 331 -306 q 356 -253 356 -272 q 351 -226 356 -239 q 336 -204 346 -214 q 318 -178 326 -192 q 310 -147 310 -164 z "},"T":{"ha":903,"x_min":22,"x_max":882,"o":"m 538 968 l 538 0 l 368 0 l 368 968 l 538 968 m 882 974 l 882 921 l 22 921 l 22 974 l 882 974 m 882 925 l 882 779 l 868 781 l 868 799 q 835 886 868 853 q 747 921 801 919 l 747 925 l 882 925 m 882 999 l 882 958 l 713 974 q 777 978 743 974 q 840 988 811 982 q 882 999 869 993 m 372 101 l 372 0 l 261 0 l 261 14 q 270 14 261 14 q 279 14 279 14 q 341 40 315 14 q 368 101 367 65 l 372 101 m 533 101 l 538 101 q 565 40 539 65 q 626 14 590 14 q 635 14 626 14 q 644 14 644 14 l 644 0 l 533 0 l 533 101 m 157 925 l 157 921 q 69 886 103 919 q 36 799 36 853 l 36 781 l 22 779 l 22 925 l 157 925 m 22 999 q 65 988 36 993 q 128 978 93 982 q 192 974 163 974 l 22 958 l 22 999 z "},"Ŧ":{"ha":903,"x_min":22,"x_max":882,"o":"m 538 968 l 538 0 l 368 0 l 368 968 l 538 968 m 882 974 l 882 921 l 22 921 l 22 974 l 882 974 m 882 925 l 882 779 l 868 781 l 868 799 q 835 886 868 853 q 747 921 801 919 l 747 925 l 882 925 m 882 999 l 882 958 l 713 974 q 777 978 743 974 q 840 988 811 982 q 882 999 869 993 m 372 101 l 372 0 l 261 0 l 261 14 q 270 14 261 14 q 279 14 279 14 q 341 40 315 14 q 368 101 367 65 l 372 101 m 533 101 l 538 101 q 565 40 539 65 q 626 14 590 14 q 635 14 626 14 q 644 14 644 14 l 644 0 l 533 0 l 533 101 m 157 925 l 157 921 q 69 886 103 919 q 36 799 36 853 l 36 781 l 22 779 l 22 925 l 157 925 m 22 999 q 65 988 36 993 q 128 978 93 982 q 192 974 163 974 l 22 958 l 22 999 m 756 558 l 756 506 l 150 506 l 150 558 l 756 558 z "},"Ť":{"ha":903,"x_min":22,"x_max":882,"o":"m 538 968 l 538 0 l 368 0 l 368 968 l 538 968 m 882 974 l 882 921 l 22 921 l 22 974 l 882 974 m 882 925 l 882 779 l 868 781 l 868 799 q 835 886 868 853 q 747 921 801 919 l 747 925 l 882 925 m 882 999 l 882 958 l 713 974 q 777 978 743 974 q 840 988 811 982 q 882 999 869 993 m 372 101 l 372 0 l 261 0 l 261 14 q 270 14 261 14 q 279 14 279 14 q 341 40 315 14 q 368 101 367 65 l 372 101 m 533 101 l 538 101 q 565 40 539 65 q 626 14 590 14 q 635 14 626 14 q 644 14 644 14 l 644 0 l 533 0 l 533 101 m 157 925 l 157 921 q 69 886 103 919 q 36 799 36 853 l 36 781 l 22 779 l 22 925 l 157 925 m 22 999 q 65 988 36 993 q 128 978 93 982 q 192 974 163 974 l 22 958 l 22 999 z "},"Ţ":{"ha":903,"x_min":22,"x_max":882,"o":"m 538 968 l 538 0 l 368 0 l 368 968 l 538 968 m 882 974 l 882 921 l 22 921 l 22 974 l 882 974 m 882 925 l 882 779 l 868 781 l 868 799 q 835 886 868 853 q 747 921 801 919 l 747 925 l 882 925 m 882 999 l 882 958 l 713 974 q 777 978 743 974 q 840 988 811 982 q 882 999 869 993 m 372 101 l 372 0 l 261 0 l 261 14 q 270 14 261 14 q 279 14 279 14 q 341 40 315 14 q 368 101 367 65 l 372 101 m 533 101 l 538 101 q 565 40 539 65 q 626 14 590 14 q 635 14 626 14 q 644 14 644 14 l 644 0 l 533 0 l 533 101 m 157 925 l 157 921 q 69 886 103 919 q 36 799 36 853 l 36 781 l 22 779 l 22 925 l 157 925 m 22 999 q 65 988 36 993 q 128 978 93 982 q 192 974 163 974 l 22 958 l 22 999 z "},"Ț":{"ha":903,"x_min":22,"x_max":882,"o":"m 538 968 l 538 0 l 368 0 l 368 968 l 538 968 m 882 974 l 882 921 l 22 921 l 22 974 l 882 974 m 882 925 l 882 779 l 868 781 l 868 799 q 835 886 868 853 q 747 921 801 919 l 747 925 l 882 925 m 882 999 l 882 958 l 713 974 q 777 978 743 974 q 840 988 811 982 q 882 999 869 993 m 372 101 l 372 0 l 261 0 l 261 14 q 270 14 261 14 q 279 14 279 14 q 341 40 315 14 q 368 101 367 65 l 372 101 m 533 101 l 538 101 q 565 40 539 65 q 626 14 590 14 q 635 14 626 14 q 644 14 644 14 l 644 0 l 533 0 l 533 101 m 157 925 l 157 921 q 69 886 103 919 q 36 799 36 853 l 36 781 l 22 779 l 22 925 l 157 925 m 22 999 q 65 988 36 993 q 128 978 93 982 q 192 974 163 974 l 22 958 l 22 999 m 390 -147 q 408 -104 390 -119 q 449 -89 425 -89 q 508 -122 489 -89 q 526 -192 526 -154 q 488 -287 526 -250 q 390 -326 449 -325 l 388 -315 q 424 -289 411 -306 q 436 -253 436 -272 q 431 -226 436 -239 q 417 -204 426 -214 q 399 -178 407 -192 q 390 -147 390 -164 z "},"U":{"ha":1124,"x_min":58,"x_max":1071,"o":"m 324 972 l 324 361 q 358 189 324 263 q 454 75 392 115 q 600 35 517 35 q 753 73 689 35 q 852 180 817 111 q 888 343 888 249 l 888 972 l 975 972 l 975 349 q 928 155 975 238 q 792 26 881 72 q 583 -19 704 -19 q 351 26 447 -19 q 204 153 254 71 q 154 347 154 236 l 154 972 l 324 972 m 158 972 l 158 889 l 154 889 q 133 939 154 919 q 81 958 111 958 q 69 958 81 958 q 58 958 58 958 l 58 972 l 158 972 m 419 972 l 419 958 q 408 958 419 958 q 397 958 397 958 q 345 939 367 958 q 324 889 324 919 l 321 889 l 321 972 l 419 972 m 892 972 l 892 889 l 888 889 q 866 939 888 919 q 814 958 844 958 q 803 958 814 958 q 792 958 792 958 l 792 972 l 892 972 m 1071 972 l 1071 958 q 1060 958 1071 958 q 1049 958 1049 958 q 997 939 1018 958 q 975 889 975 919 l 972 889 l 972 972 l 1071 972 z "},"Ú":{"ha":1124,"x_min":58,"x_max":1071,"o":"m 324 972 l 324 361 q 358 189 324 263 q 454 75 392 115 q 600 35 517 35 q 753 73 689 35 q 852 180 817 111 q 888 343 888 249 l 888 972 l 975 972 l 975 349 q 928 155 975 238 q 792 26 881 72 q 583 -19 704 -19 q 351 26 447 -19 q 204 153 254 71 q 154 347 154 236 l 154 972 l 324 972 m 158 972 l 158 889 l 154 889 q 133 939 154 919 q 81 958 111 958 q 69 958 81 958 q 58 958 58 958 l 58 972 l 158 972 m 419 972 l 419 958 q 408 958 419 958 q 397 958 397 958 q 345 939 367 958 q 324 889 324 919 l 321 889 l 321 972 l 419 972 m 892 972 l 892 889 l 888 889 q 866 939 888 919 q 814 958 844 958 q 803 958 814 958 q 792 958 792 958 l 792 972 l 892 972 m 1071 972 l 1071 958 q 1060 958 1071 958 q 1049 958 1049 958 q 997 939 1018 958 q 975 889 975 919 l 972 889 l 972 972 l 1071 972 z "},"Û":{"ha":1124,"x_min":58,"x_max":1071,"o":"m 324 972 l 324 361 q 358 189 324 263 q 454 75 392 115 q 600 35 517 35 q 753 73 689 35 q 852 180 817 111 q 888 343 888 249 l 888 972 l 975 972 l 975 349 q 928 155 975 238 q 792 26 881 72 q 583 -19 704 -19 q 351 26 447 -19 q 204 153 254 71 q 154 347 154 236 l 154 972 l 324 972 m 158 972 l 158 889 l 154 889 q 133 939 154 919 q 81 958 111 958 q 69 958 81 958 q 58 958 58 958 l 58 972 l 158 972 m 419 972 l 419 958 q 408 958 419 958 q 397 958 397 958 q 345 939 367 958 q 324 889 324 919 l 321 889 l 321 972 l 419 972 m 892 972 l 892 889 l 888 889 q 866 939 888 919 q 814 958 844 958 q 803 958 814 958 q 792 958 792 958 l 792 972 l 892 972 m 1071 972 l 1071 958 q 1060 958 1071 958 q 1049 958 1049 958 q 997 939 1018 958 q 975 889 975 919 l 972 889 l 972 972 l 1071 972 z "},"Ü":{"ha":1124,"x_min":58,"x_max":1071,"o":"m 324 972 l 324 361 q 358 189 324 263 q 454 75 392 115 q 600 35 517 35 q 753 73 689 35 q 852 180 817 111 q 888 343 888 249 l 888 972 l 975 972 l 975 349 q 928 155 975 238 q 792 26 881 72 q 583 -19 704 -19 q 351 26 447 -19 q 204 153 254 71 q 154 347 154 236 l 154 972 l 324 972 m 158 972 l 158 889 l 154 889 q 133 939 154 919 q 81 958 111 958 q 69 958 81 958 q 58 958 58 958 l 58 972 l 158 972 m 419 972 l 419 958 q 408 958 419 958 q 397 958 397 958 q 345 939 367 958 q 324 889 324 919 l 321 889 l 321 972 l 419 972 m 892 972 l 892 889 l 888 889 q 866 939 888 919 q 814 958 844 958 q 803 958 814 958 q 792 958 792 958 l 792 972 l 892 972 m 1071 972 l 1071 958 q 1060 958 1071 958 q 1049 958 1049 958 q 997 939 1018 958 q 975 889 975 919 l 972 889 l 972 972 l 1071 972 z "},"Ù":{"ha":1124,"x_min":58,"x_max":1071,"o":"m 324 972 l 324 361 q 358 189 324 263 q 454 75 392 115 q 600 35 517 35 q 753 73 689 35 q 852 180 817 111 q 888 343 888 249 l 888 972 l 975 972 l 975 349 q 928 155 975 238 q 792 26 881 72 q 583 -19 704 -19 q 351 26 447 -19 q 204 153 254 71 q 154 347 154 236 l 154 972 l 324 972 m 158 972 l 158 889 l 154 889 q 133 939 154 919 q 81 958 111 958 q 69 958 81 958 q 58 958 58 958 l 58 972 l 158 972 m 419 972 l 419 958 q 408 958 419 958 q 397 958 397 958 q 345 939 367 958 q 324 889 324 919 l 321 889 l 321 972 l 419 972 m 892 972 l 892 889 l 888 889 q 866 939 888 919 q 814 958 844 958 q 803 958 814 958 q 792 958 792 958 l 792 972 l 892 972 m 1071 972 l 1071 958 q 1060 958 1071 958 q 1049 958 1049 958 q 997 939 1018 958 q 975 889 975 919 l 972 889 l 972 972 l 1071 972 z "},"Ű":{"ha":1124,"x_min":58,"x_max":1071,"o":"m 324 972 l 324 361 q 358 189 324 263 q 454 75 392 115 q 600 35 517 35 q 753 73 689 35 q 852 180 817 111 q 888 343 888 249 l 888 972 l 975 972 l 975 349 q 928 155 975 238 q 792 26 881 72 q 583 -19 704 -19 q 351 26 447 -19 q 204 153 254 71 q 154 347 154 236 l 154 972 l 324 972 m 158 972 l 158 889 l 154 889 q 133 939 154 919 q 81 958 111 958 q 69 958 81 958 q 58 958 58 958 l 58 972 l 158 972 m 419 972 l 419 958 q 408 958 419 958 q 397 958 397 958 q 345 939 367 958 q 324 889 324 919 l 321 889 l 321 972 l 419 972 m 892 972 l 892 889 l 888 889 q 866 939 888 919 q 814 958 844 958 q 803 958 814 958 q 792 958 792 958 l 792 972 l 892 972 m 1071 972 l 1071 958 q 1060 958 1071 958 q 1049 958 1049 958 q 997 939 1018 958 q 975 889 975 919 l 972 889 l 972 972 l 1071 972 z "},"Ū":{"ha":1124,"x_min":58,"x_max":1071,"o":"m 324 972 l 324 361 q 358 189 324 263 q 454 75 392 115 q 600 35 517 35 q 753 73 689 35 q 852 180 817 111 q 888 343 888 249 l 888 972 l 975 972 l 975 349 q 928 155 975 238 q 792 26 881 72 q 583 -19 704 -19 q 351 26 447 -19 q 204 153 254 71 q 154 347 154 236 l 154 972 l 324 972 m 158 972 l 158 889 l 154 889 q 133 939 154 919 q 81 958 111 958 q 69 958 81 958 q 58 958 58 958 l 58 972 l 158 972 m 419 972 l 419 958 q 408 958 419 958 q 397 958 397 958 q 345 939 367 958 q 324 889 324 919 l 321 889 l 321 972 l 419 972 m 892 972 l 892 889 l 888 889 q 866 939 888 919 q 814 958 844 958 q 803 958 814 958 q 792 958 792 958 l 792 972 l 892 972 m 1071 972 l 1071 958 q 1060 958 1071 958 q 1049 958 1049 958 q 997 939 1018 958 q 975 889 975 919 l 972 889 l 972 972 l 1071 972 z "},"Ų":{"ha":1124,"x_min":58,"x_max":1071,"o":"m 324 972 l 324 361 q 358 189 324 263 q 454 75 392 115 q 600 35 517 35 q 753 73 689 35 q 852 180 817 111 q 888 343 888 249 l 888 972 l 975 972 l 975 349 q 928 155 975 238 q 792 26 881 72 q 583 -19 704 -19 q 351 26 447 -19 q 204 153 254 71 q 154 347 154 236 l 154 972 l 324 972 m 158 972 l 158 889 l 154 889 q 133 939 154 919 q 81 958 111 958 q 69 958 81 958 q 58 958 58 958 l 58 972 l 158 972 m 419 972 l 419 958 q 408 958 419 958 q 397 958 397 958 q 345 939 367 958 q 324 889 324 919 l 321 889 l 321 972 l 419 972 m 892 972 l 892 889 l 888 889 q 866 939 888 919 q 814 958 844 958 q 803 958 814 958 q 792 958 792 958 l 792 972 l 892 972 m 1071 972 l 1071 958 q 1060 958 1071 958 q 1049 958 1049 958 q 997 939 1018 958 q 975 889 975 919 l 972 889 l 972 972 l 1071 972 z "},"Ů":{"ha":1124,"x_min":58,"x_max":1071,"o":"m 324 972 l 324 361 q 358 189 324 263 q 454 75 392 115 q 600 35 517 35 q 753 73 689 35 q 852 180 817 111 q 888 343 888 249 l 888 972 l 975 972 l 975 349 q 928 155 975 238 q 792 26 881 72 q 583 -19 704 -19 q 351 26 447 -19 q 204 153 254 71 q 154 347 154 236 l 154 972 l 324 972 m 158 972 l 158 889 l 154 889 q 133 939 154 919 q 81 958 111 958 q 69 958 81 958 q 58 958 58 958 l 58 972 l 158 972 m 419 972 l 419 958 q 408 958 419 958 q 397 958 397 958 q 345 939 367 958 q 324 889 324 919 l 321 889 l 321 972 l 419 972 m 892 972 l 892 889 l 888 889 q 866 939 888 919 q 814 958 844 958 q 803 958 814 958 q 792 958 792 958 l 792 972 l 892 972 m 1071 972 l 1071 958 q 1060 958 1071 958 q 1049 958 1049 958 q 997 939 1018 958 q 975 889 975 919 l 972 889 l 972 972 l 1071 972 z "},"V":{"ha":1017,"x_min":-31,"x_max":1047,"o":"m 511 -25 l 61 964 l 265 964 l 576 197 l 511 -25 m 511 -25 l 503 121 l 861 968 l 957 968 l 586 144 q 574 117 583 139 q 553 68 564 96 q 533 15 542 40 q 524 -25 525 -11 l 511 -25 m 821 872 q 817 936 838 914 q 768 958 796 958 l 756 958 l 756 972 l 1047 972 l 1047 958 q 1041 958 1047 958 q 1035 958 1035 958 q 969 938 1004 958 q 913 871 935 918 l 821 872 m 304 872 l 103 871 q 47 938 81 918 q -19 958 13 958 q -25 958 -19 958 q -31 958 -31 958 l -31 972 l 368 972 l 368 958 l 356 958 q 309 936 329 958 q 304 872 289 914 z "},"W":{"ha":1354,"x_min":-36,"x_max":1385,"o":"m 64 964 l 251 964 l 486 269 l 422 -22 l 64 964 m 733 994 l 754 865 l 468 132 q 460 108 468 132 q 444 49 451 85 q 435 -22 436 14 l 422 -22 l 389 129 l 721 994 l 733 994 m 733 993 l 1035 271 l 981 -22 l 654 758 l 733 993 m 1281 964 l 1019 132 q 1013 107 1019 132 q 999 47 1006 82 q 993 -22 993 11 l 981 -22 l 949 115 l 1190 964 l 1281 964 m 1164 872 q 1157 936 1175 914 q 1111 958 1139 958 l 1099 958 l 1099 972 l 1385 972 l 1385 958 q 1379 958 1385 958 q 1374 958 1374 958 q 1304 938 1342 958 q 1251 872 1267 918 l 1164 872 m 285 872 l 97 872 q 43 938 79 918 q -25 958 7 958 q -31 958 -25 958 q -36 958 -36 958 l -36 972 l 349 972 l 349 958 l 336 958 q 290 936 310 958 q 285 872 269 914 z "},"Ẃ":{"ha":1354,"x_min":-36,"x_max":1385,"o":"m 64 964 l 251 964 l 486 269 l 422 -22 l 64 964 m 733 994 l 754 865 l 468 132 q 460 108 468 132 q 444 49 451 85 q 435 -22 436 14 l 422 -22 l 389 129 l 721 994 l 733 994 m 733 993 l 1035 271 l 981 -22 l 654 758 l 733 993 m 1281 964 l 1019 132 q 1013 107 1019 132 q 999 47 1006 82 q 993 -22 993 11 l 981 -22 l 949 115 l 1190 964 l 1281 964 m 1164 872 q 1157 936 1175 914 q 1111 958 1139 958 l 1099 958 l 1099 972 l 1385 972 l 1385 958 q 1379 958 1385 958 q 1374 958 1374 958 q 1304 938 1342 958 q 1251 872 1267 918 l 1164 872 m 285 872 l 97 872 q 43 938 79 918 q -25 958 7 958 q -31 958 -25 958 q -36 958 -36 958 l -36 972 l 349 972 l 349 958 l 336 958 q 290 936 310 958 q 285 872 269 914 z "},"Ŵ":{"ha":1354,"x_min":-36,"x_max":1385,"o":"m 64 964 l 251 964 l 486 269 l 422 -22 l 64 964 m 733 994 l 754 865 l 468 132 q 460 108 468 132 q 444 49 451 85 q 435 -22 436 14 l 422 -22 l 389 129 l 721 994 l 733 994 m 733 993 l 1035 271 l 981 -22 l 654 758 l 733 993 m 1281 964 l 1019 132 q 1013 107 1019 132 q 999 47 1006 82 q 993 -22 993 11 l 981 -22 l 949 115 l 1190 964 l 1281 964 m 1164 872 q 1157 936 1175 914 q 1111 958 1139 958 l 1099 958 l 1099 972 l 1385 972 l 1385 958 q 1379 958 1385 958 q 1374 958 1374 958 q 1304 938 1342 958 q 1251 872 1267 918 l 1164 872 m 285 872 l 97 872 q 43 938 79 918 q -25 958 7 958 q -31 958 -25 958 q -36 958 -36 958 l -36 972 l 349 972 l 349 958 l 336 958 q 290 936 310 958 q 285 872 269 914 z "},"Ẅ":{"ha":1354,"x_min":-36,"x_max":1385,"o":"m 64 964 l 251 964 l 486 269 l 422 -22 l 64 964 m 733 994 l 754 865 l 468 132 q 460 108 468 132 q 444 49 451 85 q 435 -22 436 14 l 422 -22 l 389 129 l 721 994 l 733 994 m 733 993 l 1035 271 l 981 -22 l 654 758 l 733 993 m 1281 964 l 1019 132 q 1013 107 1019 132 q 999 47 1006 82 q 993 -22 993 11 l 981 -22 l 949 115 l 1190 964 l 1281 964 m 1164 872 q 1157 936 1175 914 q 1111 958 1139 958 l 1099 958 l 1099 972 l 1385 972 l 1385 958 q 1379 958 1385 958 q 1374 958 1374 958 q 1304 938 1342 958 q 1251 872 1267 918 l 1164 872 m 285 872 l 97 872 q 43 938 79 918 q -25 958 7 958 q -31 958 -25 958 q -36 958 -36 958 l -36 972 l 349 972 l 349 958 l 336 958 q 290 936 310 958 q 285 872 269 914 z "},"Ẁ":{"ha":1354,"x_min":-36,"x_max":1385,"o":"m 64 964 l 251 964 l 486 269 l 422 -22 l 64 964 m 733 994 l 754 865 l 468 132 q 460 108 468 132 q 444 49 451 85 q 435 -22 436 14 l 422 -22 l 389 129 l 721 994 l 733 994 m 733 993 l 1035 271 l 981 -22 l 654 758 l 733 993 m 1281 964 l 1019 132 q 1013 107 1019 132 q 999 47 1006 82 q 993 -22 993 11 l 981 -22 l 949 115 l 1190 964 l 1281 964 m 1164 872 q 1157 936 1175 914 q 1111 958 1139 958 l 1099 958 l 1099 972 l 1385 972 l 1385 958 q 1379 958 1385 958 q 1374 958 1374 958 q 1304 938 1342 958 q 1251 872 1267 918 l 1164 872 m 285 872 l 97 872 q 43 938 79 918 q -25 958 7 958 q -31 958 -25 958 q -36 958 -36 958 l -36 972 l 349 972 l 349 958 l 336 958 q 290 936 310 958 q 285 872 269 914 z "},"X":{"ha":982,"x_min":-26,"x_max":1011,"o":"m 288 972 l 913 1 l 711 1 l 89 972 l 288 972 m 240 100 q 233 60 228 81 q 255 27 239 40 q 289 14 271 14 q 298 14 289 14 q 307 14 307 14 l 307 0 l -26 0 l -26 14 l -7 14 q 74 39 38 14 q 133 96 110 64 l 240 100 m 419 507 l 475 453 l 175 1 l 67 1 l 419 507 m 649 100 l 851 94 q 911 38 874 63 q 992 14 949 14 l 1011 14 l 1011 0 l 583 0 l 583 14 q 592 14 583 14 q 600 14 600 14 q 648 42 629 14 q 649 100 667 69 m 417 972 l 417 958 q 408 958 417 958 q 400 958 400 958 q 366 945 382 958 q 345 912 350 932 q 351 872 340 892 l 150 876 q 91 933 128 908 q 10 958 54 958 l -10 958 l -10 972 l 417 972 m 879 972 l 546 479 l 493 536 l 771 972 l 879 972 m 974 972 l 974 958 l 954 958 q 874 933 911 958 q 814 876 838 908 l 707 872 q 714 912 719 892 q 693 945 708 932 q 658 958 678 958 q 650 958 658 958 q 642 958 642 958 l 642 972 l 974 972 z "},"Y":{"ha":957,"x_min":-33,"x_max":992,"o":"m 267 971 l 547 457 l 396 428 l 68 971 l 267 971 m 558 447 l 558 0 l 389 0 l 389 447 l 558 447 m 790 971 l 890 971 l 546 419 l 482 433 l 790 971 m 733 872 q 739 912 744 892 q 719 945 733 932 q 685 958 704 958 q 676 958 685 958 q 668 958 668 958 l 668 972 l 992 972 l 992 958 l 972 958 q 891 933 929 958 q 832 876 853 908 l 733 872 m 321 872 l 125 876 q 68 933 106 908 q -14 958 31 958 l -33 958 l -33 972 l 388 972 l 388 958 q 378 958 388 958 q 369 958 369 958 q 323 930 339 958 q 321 872 307 901 m 393 101 l 393 0 l 282 0 l 282 14 q 290 14 282 14 q 300 14 299 14 q 362 40 336 14 q 389 101 388 65 l 393 101 m 554 101 l 558 101 q 585 40 558 65 q 647 14 611 14 q 656 14 647 14 q 664 14 664 14 l 664 0 l 554 0 l 554 101 z "},"Ý":{"ha":957,"x_min":-33,"x_max":992,"o":"m 267 971 l 547 457 l 396 428 l 68 971 l 267 971 m 558 447 l 558 0 l 389 0 l 389 447 l 558 447 m 790 971 l 890 971 l 546 419 l 482 433 l 790 971 m 733 872 q 739 912 744 892 q 719 945 733 932 q 685 958 704 958 q 676 958 685 958 q 668 958 668 958 l 668 972 l 992 972 l 992 958 l 972 958 q 891 933 929 958 q 832 876 853 908 l 733 872 m 321 872 l 125 876 q 68 933 106 908 q -14 958 31 958 l -33 958 l -33 972 l 388 972 l 388 958 q 378 958 388 958 q 369 958 369 958 q 323 930 339 958 q 321 872 307 901 m 393 101 l 393 0 l 282 0 l 282 14 q 290 14 282 14 q 300 14 299 14 q 362 40 336 14 q 389 101 388 65 l 393 101 m 554 101 l 558 101 q 585 40 558 65 q 647 14 611 14 q 656 14 647 14 q 664 14 664 14 l 664 0 l 554 0 l 554 101 z "},"Ŷ":{"ha":957,"x_min":-33,"x_max":992,"o":"m 267 971 l 547 457 l 396 428 l 68 971 l 267 971 m 558 447 l 558 0 l 389 0 l 389 447 l 558 447 m 790 971 l 890 971 l 546 419 l 482 433 l 790 971 m 733 872 q 739 912 744 892 q 719 945 733 932 q 685 958 704 958 q 676 958 685 958 q 668 958 668 958 l 668 972 l 992 972 l 992 958 l 972 958 q 891 933 929 958 q 832 876 853 908 l 733 872 m 321 872 l 125 876 q 68 933 106 908 q -14 958 31 958 l -33 958 l -33 972 l 388 972 l 388 958 q 378 958 388 958 q 369 958 369 958 q 323 930 339 958 q 321 872 307 901 m 393 101 l 393 0 l 282 0 l 282 14 q 290 14 282 14 q 300 14 299 14 q 362 40 336 14 q 389 101 388 65 l 393 101 m 554 101 l 558 101 q 585 40 558 65 q 647 14 611 14 q 656 14 647 14 q 664 14 664 14 l 664 0 l 554 0 l 554 101 z "},"Ÿ":{"ha":957,"x_min":-33,"x_max":992,"o":"m 267 971 l 547 457 l 396 428 l 68 971 l 267 971 m 558 447 l 558 0 l 389 0 l 389 447 l 558 447 m 790 971 l 890 971 l 546 419 l 482 433 l 790 971 m 733 872 q 739 912 744 892 q 719 945 733 932 q 685 958 704 958 q 676 958 685 958 q 668 958 668 958 l 668 972 l 992 972 l 992 958 l 972 958 q 891 933 929 958 q 832 876 853 908 l 733 872 m 321 872 l 125 876 q 68 933 106 908 q -14 958 31 958 l -33 958 l -33 972 l 388 972 l 388 958 q 378 958 388 958 q 369 958 369 958 q 323 930 339 958 q 321 872 307 901 m 393 101 l 393 0 l 282 0 l 282 14 q 290 14 282 14 q 300 14 299 14 q 362 40 336 14 q 389 101 388 65 l 393 101 m 554 101 l 558 101 q 585 40 558 65 q 647 14 611 14 q 656 14 647 14 q 664 14 664 14 l 664 0 l 554 0 l 554 101 z "},"Ỳ":{"ha":957,"x_min":-33,"x_max":992,"o":"m 267 971 l 547 457 l 396 428 l 68 971 l 267 971 m 558 447 l 558 0 l 389 0 l 389 447 l 558 447 m 790 971 l 890 971 l 546 419 l 482 433 l 790 971 m 733 872 q 739 912 744 892 q 719 945 733 932 q 685 958 704 958 q 676 958 685 958 q 668 958 668 958 l 668 972 l 992 972 l 992 958 l 972 958 q 891 933 929 958 q 832 876 853 908 l 733 872 m 321 872 l 125 876 q 68 933 106 908 q -14 958 31 958 l -33 958 l -33 972 l 388 972 l 388 958 q 378 958 388 958 q 369 958 369 958 q 323 930 339 958 q 321 872 307 901 m 393 101 l 393 0 l 282 0 l 282 14 q 290 14 282 14 q 300 14 299 14 q 362 40 336 14 q 389 101 388 65 l 393 101 m 554 101 l 558 101 q 585 40 558 65 q 647 14 611 14 q 656 14 647 14 q 664 14 664 14 l 664 0 l 554 0 l 554 101 z "},"Z":{"ha":914,"x_min":69,"x_max":872,"o":"m 829 992 q 829 985 829 992 q 829 979 829 979 l 257 0 l 69 0 l 69 13 l 603 921 l 89 921 l 89 974 l 682 974 q 741 976 710 974 q 797 983 772 979 q 829 992 821 988 m 821 53 l 813 0 l 164 0 l 164 53 l 821 53 m 872 258 l 824 0 l 593 0 l 608 42 l 628 53 q 774 110 715 53 q 858 258 833 167 l 872 258 m 224 921 q 136 886 169 919 q 103 799 103 853 l 103 779 l 89 779 l 89 925 l 224 925 l 224 921 m 89 999 q 131 988 103 993 q 194 978 160 982 q 258 974 229 974 l 89 958 l 89 999 z "},"Ź":{"ha":914,"x_min":69,"x_max":872,"o":"m 829 992 q 829 985 829 992 q 829 979 829 979 l 257 0 l 69 0 l 69 13 l 603 921 l 89 921 l 89 974 l 682 974 q 741 976 710 974 q 797 983 772 979 q 829 992 821 988 m 821 53 l 813 0 l 164 0 l 164 53 l 821 53 m 872 258 l 824 0 l 593 0 l 608 42 l 628 53 q 774 110 715 53 q 858 258 833 167 l 872 258 m 224 921 q 136 886 169 919 q 103 799 103 853 l 103 779 l 89 779 l 89 925 l 224 925 l 224 921 m 89 999 q 131 988 103 993 q 194 978 160 982 q 258 974 229 974 l 89 958 l 89 999 z "},"Ž":{"ha":914,"x_min":69,"x_max":872,"o":"m 829 992 q 829 985 829 992 q 829 979 829 979 l 257 0 l 69 0 l 69 13 l 603 921 l 89 921 l 89 974 l 682 974 q 741 976 710 974 q 797 983 772 979 q 829 992 821 988 m 821 53 l 813 0 l 164 0 l 164 53 l 821 53 m 872 258 l 824 0 l 593 0 l 608 42 l 628 53 q 774 110 715 53 q 858 258 833 167 l 872 258 m 224 921 q 136 886 169 919 q 103 799 103 853 l 103 779 l 89 779 l 89 925 l 224 925 l 224 921 m 89 999 q 131 988 103 993 q 194 978 160 982 q 258 974 229 974 l 89 958 l 89 999 z "},"Ż":{"ha":914,"x_min":69,"x_max":872,"o":"m 829 992 q 829 985 829 992 q 829 979 829 979 l 257 0 l 69 0 l 69 13 l 603 921 l 89 921 l 89 974 l 682 974 q 741 976 710 974 q 797 983 772 979 q 829 992 821 988 m 821 53 l 813 0 l 164 0 l 164 53 l 821 53 m 872 258 l 824 0 l 593 0 l 608 42 l 628 53 q 774 110 715 53 q 858 258 833 167 l 872 258 m 224 921 q 136 886 169 919 q 103 799 103 853 l 103 779 l 89 779 l 89 925 l 224 925 l 224 921 m 89 999 q 131 988 103 993 q 194 978 160 982 q 258 974 229 974 l 89 958 l 89 999 z "},"a":{"ha":903,"x_min":-28,"x_max":932,"o":"m 451 865 l 853 8 l 660 8 l 389 654 l 451 865 m 188 94 q 192 35 172 56 q 235 14 211 14 l 246 14 l 246 0 l -28 0 l -28 14 q -22 14 -28 14 q -17 14 -17 14 q 43 33 13 14 q 93 94 74 51 l 188 94 m 451 865 l 456 722 l 149 4 l 51 4 l 378 706 q 388 731 379 711 q 408 776 397 750 q 428 827 419 803 q 439 865 438 851 l 451 865 m 586 289 l 586 239 l 226 239 l 226 289 l 586 289 m 624 94 l 813 94 q 863 33 832 51 q 921 14 893 14 q 926 14 921 14 q 932 14 932 14 l 932 0 l 565 0 l 565 14 l 576 14 q 619 35 600 14 q 624 94 639 56 z "},"á":{"ha":903,"x_min":-28,"x_max":932,"o":"m 451 865 l 853 8 l 660 8 l 389 654 l 451 865 m 188 94 q 192 35 172 56 q 235 14 211 14 l 246 14 l 246 0 l -28 0 l -28 14 q -22 14 -28 14 q -17 14 -17 14 q 43 33 13 14 q 93 94 74 51 l 188 94 m 451 865 l 456 722 l 149 4 l 51 4 l 378 706 q 388 731 379 711 q 408 776 397 750 q 428 827 419 803 q 439 865 438 851 l 451 865 m 586 289 l 586 239 l 226 239 l 226 289 l 586 289 m 624 94 l 813 94 q 863 33 832 51 q 921 14 893 14 q 926 14 921 14 q 932 14 932 14 l 932 0 l 565 0 l 565 14 l 576 14 q 619 35 600 14 q 624 94 639 56 z "},"ă":{"ha":903,"x_min":-28,"x_max":932,"o":"m 451 865 l 853 8 l 660 8 l 389 654 l 451 865 m 188 94 q 192 35 172 56 q 235 14 211 14 l 246 14 l 246 0 l -28 0 l -28 14 q -22 14 -28 14 q -17 14 -17 14 q 43 33 13 14 q 93 94 74 51 l 188 94 m 451 865 l 456 722 l 149 4 l 51 4 l 378 706 q 388 731 379 711 q 408 776 397 750 q 428 827 419 803 q 439 865 438 851 l 451 865 m 586 289 l 586 239 l 226 239 l 226 289 l 586 289 m 624 94 l 813 94 q 863 33 832 51 q 921 14 893 14 q 926 14 921 14 q 932 14 932 14 l 932 0 l 565 0 l 565 14 l 576 14 q 619 35 600 14 q 624 94 639 56 z "},"â":{"ha":903,"x_min":-28,"x_max":932,"o":"m 451 865 l 853 8 l 660 8 l 389 654 l 451 865 m 188 94 q 192 35 172 56 q 235 14 211 14 l 246 14 l 246 0 l -28 0 l -28 14 q -22 14 -28 14 q -17 14 -17 14 q 43 33 13 14 q 93 94 74 51 l 188 94 m 451 865 l 456 722 l 149 4 l 51 4 l 378 706 q 388 731 379 711 q 408 776 397 750 q 428 827 419 803 q 439 865 438 851 l 451 865 m 586 289 l 586 239 l 226 239 l 226 289 l 586 289 m 624 94 l 813 94 q 863 33 832 51 q 921 14 893 14 q 926 14 921 14 q 932 14 932 14 l 932 0 l 565 0 l 565 14 l 576 14 q 619 35 600 14 q 624 94 639 56 z "},"ä":{"ha":903,"x_min":-28,"x_max":932,"o":"m 451 865 l 853 8 l 660 8 l 389 654 l 451 865 m 188 94 q 192 35 172 56 q 235 14 211 14 l 246 14 l 246 0 l -28 0 l -28 14 q -22 14 -28 14 q -17 14 -17 14 q 43 33 13 14 q 93 94 74 51 l 188 94 m 451 865 l 456 722 l 149 4 l 51 4 l 378 706 q 388 731 379 711 q 408 776 397 750 q 428 827 419 803 q 439 865 438 851 l 451 865 m 586 289 l 586 239 l 226 239 l 226 289 l 586 289 m 624 94 l 813 94 q 863 33 832 51 q 921 14 893 14 q 926 14 921 14 q 932 14 932 14 l 932 0 l 565 0 l 565 14 l 576 14 q 619 35 600 14 q 624 94 639 56 z "},"à":{"ha":903,"x_min":-28,"x_max":932,"o":"m 451 865 l 853 8 l 660 8 l 389 654 l 451 865 m 188 94 q 192 35 172 56 q 235 14 211 14 l 246 14 l 246 0 l -28 0 l -28 14 q -22 14 -28 14 q -17 14 -17 14 q 43 33 13 14 q 93 94 74 51 l 188 94 m 451 865 l 456 722 l 149 4 l 51 4 l 378 706 q 388 731 379 711 q 408 776 397 750 q 428 827 419 803 q 439 865 438 851 l 451 865 m 586 289 l 586 239 l 226 239 l 226 289 l 586 289 m 624 94 l 813 94 q 863 33 832 51 q 921 14 893 14 q 926 14 921 14 q 932 14 932 14 l 932 0 l 565 0 l 565 14 l 576 14 q 619 35 600 14 q 624 94 639 56 z "},"ā":{"ha":903,"x_min":-28,"x_max":932,"o":"m 451 865 l 853 8 l 660 8 l 389 654 l 451 865 m 188 94 q 192 35 172 56 q 235 14 211 14 l 246 14 l 246 0 l -28 0 l -28 14 q -22 14 -28 14 q -17 14 -17 14 q 43 33 13 14 q 93 94 74 51 l 188 94 m 451 865 l 456 722 l 149 4 l 51 4 l 378 706 q 388 731 379 711 q 408 776 397 750 q 428 827 419 803 q 439 865 438 851 l 451 865 m 586 289 l 586 239 l 226 239 l 226 289 l 586 289 m 624 94 l 813 94 q 863 33 832 51 q 921 14 893 14 q 926 14 921 14 q 932 14 932 14 l 932 0 l 565 0 l 565 14 l 576 14 q 619 35 600 14 q 624 94 639 56 z "},"ą":{"ha":892,"x_min":-28,"x_max":919,"o":"m 182 96 q 185 35 165 57 q 229 14 206 14 l 240 14 l 240 0 l -28 0 l -28 14 q -22 14 -28 14 q -17 14 -17 14 q 42 33 13 14 q 93 96 72 51 l 182 96 m 447 858 l 453 724 l 143 4 l 50 4 l 375 701 q 386 725 378 706 q 406 770 394 744 q 426 820 417 796 q 436 858 435 844 l 447 858 m 447 858 l 846 8 l 660 8 l 389 656 l 447 858 m 583 292 l 583 243 l 226 243 l 226 292 l 583 292 m 653 -4 q 590 -43 606 -15 q 575 -104 574 -71 q 604 -168 578 -143 q 668 -194 631 -193 q 739 -162 706 -194 l 747 -171 q 709 -237 739 -214 q 641 -264 679 -260 q 566 -253 603 -268 q 507 -204 529 -237 q 489 -119 485 -171 q 519 -45 492 -75 q 590 4 546 -15 q 626 35 615 15 q 622 97 638 56 l 806 93 q 844 43 822 61 q 886 19 865 25 q 919 13 907 13 l 919 -1 q 865 1 899 -1 q 794 4 832 3 q 718 4 756 6 q 653 -4 681 3 z "},"å":{"ha":903,"x_min":-28,"x_max":932,"o":"m 451 865 l 853 8 l 660 8 l 389 654 l 451 865 m 188 94 q 192 35 172 56 q 235 14 211 14 l 246 14 l 246 0 l -28 0 l -28 14 q -22 14 -28 14 q -17 14 -17 14 q 43 33 13 14 q 93 94 74 51 l 188 94 m 451 865 l 456 722 l 149 4 l 51 4 l 378 706 q 388 731 379 711 q 408 776 397 750 q 428 827 419 803 q 439 865 438 851 l 451 865 m 586 289 l 586 239 l 226 239 l 226 289 l 586 289 m 624 94 l 813 94 q 863 33 832 51 q 921 14 893 14 q 926 14 921 14 q 932 14 932 14 l 932 0 l 565 0 l 565 14 l 576 14 q 619 35 600 14 q 624 94 639 56 z "},"ã":{"ha":903,"x_min":-28,"x_max":932,"o":"m 451 865 l 853 8 l 660 8 l 389 654 l 451 865 m 188 94 q 192 35 172 56 q 235 14 211 14 l 246 14 l 246 0 l -28 0 l -28 14 q -22 14 -28 14 q -17 14 -17 14 q 43 33 13 14 q 93 94 74 51 l 188 94 m 451 865 l 456 722 l 149 4 l 51 4 l 378 706 q 388 731 379 711 q 408 776 397 750 q 428 827 419 803 q 439 865 438 851 l 451 865 m 586 289 l 586 239 l 226 239 l 226 289 l 586 289 m 624 94 l 813 94 q 863 33 832 51 q 921 14 893 14 q 926 14 921 14 q 932 14 932 14 l 932 0 l 565 0 l 565 14 l 576 14 q 619 35 600 14 q 624 94 639 56 z "},"æ":{"ha":1188,"x_min":-22,"x_max":1154,"o":"m 194 83 q 187 48 183 64 q 203 23 190 32 q 233 14 217 14 l 244 14 l 244 0 l -22 0 l -22 14 q -17 14 -22 14 q -12 14 -12 14 q 45 33 17 14 q 96 86 74 53 l 194 83 m 744 833 l 744 0 l 583 0 l 583 779 l 744 833 m 586 69 l 586 0 l 513 0 l 513 14 q 518 14 513 14 q 524 14 524 14 q 565 30 547 14 q 583 69 582 46 l 586 69 m 1083 50 l 1083 0 l 740 0 l 740 50 l 1083 50 m 1028 428 l 1028 376 l 360 376 l 365 428 l 1028 428 m 1083 833 l 1083 781 l 646 781 l 610 736 l 146 4 l 39 4 l 575 772 q 577 806 586 792 q 549 821 568 821 l 544 821 l 544 833 l 1083 833 m 1154 219 l 1097 0 l 889 0 l 928 50 q 1061 96 1007 50 q 1140 219 1115 142 l 1154 219 m 1028 379 l 1028 275 l 1015 275 l 1015 285 q 990 350 1015 324 q 924 376 964 376 l 924 379 l 1028 379 m 1028 531 l 1028 425 l 924 425 l 924 428 q 990 454 964 428 q 1015 518 1015 481 l 1015 531 l 1028 531 m 1083 783 l 1083 664 l 1069 665 l 1069 678 q 1042 752 1069 724 q 968 781 1014 781 l 968 783 l 1083 783 m 1083 856 l 1083 821 l 938 833 q 1022 841 978 833 q 1083 856 1067 849 z "},"b":{"ha":824,"x_min":58,"x_max":778,"o":"m 194 833 l 401 833 q 504 826 450 833 q 604 797 558 818 q 678 733 650 775 q 707 625 707 692 q 685 540 707 578 q 628 481 663 503 q 554 453 593 460 q 667 419 617 449 q 748 344 718 390 q 778 236 778 297 q 749 124 778 169 q 674 52 721 79 q 566 13 626 25 q 442 0 506 0 l 301 0 q 302 13 301 0 q 303 38 303 25 q 303 50 303 50 l 403 50 q 499 69 456 50 q 569 132 543 89 q 594 244 594 175 q 575 338 594 300 q 522 398 556 375 q 446 431 489 421 q 354 440 403 440 l 354 453 q 422 460 389 453 q 480 487 454 468 q 521 538 506 506 q 536 617 536 569 q 491 746 536 708 q 371 783 446 783 l 206 783 q 203 797 206 785 q 197 822 200 810 q 194 833 194 833 m 314 833 l 314 0 l 153 0 l 153 833 l 314 833 m 157 88 l 157 0 l 58 0 l 58 14 q 67 14 60 14 q 75 14 74 14 q 131 35 108 14 q 153 88 153 57 l 157 88 m 157 746 l 153 746 q 131 799 153 778 q 75 819 108 819 q 67 819 74 819 q 58 819 60 819 l 58 833 l 157 833 l 157 746 z "},"c":{"ha":958,"x_min":54,"x_max":901,"o":"m 896 349 l 901 146 q 820 60 871 97 q 699 3 769 24 q 542 -18 629 -18 q 282 35 392 -17 q 113 183 172 86 q 54 417 54 281 q 113 650 54 553 q 281 799 171 747 q 542 851 390 851 q 717 832 633 851 q 857 781 800 813 l 868 569 l 857 569 q 742 749 824 697 q 550 801 661 801 q 374 754 446 801 q 266 621 303 707 q 229 419 229 535 q 267 216 229 303 q 374 82 304 129 q 542 32 444 35 q 713 64 642 32 q 827 166 785 96 q 883 349 869 236 l 896 349 z "},"ć":{"ha":958,"x_min":54,"x_max":901,"o":"m 896 349 l 901 146 q 820 60 871 97 q 699 3 769 24 q 542 -18 629 -18 q 282 35 392 -17 q 113 183 172 86 q 54 417 54 281 q 113 650 54 553 q 281 799 171 747 q 542 851 390 851 q 717 832 633 851 q 857 781 800 813 l 868 569 l 857 569 q 742 749 824 697 q 550 801 661 801 q 374 754 446 801 q 266 621 303 707 q 229 419 229 535 q 267 216 229 303 q 374 82 304 129 q 542 32 444 35 q 713 64 642 32 q 827 166 785 96 q 883 349 869 236 l 896 349 z "},"č":{"ha":958,"x_min":54,"x_max":901,"o":"m 896 349 l 901 146 q 820 60 871 97 q 699 3 769 24 q 542 -18 629 -18 q 282 35 392 -17 q 113 183 172 86 q 54 417 54 281 q 113 650 54 553 q 281 799 171 747 q 542 851 390 851 q 717 832 633 851 q 857 781 800 813 l 868 569 l 857 569 q 742 749 824 697 q 550 801 661 801 q 374 754 446 801 q 266 621 303 707 q 229 419 229 535 q 267 216 229 303 q 374 82 304 129 q 542 32 444 35 q 713 64 642 32 q 827 166 785 96 q 883 349 869 236 l 896 349 z "},"ç":{"ha":958,"x_min":54,"x_max":901,"o":"m 896 349 l 901 146 q 820 60 871 97 q 699 3 769 24 q 542 -18 629 -18 q 282 35 392 -17 q 113 183 172 86 q 54 417 54 281 q 113 650 54 553 q 281 799 171 747 q 542 851 390 851 q 717 832 633 851 q 857 781 800 813 l 868 569 l 857 569 q 742 749 824 697 q 550 801 661 801 q 374 754 446 801 q 266 621 303 707 q 229 419 229 535 q 267 216 229 303 q 374 82 304 129 q 542 32 444 35 q 713 64 642 32 q 827 166 785 96 q 883 349 869 236 l 896 349 z "},"ċ":{"ha":958,"x_min":54,"x_max":901,"o":"m 896 349 l 901 146 q 820 60 871 97 q 699 3 769 24 q 542 -18 629 -18 q 282 35 392 -17 q 113 183 172 86 q 54 417 54 281 q 113 650 54 553 q 281 799 171 747 q 542 851 390 851 q 717 832 633 851 q 857 781 800 813 l 868 569 l 857 569 q 742 749 824 697 q 550 801 661 801 q 374 754 446 801 q 266 621 303 707 q 229 419 229 535 q 267 216 229 303 q 374 82 304 129 q 542 32 444 35 q 713 64 642 32 q 827 166 785 96 q 883 349 869 236 l 896 349 z "},"d":{"ha":1044,"x_min":56,"x_max":990,"o":"m 524 833 q 774 783 669 833 q 934 640 878 733 q 990 417 990 547 q 934 193 990 286 q 774 50 878 100 q 524 0 669 0 l 219 0 l 217 50 q 385 50 319 50 q 481 50 450 50 q 513 50 513 50 q 734 148 653 50 q 815 417 815 246 q 735 685 815 588 q 513 783 654 783 q 480 783 513 783 q 379 783 447 783 q 203 783 311 783 l 203 833 l 524 833 m 317 833 l 317 0 l 153 0 l 153 833 l 317 833 m 156 90 l 156 0 l 56 0 l 56 14 q 65 14 56 14 q 74 14 74 14 q 129 37 107 14 q 153 90 151 60 l 156 90 m 156 744 l 153 744 q 128 799 151 778 q 72 819 106 819 q 64 819 72 819 q 56 819 56 819 l 56 833 l 156 833 l 156 744 z "},"ð":{"ha":1044,"x_min":56,"x_max":990,"o":"m 524 833 q 774 783 669 833 q 934 640 878 733 q 990 417 990 547 q 934 193 990 286 q 774 50 878 100 q 524 0 669 0 l 219 0 l 217 50 q 385 50 319 50 q 481 50 450 50 q 513 50 513 50 q 734 148 653 50 q 815 417 815 246 q 735 685 815 588 q 513 783 654 783 q 480 783 513 783 q 379 783 447 783 q 203 783 311 783 l 203 833 l 524 833 m 317 833 l 317 0 l 153 0 l 153 833 l 317 833 m 156 89 l 156 0 l 56 0 l 56 14 q 65 14 56 14 q 74 14 74 14 q 129 36 107 14 q 153 89 151 58 l 156 89 m 156 744 l 153 744 q 128 799 151 778 q 72 819 106 819 q 64 819 72 819 q 56 819 56 819 l 56 833 l 156 833 l 156 744 m 63 442 l 506 442 l 506 392 l 63 392 l 63 442 z "},"ď":{"ha":1044,"x_min":56,"x_max":990,"o":"m 524 833 q 774 783 669 833 q 934 640 878 733 q 990 417 990 547 q 934 193 990 286 q 774 50 878 100 q 524 0 669 0 l 219 0 l 217 50 q 385 50 319 50 q 481 50 450 50 q 513 50 513 50 q 734 148 653 50 q 815 417 815 246 q 735 685 815 588 q 513 783 654 783 q 480 783 513 783 q 379 783 447 783 q 203 783 311 783 l 203 833 l 524 833 m 317 833 l 317 0 l 153 0 l 153 833 l 317 833 m 156 90 l 156 0 l 56 0 l 56 14 q 65 14 56 14 q 74 14 74 14 q 129 37 107 14 q 153 90 151 60 l 156 90 m 156 744 l 153 744 q 128 799 151 778 q 72 819 106 819 q 64 819 72 819 q 56 819 56 819 l 56 833 l 156 833 l 156 744 z "},"đ":{"ha":1044,"x_min":56,"x_max":990,"o":"m 524 833 q 774 783 669 833 q 934 640 878 733 q 990 417 990 547 q 934 193 990 286 q 774 50 878 100 q 524 0 669 0 l 219 0 l 217 50 q 385 50 319 50 q 481 50 450 50 q 513 50 513 50 q 734 148 653 50 q 815 417 815 246 q 735 685 815 588 q 513 783 654 783 q 480 783 513 783 q 379 783 447 783 q 203 783 311 783 l 203 833 l 524 833 m 317 833 l 317 0 l 153 0 l 153 833 l 317 833 m 156 90 l 156 0 l 56 0 l 56 14 q 65 14 56 14 q 74 14 74 14 q 129 37 107 14 q 153 90 151 60 l 156 90 m 156 744 l 153 744 q 128 799 151 778 q 72 819 106 819 q 64 819 72 819 q 56 819 56 819 l 56 833 l 156 833 l 156 744 z "},"e":{"ha":775,"x_min":57,"x_max":742,"o":"m 315 833 l 315 0 l 153 0 l 153 833 l 315 833 m 657 51 l 678 0 l 313 0 l 313 51 l 657 51 m 603 440 l 603 389 l 313 389 l 313 440 l 603 440 m 667 833 l 667 782 l 313 782 l 313 833 l 667 833 m 742 236 l 681 0 l 450 0 l 494 51 q 603 74 558 51 q 679 139 649 97 q 729 236 710 181 l 742 236 m 603 392 l 603 283 l 589 283 l 589 296 q 565 361 589 335 q 499 389 542 388 l 499 392 l 603 392 m 603 544 l 603 438 l 499 438 l 499 440 q 565 467 542 440 q 589 532 589 493 l 589 544 l 603 544 m 667 786 l 667 656 l 651 656 l 651 671 q 624 751 651 721 q 544 782 596 782 l 544 786 l 667 786 m 667 856 l 667 819 l 517 833 q 603 841 557 833 q 667 856 649 849 m 156 88 l 165 0 l 57 0 l 57 14 q 66 14 57 14 q 75 14 75 14 q 129 35 107 14 q 153 88 151 57 l 156 88 m 156 746 l 153 746 q 129 799 151 778 q 75 819 107 819 q 66 819 75 819 q 57 819 57 819 l 57 833 l 165 833 l 156 746 z "},"é":{"ha":775,"x_min":57,"x_max":742,"o":"m 315 833 l 315 0 l 153 0 l 153 833 l 315 833 m 657 51 l 678 0 l 313 0 l 313 51 l 657 51 m 603 440 l 603 389 l 313 389 l 313 440 l 603 440 m 667 833 l 667 782 l 313 782 l 313 833 l 667 833 m 742 236 l 681 0 l 450 0 l 494 51 q 603 74 558 51 q 679 139 649 97 q 729 236 710 181 l 742 236 m 603 392 l 603 283 l 589 283 l 589 296 q 565 361 589 335 q 499 389 542 388 l 499 392 l 603 392 m 603 544 l 603 438 l 499 438 l 499 440 q 565 467 542 440 q 589 532 589 493 l 589 544 l 603 544 m 667 786 l 667 656 l 651 656 l 651 671 q 624 751 651 721 q 544 782 596 782 l 544 786 l 667 786 m 667 856 l 667 819 l 517 833 q 603 841 557 833 q 667 856 649 849 m 156 88 l 165 0 l 57 0 l 57 14 q 66 14 57 14 q 75 14 75 14 q 129 35 107 14 q 153 88 151 57 l 156 88 m 156 746 l 153 746 q 129 799 151 778 q 75 819 107 819 q 66 819 75 819 q 57 819 57 819 l 57 833 l 165 833 l 156 746 z "},"ě":{"ha":775,"x_min":57,"x_max":742,"o":"m 315 833 l 315 0 l 153 0 l 153 833 l 315 833 m 657 51 l 678 0 l 313 0 l 313 51 l 657 51 m 603 440 l 603 389 l 313 389 l 313 440 l 603 440 m 667 833 l 667 782 l 313 782 l 313 833 l 667 833 m 742 236 l 681 0 l 450 0 l 494 51 q 603 74 558 51 q 679 139 649 97 q 729 236 710 181 l 742 236 m 603 392 l 603 283 l 589 283 l 589 296 q 565 361 589 335 q 499 389 542 388 l 499 392 l 603 392 m 603 544 l 603 438 l 499 438 l 499 440 q 565 467 542 440 q 589 532 589 493 l 589 544 l 603 544 m 667 786 l 667 656 l 651 656 l 651 671 q 624 751 651 721 q 544 782 596 782 l 544 786 l 667 786 m 667 856 l 667 819 l 517 833 q 603 841 557 833 q 667 856 649 849 m 156 88 l 165 0 l 57 0 l 57 14 q 66 14 57 14 q 75 14 75 14 q 129 35 107 14 q 153 88 151 57 l 156 88 m 156 746 l 153 746 q 129 799 151 778 q 75 819 107 819 q 66 819 75 819 q 57 819 57 819 l 57 833 l 165 833 l 156 746 z "},"ê":{"ha":775,"x_min":57,"x_max":742,"o":"m 315 833 l 315 0 l 153 0 l 153 833 l 315 833 m 657 51 l 678 0 l 313 0 l 313 51 l 657 51 m 603 440 l 603 389 l 313 389 l 313 440 l 603 440 m 667 833 l 667 782 l 313 782 l 313 833 l 667 833 m 742 236 l 681 0 l 450 0 l 494 51 q 603 74 558 51 q 679 139 649 97 q 729 236 710 181 l 742 236 m 603 392 l 603 283 l 589 283 l 589 296 q 565 361 589 335 q 499 389 542 388 l 499 392 l 603 392 m 603 544 l 603 438 l 499 438 l 499 440 q 565 467 542 440 q 589 532 589 493 l 589 544 l 603 544 m 667 786 l 667 656 l 651 656 l 651 671 q 624 751 651 721 q 544 782 596 782 l 544 786 l 667 786 m 667 856 l 667 819 l 517 833 q 603 841 557 833 q 667 856 649 849 m 156 88 l 165 0 l 57 0 l 57 14 q 66 14 57 14 q 75 14 75 14 q 129 35 107 14 q 153 88 151 57 l 156 88 m 156 746 l 153 746 q 129 799 151 778 q 75 819 107 819 q 66 819 75 819 q 57 819 57 819 l 57 833 l 165 833 l 156 746 z "},"ë":{"ha":775,"x_min":57,"x_max":742,"o":"m 315 833 l 315 0 l 153 0 l 153 833 l 315 833 m 657 51 l 678 0 l 313 0 l 313 51 l 657 51 m 603 440 l 603 389 l 313 389 l 313 440 l 603 440 m 667 833 l 667 782 l 313 782 l 313 833 l 667 833 m 742 236 l 681 0 l 450 0 l 494 51 q 603 74 558 51 q 679 139 649 97 q 729 236 710 181 l 742 236 m 603 392 l 603 283 l 589 283 l 589 296 q 565 361 589 335 q 499 389 542 388 l 499 392 l 603 392 m 603 544 l 603 438 l 499 438 l 499 440 q 565 467 542 440 q 589 532 589 493 l 589 544 l 603 544 m 667 786 l 667 656 l 651 656 l 651 671 q 624 751 651 721 q 544 782 596 782 l 544 786 l 667 786 m 667 856 l 667 819 l 517 833 q 603 841 557 833 q 667 856 649 849 m 156 88 l 165 0 l 57 0 l 57 14 q 66 14 57 14 q 75 14 75 14 q 129 35 107 14 q 153 88 151 57 l 156 88 m 156 746 l 153 746 q 129 799 151 778 q 75 819 107 819 q 66 819 75 819 q 57 819 57 819 l 57 833 l 165 833 l 156 746 z "},"ė":{"ha":775,"x_min":57,"x_max":742,"o":"m 315 833 l 315 0 l 153 0 l 153 833 l 315 833 m 657 51 l 678 0 l 313 0 l 313 51 l 657 51 m 603 440 l 603 389 l 313 389 l 313 440 l 603 440 m 667 833 l 667 782 l 313 782 l 313 833 l 667 833 m 742 236 l 681 0 l 450 0 l 494 51 q 603 74 558 51 q 679 139 649 97 q 729 236 710 181 l 742 236 m 603 392 l 603 283 l 589 283 l 589 296 q 565 361 589 335 q 499 389 542 388 l 499 392 l 603 392 m 603 544 l 603 438 l 499 438 l 499 440 q 565 467 542 440 q 589 532 589 493 l 589 544 l 603 544 m 667 786 l 667 656 l 651 656 l 651 671 q 624 751 651 721 q 544 782 596 782 l 544 786 l 667 786 m 667 856 l 667 819 l 517 833 q 603 841 557 833 q 667 856 649 849 m 156 88 l 165 0 l 57 0 l 57 14 q 66 14 57 14 q 75 14 75 14 q 129 35 107 14 q 153 88 151 57 l 156 88 m 156 746 l 153 746 q 129 799 151 778 q 75 819 107 819 q 66 819 75 819 q 57 819 57 819 l 57 833 l 165 833 l 156 746 z "},"è":{"ha":775,"x_min":57,"x_max":742,"o":"m 315 833 l 315 0 l 153 0 l 153 833 l 315 833 m 657 51 l 678 0 l 313 0 l 313 51 l 657 51 m 603 440 l 603 389 l 313 389 l 313 440 l 603 440 m 667 833 l 667 782 l 313 782 l 313 833 l 667 833 m 742 236 l 681 0 l 450 0 l 494 51 q 603 74 558 51 q 679 139 649 97 q 729 236 710 181 l 742 236 m 603 392 l 603 283 l 589 283 l 589 296 q 565 361 589 335 q 499 389 542 388 l 499 392 l 603 392 m 603 544 l 603 438 l 499 438 l 499 440 q 565 467 542 440 q 589 532 589 493 l 589 544 l 603 544 m 667 786 l 667 656 l 651 656 l 651 671 q 624 751 651 721 q 544 782 596 782 l 544 786 l 667 786 m 667 856 l 667 819 l 517 833 q 603 841 557 833 q 667 856 649 849 m 156 88 l 165 0 l 57 0 l 57 14 q 66 14 57 14 q 75 14 75 14 q 129 35 107 14 q 153 88 151 57 l 156 88 m 156 746 l 153 746 q 129 799 151 778 q 75 819 107 819 q 66 819 75 819 q 57 819 57 819 l 57 833 l 165 833 l 156 746 z "},"ē":{"ha":775,"x_min":57,"x_max":742,"o":"m 315 833 l 315 0 l 153 0 l 153 833 l 315 833 m 657 51 l 678 0 l 313 0 l 313 51 l 657 51 m 603 440 l 603 389 l 313 389 l 313 440 l 603 440 m 667 833 l 667 782 l 313 782 l 313 833 l 667 833 m 742 236 l 681 0 l 450 0 l 494 51 q 603 74 558 51 q 679 139 649 97 q 729 236 710 181 l 742 236 m 603 392 l 603 283 l 589 283 l 589 296 q 565 361 589 335 q 499 389 542 388 l 499 392 l 603 392 m 603 544 l 603 438 l 499 438 l 499 440 q 565 467 542 440 q 589 532 589 493 l 589 544 l 603 544 m 667 786 l 667 656 l 651 656 l 651 671 q 624 751 651 721 q 544 782 596 782 l 544 786 l 667 786 m 667 856 l 667 819 l 517 833 q 603 841 557 833 q 667 856 649 849 m 156 88 l 165 0 l 57 0 l 57 14 q 66 14 57 14 q 75 14 75 14 q 129 35 107 14 q 153 88 151 57 l 156 88 m 156 746 l 153 746 q 129 799 151 778 q 75 819 107 819 q 66 819 75 819 q 57 819 57 819 l 57 833 l 165 833 l 156 746 z "},"ę":{"ha":775,"x_min":57,"x_max":747,"o":"m 315 833 l 315 0 l 153 0 l 153 833 l 315 833 m 657 51 l 678 0 l 313 0 l 313 51 l 657 51 m 603 440 l 603 389 l 313 389 l 313 440 l 603 440 m 667 833 l 667 782 l 313 782 l 313 833 l 667 833 m 742 236 l 681 0 l 450 0 l 494 51 q 603 74 558 51 q 679 139 649 97 q 729 236 710 181 l 742 236 m 603 392 l 603 283 l 589 283 l 589 296 q 565 361 589 335 q 499 389 542 388 l 499 392 l 603 392 m 603 544 l 603 438 l 499 438 l 499 440 q 565 467 542 440 q 589 532 589 493 l 589 544 l 603 544 m 667 786 l 667 656 l 651 656 l 651 671 q 624 751 651 721 q 544 782 596 782 l 544 786 l 667 786 m 667 856 l 667 819 l 517 833 q 603 841 557 833 q 667 856 649 849 m 156 88 l 165 0 l 57 0 l 57 14 q 66 14 57 14 q 75 14 75 14 q 129 35 107 14 q 153 88 151 57 l 156 88 m 156 746 l 153 746 q 129 799 151 778 q 75 819 107 819 q 66 819 75 819 q 57 819 57 819 l 57 833 l 165 833 l 156 746 z "},"f":{"ha":738,"x_min":57,"x_max":669,"o":"m 315 833 l 315 0 l 153 0 l 153 833 l 315 833 m 606 440 l 606 389 l 313 389 l 313 440 l 606 440 m 669 833 l 669 782 l 313 782 l 313 833 l 669 833 m 606 392 l 606 283 l 592 283 l 592 296 q 568 361 592 335 q 501 389 544 388 l 501 392 l 606 392 m 606 544 l 606 438 l 501 438 l 501 440 q 568 467 544 440 q 592 532 592 493 l 592 544 l 606 544 m 669 786 l 669 654 l 654 654 l 654 669 q 626 751 654 719 q 546 782 599 782 l 546 786 l 669 786 m 669 856 l 669 819 l 519 833 q 576 837 546 833 q 633 846 607 840 q 669 856 658 851 m 157 88 l 167 0 l 57 0 l 57 14 q 66 14 57 14 q 75 14 75 14 q 130 35 107 14 q 153 88 153 57 l 157 88 m 157 746 l 153 746 q 130 799 153 778 q 75 819 107 819 q 66 819 75 819 q 57 819 57 819 l 57 833 l 167 833 l 157 746 m 313 88 l 315 88 q 339 35 317 57 q 394 14 361 14 q 403 14 394 14 q 411 14 411 14 l 411 0 l 303 0 l 313 88 z "},"g":{"ha":1019,"x_min":54,"x_max":1001,"o":"m 518 851 q 644 843 582 851 q 760 819 706 835 q 854 781 814 804 l 865 569 l 854 569 q 788 706 832 656 q 683 779 744 757 q 546 801 622 801 q 375 755 446 801 q 267 622 304 708 q 229 413 229 535 q 265 210 229 296 q 366 78 300 124 q 525 32 432 32 q 618 46 574 32 q 699 88 663 60 q 758 157 735 115 l 760 331 q 744 371 760 357 q 697 385 728 385 l 678 385 l 678 397 l 1001 397 l 1001 385 l 983 385 q 922 329 921 385 l 921 150 q 833 72 892 111 q 692 8 774 33 q 513 -18 611 -18 q 271 35 374 -18 q 111 185 168 88 q 54 418 54 282 q 111 650 54 553 q 272 799 168 747 q 518 851 376 851 z "},"ğ":{"ha":1019,"x_min":54,"x_max":1001,"o":"m 518 851 q 644 843 582 851 q 760 819 706 835 q 854 781 814 804 l 865 569 l 854 569 q 788 706 832 656 q 683 779 744 757 q 546 801 622 801 q 375 755 446 801 q 267 622 304 708 q 229 413 229 535 q 265 210 229 296 q 366 78 300 124 q 525 32 432 32 q 618 46 574 32 q 699 88 663 60 q 758 157 735 115 l 760 331 q 744 371 760 357 q 697 385 728 385 l 678 385 l 678 397 l 1001 397 l 1001 385 l 983 385 q 922 329 921 385 l 921 150 q 833 72 892 111 q 692 8 774 33 q 513 -18 611 -18 q 271 35 374 -18 q 111 185 168 88 q 54 418 54 282 q 111 650 54 553 q 272 799 168 747 q 518 851 376 851 z "},"ģ":{"ha":1019,"x_min":54,"x_max":1001,"o":"m 472 -110 q 508 -90 486 -93 q 550 -97 529 -87 q 582 -132 571 -107 q 594 -205 597 -169 q 571 -269 590 -240 q 522 -312 551 -297 q 458 -325 493 -328 l 454 -315 q 494 -285 482 -304 q 503 -244 506 -267 q 485 -204 501 -222 q 461 -157 467 -183 q 472 -110 456 -131 m 518 851 q 644 843 582 851 q 760 819 706 835 q 854 781 814 804 l 865 569 l 854 569 q 788 706 832 656 q 683 779 744 757 q 546 801 622 801 q 375 755 446 801 q 267 622 304 708 q 229 413 229 535 q 265 210 229 296 q 366 78 300 124 q 525 32 432 32 q 618 46 574 32 q 699 88 663 60 q 758 157 735 115 l 760 331 q 744 371 760 357 q 697 385 728 385 l 678 385 l 678 397 l 1001 397 l 1001 385 l 983 385 q 922 329 921 385 l 921 150 q 833 72 892 111 q 692 8 774 33 q 513 -18 611 -18 q 271 35 374 -18 q 111 185 168 88 q 54 418 54 282 q 111 650 54 553 q 272 799 168 747 q 518 851 376 851 z "},"ġ":{"ha":1019,"x_min":54,"x_max":1001,"o":"m 518 851 q 644 843 582 851 q 760 819 706 835 q 854 781 814 804 l 865 569 l 854 569 q 788 706 832 656 q 683 779 744 757 q 546 801 622 801 q 375 755 446 801 q 267 622 304 708 q 229 413 229 535 q 265 210 229 296 q 366 78 300 124 q 525 32 432 32 q 618 46 574 32 q 699 88 663 60 q 758 157 735 115 l 760 331 q 744 371 760 357 q 697 385 728 385 l 678 385 l 678 397 l 1001 397 l 1001 385 l 983 385 q 922 329 921 385 l 921 150 q 833 72 892 111 q 692 8 774 33 q 513 -18 611 -18 q 271 35 374 -18 q 111 185 168 88 q 54 418 54 282 q 111 650 54 553 q 272 799 168 747 q 518 851 376 851 z "},"h":{"ha":1040,"x_min":57,"x_max":985,"o":"m 890 833 l 890 0 l 728 0 l 728 833 l 890 833 m 314 833 l 314 0 l 150 0 l 150 833 l 314 833 m 740 439 l 740 389 l 300 389 l 300 439 l 740 439 m 154 88 l 154 0 l 57 0 l 57 14 q 65 14 57 14 q 74 14 72 14 q 128 35 106 14 q 150 88 150 57 l 154 88 m 310 88 l 314 88 q 337 35 314 57 q 392 14 360 14 q 399 14 392 14 q 407 14 407 14 l 407 0 l 310 0 l 310 88 m 310 746 l 310 833 l 407 833 l 407 819 q 399 819 407 819 q 392 819 392 819 q 337 799 360 819 q 314 746 314 778 l 310 746 m 154 746 l 150 746 q 128 799 150 778 q 74 819 106 819 q 65 819 72 819 q 57 819 57 819 l 57 833 l 154 833 l 154 746 m 732 88 l 732 0 l 635 0 l 635 14 q 642 14 635 14 q 650 14 650 14 q 705 35 683 14 q 728 88 726 57 l 732 88 m 886 88 l 890 88 q 914 35 892 57 q 968 14 936 14 q 976 14 968 14 q 985 14 985 14 l 985 0 l 886 0 l 886 88 m 888 746 l 888 833 l 985 833 l 985 819 q 976 819 985 819 q 968 819 968 819 q 914 799 936 819 q 892 746 892 778 l 888 746 m 732 746 l 728 746 q 705 799 726 778 q 650 819 683 819 q 642 819 650 819 q 635 819 635 819 l 635 833 l 732 833 l 732 746 z "},"ħ":{"ha":1042,"x_min":57,"x_max":985,"o":"m 985 636 l 985 586 l 63 586 l 63 636 l 985 636 m 890 833 l 890 0 l 728 0 l 728 833 l 890 833 m 314 833 l 314 0 l 150 0 l 150 833 l 314 833 m 740 439 l 740 389 l 300 389 l 300 439 l 740 439 m 154 88 l 154 0 l 57 0 l 57 14 q 65 14 57 14 q 74 14 72 14 q 128 35 106 14 q 150 88 150 57 l 154 88 m 310 88 l 314 88 q 337 35 314 57 q 392 14 360 14 q 399 14 392 14 q 407 14 407 14 l 407 0 l 310 0 l 310 88 m 310 746 l 310 833 l 407 833 l 407 819 q 399 819 407 819 q 392 819 392 819 q 337 799 360 819 q 314 746 314 778 l 310 746 m 154 746 l 150 746 q 128 799 150 778 q 74 819 106 819 q 65 819 72 819 q 57 819 57 819 l 57 833 l 154 833 l 154 746 m 732 88 l 732 0 l 635 0 l 635 14 q 642 14 635 14 q 650 14 650 14 q 705 35 683 14 q 728 88 726 57 l 732 88 m 886 88 l 890 88 q 914 35 892 57 q 968 14 936 14 q 976 14 968 14 q 985 14 985 14 l 985 0 l 886 0 l 886 88 m 888 746 l 888 833 l 985 833 l 985 819 q 976 819 985 819 q 968 819 968 819 q 914 799 936 819 q 892 746 892 778 l 888 746 m 732 746 l 728 746 q 705 799 726 778 q 650 819 683 819 q 642 819 650 819 q 635 819 635 819 l 635 833 l 732 833 l 732 746 z "},"i":{"ha":482,"x_min":57,"x_max":425,"o":"m 322 833 l 322 0 l 160 0 l 160 833 l 322 833 m 164 88 l 164 0 l 57 0 l 57 14 q 66 14 57 14 q 75 14 75 14 q 135 35 110 14 q 160 88 160 57 l 164 88 m 318 88 l 322 88 q 348 35 324 57 q 408 14 372 14 q 416 14 408 14 q 425 14 424 14 l 425 0 l 318 0 l 318 88 m 318 746 l 318 833 l 425 833 l 424 819 q 416 819 424 819 q 408 819 408 819 q 348 799 372 819 q 322 746 324 778 l 318 746 m 164 746 l 160 746 q 135 799 160 778 q 75 819 110 819 q 65 819 74 819 q 57 819 57 819 l 57 833 l 164 833 l 164 746 z "},"ı":{"ha":457,"x_min":57,"x_max":400,"o":"m 310 833 l 310 0 l 147 0 l 147 833 l 310 833 m 151 88 l 151 0 l 57 0 l 57 14 q 65 14 57 14 q 72 14 72 14 q 125 35 103 14 q 147 88 147 57 l 151 88 m 307 88 l 310 88 q 333 35 311 57 q 385 14 354 14 q 392 14 385 14 q 400 14 399 14 l 400 0 l 307 0 l 307 88 m 307 746 l 307 833 l 400 833 l 399 819 q 392 819 399 819 q 385 819 386 819 q 333 799 354 819 q 310 746 311 778 l 307 746 m 151 746 l 147 746 q 125 799 147 778 q 72 819 103 819 q 65 819 72 819 q 57 819 57 819 l 57 833 l 151 833 l 151 746 z "},"í":{"ha":457,"x_min":57,"x_max":482,"o":"m 310 833 l 310 0 l 147 0 l 147 833 l 310 833 m 151 88 l 151 0 l 57 0 l 57 14 q 65 14 57 14 q 72 14 72 14 q 125 35 103 14 q 147 88 147 57 l 151 88 m 307 88 l 310 88 q 333 35 311 57 q 385 14 354 14 q 392 14 385 14 q 400 14 399 14 l 400 0 l 307 0 l 307 88 m 307 746 l 307 833 l 400 833 l 399 819 q 392 819 399 819 q 385 819 386 819 q 333 799 354 819 q 310 746 311 778 l 307 746 m 151 746 l 147 746 q 125 799 147 778 q 72 819 103 819 q 65 819 72 819 q 57 819 57 819 l 57 833 l 151 833 l 151 746 z "},"î":{"ha":457,"x_min":36,"x_max":429,"o":"m 310 833 l 310 0 l 147 0 l 147 833 l 310 833 m 151 88 l 151 0 l 57 0 l 57 14 q 65 14 57 14 q 72 14 72 14 q 125 35 103 14 q 147 88 147 57 l 151 88 m 307 88 l 310 88 q 333 35 311 57 q 385 14 354 14 q 392 14 385 14 q 400 14 399 14 l 400 0 l 307 0 l 307 88 m 307 746 l 307 833 l 400 833 l 399 819 q 392 819 399 819 q 385 819 386 819 q 333 799 354 819 q 310 746 311 778 l 307 746 m 151 746 l 147 746 q 125 799 147 778 q 72 819 103 819 q 65 819 72 819 q 57 819 57 819 l 57 833 l 151 833 l 151 746 z "},"ï":{"ha":457,"x_min":0,"x_max":451,"o":"m 310 833 l 310 0 l 147 0 l 147 833 l 310 833 m 151 88 l 151 0 l 57 0 l 57 14 q 65 14 57 14 q 72 14 72 14 q 125 35 103 14 q 147 88 147 57 l 151 88 m 307 88 l 310 88 q 333 35 311 57 q 385 14 354 14 q 392 14 385 14 q 400 14 399 14 l 400 0 l 307 0 l 307 88 m 307 746 l 307 833 l 400 833 l 399 819 q 392 819 399 819 q 385 819 386 819 q 333 799 354 819 q 310 746 311 778 l 307 746 m 151 746 l 147 746 q 125 799 147 778 q 72 819 103 819 q 65 819 72 819 q 57 819 57 819 l 57 833 l 151 833 l 151 746 z "},"ì":{"ha":457,"x_min":-25,"x_max":400,"o":"m 310 833 l 310 0 l 147 0 l 147 833 l 310 833 m 151 88 l 151 0 l 57 0 l 57 14 q 65 14 57 14 q 72 14 72 14 q 125 35 103 14 q 147 88 147 57 l 151 88 m 307 88 l 310 88 q 333 35 311 57 q 385 14 354 14 q 392 14 385 14 q 400 14 399 14 l 400 0 l 307 0 l 307 88 m 307 746 l 307 833 l 400 833 l 399 819 q 392 819 399 819 q 385 819 386 819 q 333 799 354 819 q 310 746 311 778 l 307 746 m 151 746 l 147 746 q 125 799 147 778 q 72 819 103 819 q 65 819 72 819 q 57 819 57 819 l 57 833 l 151 833 l 151 746 z "},"ĳ":{"ha":940,"x_min":57,"x_max":900,"o":"m 322 833 l 322 0 l 160 0 l 160 833 l 322 833 m 164 88 l 164 0 l 57 0 l 57 14 q 66 14 57 14 q 75 14 75 14 q 135 35 110 14 q 160 88 160 57 l 164 88 m 318 88 l 322 88 q 348 35 324 57 q 408 14 372 14 q 416 14 408 14 q 425 14 424 14 l 425 0 l 318 0 l 318 88 m 318 746 l 318 833 l 425 833 l 424 819 q 416 819 424 819 q 408 819 408 819 q 348 799 372 819 q 322 746 324 778 l 318 746 m 164 746 l 160 746 q 135 799 160 778 q 75 819 110 819 q 65 819 74 819 q 57 819 57 819 l 57 833 l 164 833 l 164 746 m 799 833 l 799 29 q 773 -85 799 -33 q 703 -174 747 -137 q 602 -229 658 -211 q 485 -244 546 -247 l 485 -231 q 569 -170 536 -211 q 619 -76 603 -129 q 636 31 636 -24 l 636 833 l 799 833 m 642 833 l 642 744 l 638 744 q 612 798 636 776 q 551 819 588 819 l 536 819 l 535 833 l 642 833 m 900 833 l 900 819 l 883 819 q 825 798 850 819 q 799 744 800 776 l 796 744 l 796 833 l 900 833 z "},"ī":{"ha":501,"x_min":67,"x_max":436,"o":"m 329 833 l 329 0 l 167 0 l 167 833 l 329 833 m 171 88 l 171 0 l 76 0 l 76 14 q 84 14 76 14 q 92 14 92 14 q 144 35 122 14 q 167 88 167 57 l 171 88 m 326 88 l 329 88 q 352 35 331 57 q 404 14 374 14 q 411 14 404 14 q 419 14 418 14 l 419 0 l 326 0 l 326 88 m 326 746 l 326 833 l 419 833 l 418 819 q 412 819 418 819 q 404 819 406 819 q 352 799 374 819 q 329 746 331 778 l 326 746 m 171 746 l 167 746 q 144 799 167 778 q 92 819 122 819 q 84 819 92 819 q 76 819 76 819 l 76 833 l 171 833 l 171 746 z "},"į":{"ha":458,"x_min":58,"x_max":403,"o":"m 311 833 l 311 0 l 149 0 l 149 833 l 311 833 m 153 88 l 153 0 l 58 0 l 58 14 q 66 13 58 14 q 74 13 74 13 q 126 35 104 13 q 149 88 149 57 l 153 88 m 308 88 l 311 88 q 335 35 313 57 q 386 13 357 13 q 394 13 388 13 q 401 14 401 14 l 403 0 l 308 0 l 308 88 m 308 746 l 308 833 l 403 833 l 401 821 q 394 821 401 821 q 386 821 388 821 q 334 799 356 821 q 311 746 313 778 l 308 746 m 153 746 l 149 746 q 126 799 149 778 q 74 821 104 821 q 66 821 74 821 q 58 821 58 821 l 58 833 l 153 833 l 153 746 m 268 4 l 282 0 q 203 -42 225 -14 q 183 -108 182 -69 q 213 -174 186 -149 q 276 -199 239 -199 q 347 -167 314 -199 l 357 -175 q 317 -242 347 -218 q 249 -269 288 -265 q 175 -259 211 -274 q 117 -210 139 -244 q 97 -124 94 -176 q 126 -51 100 -81 q 190 -8 151 -22 q 268 4 228 6 z "},"j":{"ha":458,"x_min":3,"x_max":418,"o":"m 317 833 l 317 29 q 291 -85 317 -33 q 221 -174 265 -137 q 120 -229 176 -211 q 3 -244 64 -247 l 3 -231 q 88 -170 54 -211 q 138 -76 121 -129 q 154 31 154 -24 l 154 833 l 317 833 m 160 833 l 160 744 l 156 744 q 130 798 154 776 q 69 819 106 819 l 54 819 l 53 833 l 160 833 m 418 833 l 418 819 l 401 819 q 343 798 368 819 q 317 744 318 776 l 314 744 l 314 833 l 418 833 z "},"k":{"ha":913,"x_min":58,"x_max":935,"o":"m 483 504 l 813 86 q 866 32 838 50 q 935 13 894 14 l 935 0 l 846 0 q 802 1 832 0 q 735 12 772 3 q 662 41 699 21 q 594 97 625 61 q 572 128 590 104 q 527 185 554 151 q 471 256 500 219 q 416 324 442 292 q 374 377 390 357 q 358 397 358 397 l 483 504 m 803 824 l 433 403 l 358 397 l 694 824 l 803 824 m 890 833 l 890 821 l 885 821 q 809 806 844 821 q 750 764 774 792 l 649 765 q 654 803 664 786 q 619 821 644 821 l 607 821 l 607 833 l 885 833 l 890 833 m 315 833 l 315 0 l 153 0 l 153 833 l 315 833 m 156 88 l 156 0 l 58 0 l 58 14 q 65 14 58 14 q 74 14 72 14 q 128 35 106 14 q 153 88 151 57 l 156 88 m 311 88 l 315 88 q 338 35 315 57 q 394 14 361 14 q 402 14 396 14 q 408 14 408 14 l 408 0 l 311 0 l 311 88 m 311 746 l 311 833 l 408 833 l 408 819 q 402 819 408 819 q 393 819 396 819 q 338 799 361 819 q 315 746 315 778 l 311 746 m 156 746 l 153 746 q 128 799 151 778 q 74 819 106 819 q 66 819 74 819 q 58 819 58 819 l 58 833 l 156 833 l 156 746 z "},"ķ":{"ha":913,"x_min":58,"x_max":935,"o":"m 483 504 l 813 86 q 866 32 838 50 q 935 13 894 14 l 935 0 l 846 0 q 802 1 832 0 q 735 12 772 3 q 662 41 699 21 q 594 97 625 61 q 572 128 590 104 q 527 185 554 151 q 471 256 500 219 q 416 324 442 292 q 374 377 390 357 q 358 397 358 397 l 483 504 m 803 824 l 433 403 l 358 397 l 694 824 l 803 824 m 890 833 l 890 821 l 885 821 q 809 806 844 821 q 750 764 774 792 l 649 765 q 654 803 664 786 q 619 821 644 821 l 607 821 l 607 833 l 885 833 l 890 833 m 315 833 l 315 0 l 153 0 l 153 833 l 315 833 m 156 88 l 156 0 l 58 0 l 58 14 q 65 14 58 14 q 74 14 72 14 q 128 35 106 14 q 153 88 151 57 l 156 88 m 311 88 l 315 88 q 338 35 315 57 q 394 14 361 14 q 402 14 396 14 q 408 14 408 14 l 408 0 l 311 0 l 311 88 m 311 746 l 311 833 l 408 833 l 408 819 q 402 819 408 819 q 393 819 396 819 q 338 799 361 819 q 315 746 315 778 l 311 746 m 156 746 l 153 746 q 128 799 151 778 q 74 819 106 819 q 66 819 74 819 q 58 819 58 819 l 58 833 l 156 833 l 156 746 m 454 -147 q 472 -104 454 -119 q 513 -89 489 -89 q 572 -122 553 -89 q 590 -192 590 -154 q 551 -287 590 -250 q 454 -326 513 -325 l 451 -315 q 488 -289 475 -306 q 500 -253 500 -272 q 495 -226 500 -239 q 481 -204 490 -214 q 463 -178 471 -192 q 454 -147 454 -164 z "},"l":{"ha":757,"x_min":57,"x_max":743,"o":"m 315 833 l 315 0 l 153 0 l 153 833 l 315 833 m 656 51 l 678 0 l 313 0 l 313 51 l 656 51 m 743 236 l 681 0 l 450 0 l 494 51 q 603 74 558 51 q 679 139 649 97 q 729 236 710 181 l 743 236 m 156 88 l 165 0 l 57 0 l 57 14 q 66 14 57 14 q 75 14 75 14 q 129 35 107 14 q 153 88 151 57 l 156 88 m 311 746 l 311 833 l 410 833 l 410 819 q 402 819 410 819 q 394 819 394 819 q 338 799 361 819 q 315 746 315 778 l 311 746 m 156 746 l 153 746 q 128 799 151 778 q 74 819 106 819 q 65 819 72 819 q 57 819 57 819 l 57 833 l 156 833 l 156 746 z "},"ĺ":{"ha":757,"x_min":57,"x_max":743,"o":"m 315 833 l 315 0 l 153 0 l 153 833 l 315 833 m 656 51 l 678 0 l 313 0 l 313 51 l 656 51 m 743 236 l 681 0 l 450 0 l 494 51 q 603 74 558 51 q 679 139 649 97 q 729 236 710 181 l 743 236 m 156 88 l 165 0 l 57 0 l 57 14 q 66 14 57 14 q 75 14 75 14 q 129 35 107 14 q 153 88 151 57 l 156 88 m 311 746 l 311 833 l 410 833 l 410 819 q 402 819 410 819 q 394 819 394 819 q 338 799 361 819 q 315 746 315 778 l 311 746 m 156 746 l 153 746 q 128 799 151 778 q 74 819 106 819 q 65 819 72 819 q 57 819 57 819 l 57 833 l 156 833 l 156 746 z "},"ľ":{"ha":757,"x_min":57,"x_max":743,"o":"m 315 833 l 315 0 l 153 0 l 153 833 l 315 833 m 656 51 l 678 0 l 313 0 l 313 51 l 656 51 m 743 236 l 681 0 l 450 0 l 494 51 q 603 74 558 51 q 679 139 649 97 q 729 236 710 181 l 743 236 m 156 88 l 165 0 l 57 0 l 57 14 q 66 14 57 14 q 75 14 75 14 q 129 35 107 14 q 153 88 151 57 l 156 88 m 311 746 l 311 833 l 410 833 l 410 819 q 402 819 410 819 q 394 819 394 819 q 338 799 361 819 q 315 746 315 778 l 311 746 m 156 746 l 153 746 q 128 799 151 778 q 74 819 106 819 q 65 819 72 819 q 57 819 57 819 l 57 833 l 156 833 l 156 746 m 531 814 q 566 834 544 831 q 608 827 588 838 q 639 792 629 817 q 651 719 656 756 q 628 655 647 683 q 579 611 608 626 q 515 599 550 596 l 513 608 q 552 638 540 618 q 561 679 564 657 q 542 721 558 701 q 519 767 525 740 q 531 814 513 793 z "},"ļ":{"ha":757,"x_min":57,"x_max":743,"o":"m 315 833 l 315 0 l 153 0 l 153 833 l 315 833 m 656 51 l 678 0 l 313 0 l 313 51 l 656 51 m 743 236 l 681 0 l 450 0 l 494 51 q 603 74 558 51 q 679 139 649 97 q 729 236 710 181 l 743 236 m 156 88 l 165 0 l 57 0 l 57 14 q 66 14 57 14 q 75 14 75 14 q 129 35 107 14 q 153 88 151 57 l 156 88 m 311 746 l 311 833 l 410 833 l 410 819 q 402 819 410 819 q 394 819 394 819 q 338 799 361 819 q 315 746 315 778 l 311 746 m 156 746 l 153 746 q 128 799 151 778 q 74 819 106 819 q 65 819 72 819 q 57 819 57 819 l 57 833 l 156 833 l 156 746 m 365 -147 q 383 -104 365 -119 q 424 -89 400 -89 q 483 -122 464 -89 q 501 -192 501 -154 q 463 -287 501 -250 q 365 -326 424 -325 l 363 -315 q 399 -289 386 -306 q 411 -253 411 -272 q 406 -226 411 -239 q 392 -204 401 -214 q 374 -178 382 -192 q 365 -147 365 -164 z "},"ŀ":{"ha":757,"x_min":57,"x_max":743,"o":"m 504 458 q 448 481 471 458 q 425 538 425 504 q 448 594 425 571 q 504 617 471 617 q 559 594 536 617 q 582 538 582 571 q 559 481 582 504 q 504 458 536 458 m 315 833 l 315 0 l 153 0 l 153 833 l 315 833 m 656 51 l 678 0 l 313 0 l 313 51 l 656 51 m 743 236 l 681 0 l 450 0 l 494 51 q 603 74 558 51 q 679 139 649 97 q 729 236 710 181 l 743 236 m 156 88 l 165 0 l 57 0 l 57 14 q 66 14 57 14 q 75 14 75 14 q 129 35 107 14 q 153 88 151 57 l 156 88 m 311 746 l 311 833 l 410 833 l 410 819 q 402 819 410 819 q 394 819 394 819 q 338 799 361 819 q 315 746 315 778 l 311 746 m 156 746 l 153 746 q 128 799 151 778 q 74 819 106 819 q 65 819 72 819 q 57 819 57 819 l 57 833 l 156 833 l 156 746 z "},"ł":{"ha":757,"x_min":46,"x_max":743,"o":"m 46 350 l 476 589 l 503 543 l 72 304 l 46 350 m 315 833 l 315 0 l 153 0 l 153 833 l 315 833 m 656 51 l 678 0 l 313 0 l 313 51 l 656 51 m 743 236 l 681 0 l 450 0 l 494 51 q 603 74 558 51 q 679 139 649 97 q 729 236 710 181 l 743 236 m 156 88 l 165 0 l 57 0 l 57 14 q 66 14 57 14 q 75 14 75 14 q 129 35 107 14 q 153 88 151 57 l 156 88 m 311 746 l 311 833 l 410 833 l 410 819 q 402 819 410 819 q 394 819 394 819 q 338 799 361 819 q 315 746 315 778 l 311 746 m 156 746 l 153 746 q 128 799 151 778 q 74 819 106 819 q 65 819 72 819 q 57 819 57 819 l 57 833 l 156 833 l 156 746 z "},"m":{"ha":1206,"x_min":-4,"x_max":1211,"o":"m 975 851 l 988 726 l 631 117 q 619 94 631 117 q 595 40 607 72 q 581 -24 583 7 l 568 -24 l 525 81 l 975 851 m 135 90 l 135 0 l -4 0 l -4 14 q 6 14 -4 14 q 15 14 15 14 q 76 34 50 14 q 108 90 103 54 l 135 90 m 189 69 q 199 33 188 53 q 239 13 210 14 l 258 13 l 258 0 l 176 0 l 182 69 l 189 69 m 217 851 l 228 851 l 269 735 l 182 0 l 96 0 l 217 851 m 228 851 l 629 200 l 568 -24 l 197 589 l 228 851 m 988 851 l 1113 0 l 935 0 l 858 571 l 975 851 l 988 851 m 1071 90 l 1099 90 q 1131 34 1104 54 q 1190 14 1157 14 q 1201 14 1190 14 q 1211 14 1211 14 l 1211 0 l 1071 0 l 1071 90 m 925 69 l 933 69 l 939 0 l 857 0 l 857 13 l 876 13 q 918 33 908 14 q 925 69 928 53 z "},"n":{"ha":1082,"x_min":36,"x_max":1047,"o":"m 135 853 l 935 133 l 949 -18 l 149 703 l 135 853 m 139 85 l 139 0 l 36 0 l 36 14 q 47 14 36 14 q 58 14 58 14 q 113 34 90 14 q 135 85 135 54 l 139 85 m 282 85 q 306 34 283 54 q 358 14 329 14 q 370 14 358 14 q 382 14 382 14 l 382 0 l 279 0 l 279 85 l 282 85 m 135 853 l 282 688 l 282 0 l 135 0 l 135 690 q 128 807 135 761 q 121 853 121 853 l 135 853 m 947 833 l 947 149 q 951 64 947 101 q 958 4 954 26 q 961 -18 961 -18 l 949 -18 l 800 154 l 800 833 l 947 833 m 943 749 l 943 833 l 1047 833 l 1047 819 q 1035 819 1047 819 q 1024 819 1024 819 q 970 799 993 819 q 947 749 947 779 l 943 749 m 800 749 q 776 799 799 779 q 724 819 754 819 q 712 819 724 819 q 700 819 700 819 l 700 833 l 803 833 l 803 749 l 800 749 z "},"ń":{"ha":1082,"x_min":36,"x_max":1047,"o":"m 135 853 l 935 133 l 949 -18 l 149 703 l 135 853 m 139 85 l 139 0 l 36 0 l 36 14 q 47 14 36 14 q 58 14 58 14 q 113 34 90 14 q 135 85 135 54 l 139 85 m 282 85 q 306 34 283 54 q 358 14 329 14 q 370 14 358 14 q 382 14 382 14 l 382 0 l 279 0 l 279 85 l 282 85 m 135 853 l 282 688 l 282 0 l 135 0 l 135 690 q 128 807 135 761 q 121 853 121 853 l 135 853 m 947 833 l 947 149 q 951 64 947 101 q 958 4 954 26 q 961 -18 961 -18 l 949 -18 l 800 154 l 800 833 l 947 833 m 943 749 l 943 833 l 1047 833 l 1047 819 q 1035 819 1047 819 q 1024 819 1024 819 q 970 799 993 819 q 947 749 947 779 l 943 749 m 800 749 q 776 799 799 779 q 724 819 754 819 q 712 819 724 819 q 700 819 700 819 l 700 833 l 803 833 l 803 749 l 800 749 z "},"ň":{"ha":1082,"x_min":36,"x_max":1047,"o":"m 135 853 l 935 133 l 949 -18 l 149 703 l 135 853 m 139 85 l 139 0 l 36 0 l 36 14 q 47 14 36 14 q 58 14 58 14 q 113 34 90 14 q 135 85 135 54 l 139 85 m 282 85 q 306 34 283 54 q 358 14 329 14 q 370 14 358 14 q 382 14 382 14 l 382 0 l 279 0 l 279 85 l 282 85 m 135 853 l 282 688 l 282 0 l 135 0 l 135 690 q 128 807 135 761 q 121 853 121 853 l 135 853 m 947 833 l 947 149 q 951 64 947 101 q 958 4 954 26 q 961 -18 961 -18 l 949 -18 l 800 154 l 800 833 l 947 833 m 943 749 l 943 833 l 1047 833 l 1047 819 q 1035 819 1047 819 q 1024 819 1024 819 q 970 799 993 819 q 947 749 947 779 l 943 749 m 800 749 q 776 799 799 779 q 724 819 754 819 q 712 819 724 819 q 700 819 700 819 l 700 833 l 803 833 l 803 749 l 800 749 z "},"ņ":{"ha":1082,"x_min":36,"x_max":1047,"o":"m 135 853 l 935 133 l 949 -18 l 149 703 l 135 853 m 139 85 l 139 0 l 36 0 l 36 14 q 47 14 36 14 q 58 14 58 14 q 113 34 90 14 q 135 85 135 54 l 139 85 m 282 85 q 306 34 283 54 q 358 14 329 14 q 370 14 358 14 q 382 14 382 14 l 382 0 l 279 0 l 279 85 l 282 85 m 135 853 l 282 688 l 282 0 l 135 0 l 135 690 q 128 807 135 761 q 121 853 121 853 l 135 853 m 947 833 l 947 149 q 951 64 947 101 q 958 4 954 26 q 961 -18 961 -18 l 949 -18 l 800 154 l 800 833 l 947 833 m 943 749 l 943 833 l 1047 833 l 1047 819 q 1035 819 1047 819 q 1024 819 1024 819 q 970 799 993 819 q 947 749 947 779 l 943 749 m 800 749 q 776 799 799 779 q 724 819 754 819 q 712 819 724 819 q 700 819 700 819 l 700 833 l 803 833 l 803 749 l 800 749 m 526 -147 q 544 -104 526 -119 q 585 -89 561 -89 q 644 -122 625 -89 q 663 -192 663 -154 q 624 -287 663 -250 q 526 -326 585 -325 l 524 -315 q 560 -289 547 -306 q 572 -253 572 -272 q 567 -226 572 -239 q 553 -204 563 -214 q 535 -178 543 -192 q 526 -147 526 -164 z "},"ŋ":{"ha":1090,"x_min":36,"x_max":1056,"o":"m 139 85 l 139 0 l 36 0 l 36 14 q 47 14 36 14 q 58 14 58 14 q 113 34 90 14 q 135 85 135 54 l 139 85 m 278 85 q 301 34 279 54 q 354 14 324 14 q 366 14 354 14 q 378 14 378 14 l 378 0 l 275 0 l 275 85 l 278 85 m 135 853 l 278 688 l 278 0 l 135 0 l 135 690 q 128 807 135 761 q 121 853 121 853 l 135 853 m 135 853 l 935 133 l 949 -18 l 149 703 l 135 853 m 960 -6 q 926 -142 960 -86 q 835 -224 892 -197 q 710 -246 778 -250 l 703 -235 q 751 -196 729 -217 q 787 -147 772 -175 q 809 -76 801 -118 q 817 22 817 -35 l 817 833 l 958 833 l 960 -6 m 817 749 q 794 799 815 779 q 742 819 772 819 q 731 819 742 819 q 718 819 719 819 l 718 833 l 819 833 l 819 749 l 817 749 m 954 749 l 954 833 l 1056 833 l 1056 819 q 1044 819 1056 819 q 1032 819 1032 819 q 980 799 1001 819 q 958 749 958 779 l 954 749 z "},"ñ":{"ha":1082,"x_min":36,"x_max":1047,"o":"m 135 853 l 935 133 l 949 -18 l 149 703 l 135 853 m 139 85 l 139 0 l 36 0 l 36 14 q 47 14 36 14 q 58 14 58 14 q 113 34 90 14 q 135 85 135 54 l 139 85 m 282 85 q 306 34 283 54 q 358 14 329 14 q 370 14 358 14 q 382 14 382 14 l 382 0 l 279 0 l 279 85 l 282 85 m 135 853 l 282 688 l 282 0 l 135 0 l 135 690 q 128 807 135 761 q 121 853 121 853 l 135 853 m 947 833 l 947 149 q 951 64 947 101 q 958 4 954 26 q 961 -18 961 -18 l 949 -18 l 800 154 l 800 833 l 947 833 m 943 749 l 943 833 l 1047 833 l 1047 819 q 1035 819 1047 819 q 1024 819 1024 819 q 970 799 993 819 q 947 749 947 779 l 943 749 m 800 749 q 776 799 799 779 q 724 819 754 819 q 712 819 724 819 q 700 819 700 819 l 700 833 l 803 833 l 803 749 l 800 749 z "},"o":{"ha":1078,"x_min":56,"x_max":1024,"o":"m 539 851 q 733 821 644 851 q 888 733 822 790 q 988 597 953 676 q 1024 417 1024 517 q 988 237 1024 317 q 888 100 953 157 q 733 13 822 43 q 539 -18 644 -18 q 344 13 433 -18 q 191 100 256 43 q 91 237 126 157 q 56 417 56 317 q 91 597 56 517 q 191 733 126 676 q 344 821 256 790 q 539 851 433 851 m 539 32 q 699 79 629 32 q 808 213 768 126 q 847 417 847 300 q 808 621 847 535 q 699 754 768 707 q 539 801 629 801 q 379 754 449 801 q 271 621 310 707 q 232 417 232 535 q 271 213 232 300 q 379 79 310 126 q 539 32 449 32 z "},"ó":{"ha":1078,"x_min":56,"x_max":1024,"o":"m 539 851 q 733 821 644 851 q 888 733 822 790 q 988 597 953 676 q 1024 417 1024 517 q 988 237 1024 317 q 888 100 953 157 q 733 13 822 43 q 539 -18 644 -18 q 344 13 433 -18 q 191 100 256 43 q 91 237 126 157 q 56 417 56 317 q 91 597 56 517 q 191 733 126 676 q 344 821 256 790 q 539 851 433 851 m 539 32 q 699 79 629 32 q 808 213 768 126 q 847 417 847 300 q 808 621 847 535 q 699 754 768 707 q 539 801 629 801 q 379 754 449 801 q 271 621 310 707 q 232 417 232 535 q 271 213 232 300 q 379 79 310 126 q 539 32 449 32 z "},"ô":{"ha":1078,"x_min":56,"x_max":1024,"o":"m 539 851 q 733 821 644 851 q 888 733 822 790 q 988 597 953 676 q 1024 417 1024 517 q 988 237 1024 317 q 888 100 953 157 q 733 13 822 43 q 539 -18 644 -18 q 344 13 433 -18 q 191 100 256 43 q 91 237 126 157 q 56 417 56 317 q 91 597 56 517 q 191 733 126 676 q 344 821 256 790 q 539 851 433 851 m 539 32 q 699 79 629 32 q 808 213 768 126 q 847 417 847 300 q 808 621 847 535 q 699 754 768 707 q 539 801 629 801 q 379 754 449 801 q 271 621 310 707 q 232 417 232 535 q 271 213 232 300 q 379 79 310 126 q 539 32 449 32 z "},"ö":{"ha":1078,"x_min":56,"x_max":1024,"o":"m 539 851 q 733 821 644 851 q 888 733 822 790 q 988 597 953 676 q 1024 417 1024 517 q 988 237 1024 317 q 888 100 953 157 q 733 13 822 43 q 539 -18 644 -18 q 344 13 433 -18 q 191 100 256 43 q 91 237 126 157 q 56 417 56 317 q 91 597 56 517 q 191 733 126 676 q 344 821 256 790 q 539 851 433 851 m 539 32 q 699 79 629 32 q 808 213 768 126 q 847 417 847 300 q 808 621 847 535 q 699 754 768 707 q 539 801 629 801 q 379 754 449 801 q 271 621 310 707 q 232 417 232 535 q 271 213 232 300 q 379 79 310 126 q 539 32 449 32 z "},"ò":{"ha":1078,"x_min":56,"x_max":1024,"o":"m 539 851 q 733 821 644 851 q 888 733 822 790 q 988 597 953 676 q 1024 417 1024 517 q 988 237 1024 317 q 888 100 953 157 q 733 13 822 43 q 539 -18 644 -18 q 344 13 433 -18 q 191 100 256 43 q 91 237 126 157 q 56 417 56 317 q 91 597 56 517 q 191 733 126 676 q 344 821 256 790 q 539 851 433 851 m 539 32 q 699 79 629 32 q 808 213 768 126 q 847 417 847 300 q 808 621 847 535 q 699 754 768 707 q 539 801 629 801 q 379 754 449 801 q 271 621 310 707 q 232 417 232 535 q 271 213 232 300 q 379 79 310 126 q 539 32 449 32 z "},"ő":{"ha":1078,"x_min":56,"x_max":1024,"o":"m 539 851 q 733 821 644 851 q 888 733 822 790 q 988 597 953 676 q 1024 417 1024 517 q 988 237 1024 317 q 888 100 953 157 q 733 13 822 43 q 539 -18 644 -18 q 344 13 433 -18 q 191 100 256 43 q 91 237 126 157 q 56 417 56 317 q 91 597 56 517 q 191 733 126 676 q 344 821 256 790 q 539 851 433 851 m 539 32 q 699 79 629 32 q 808 213 768 126 q 847 417 847 300 q 808 621 847 535 q 699 754 768 707 q 539 801 629 801 q 379 754 449 801 q 271 621 310 707 q 232 417 232 535 q 271 213 232 300 q 379 79 310 126 q 539 32 449 32 z "},"ō":{"ha":1078,"x_min":56,"x_max":1024,"o":"m 539 851 q 733 821 644 851 q 888 733 822 790 q 988 597 953 676 q 1024 417 1024 517 q 988 237 1024 317 q 888 100 953 157 q 733 13 822 43 q 539 -18 644 -18 q 344 13 433 -18 q 191 100 256 43 q 91 237 126 157 q 56 417 56 317 q 91 597 56 517 q 191 733 126 676 q 344 821 256 790 q 539 851 433 851 m 539 32 q 699 79 629 32 q 808 213 768 126 q 847 417 847 300 q 808 621 847 535 q 699 754 768 707 q 539 801 629 801 q 379 754 449 801 q 271 621 310 707 q 232 417 232 535 q 271 213 232 300 q 379 79 310 126 q 539 32 449 32 z "},"ø":{"ha":1078,"x_min":56,"x_max":1024,"o":"m 867 883 l 913 844 l 174 -37 l 128 1 l 867 883 m 539 851 q 731 821 643 851 q 885 733 819 790 q 988 597 951 676 q 1024 417 1024 517 q 988 237 1024 317 q 888 100 953 157 q 733 13 822 43 q 539 -18 644 -18 q 344 13 433 -18 q 191 100 256 43 q 91 237 126 157 q 56 417 56 317 q 91 597 56 517 q 191 733 126 676 q 344 821 256 790 q 539 851 433 851 m 539 32 q 699 79 629 32 q 808 213 768 126 q 847 417 847 300 q 808 621 847 535 q 699 754 768 707 q 539 801 629 801 q 379 754 449 801 q 271 621 310 707 q 232 417 232 535 q 271 213 232 300 q 379 79 310 126 q 539 32 449 32 z "},"õ":{"ha":1078,"x_min":56,"x_max":1024,"o":"m 539 851 q 733 821 644 851 q 888 733 822 790 q 988 597 953 676 q 1024 417 1024 517 q 988 237 1024 317 q 888 100 953 157 q 733 13 822 43 q 539 -18 644 -18 q 344 13 433 -18 q 191 100 256 43 q 91 237 126 157 q 56 417 56 317 q 91 597 56 517 q 191 733 126 676 q 344 821 256 790 q 539 851 433 851 m 539 32 q 699 79 629 32 q 808 213 768 126 q 847 417 847 300 q 808 621 847 535 q 699 754 768 707 q 539 801 629 801 q 379 754 449 801 q 271 621 310 707 q 232 417 232 535 q 271 213 232 300 q 379 79 310 126 q 539 32 449 32 z "},"œ":{"ha":1292,"x_min":56,"x_max":1260,"o":"m 524 853 q 590 850 554 853 q 663 840 625 847 q 703 836 682 838 q 751 835 725 835 l 753 0 q 724 0 740 0 q 682 -3 708 0 q 635 -8 661 -4 q 579 -15 608 -11 q 518 -18 550 -18 q 275 34 379 -18 q 113 183 171 86 q 56 418 56 281 q 113 651 56 554 q 276 801 171 749 q 524 853 381 853 m 525 31 q 600 41 567 31 q 653 69 633 51 q 674 107 674 86 l 674 729 q 653 767 674 750 q 600 794 633 785 q 526 804 567 804 q 370 759 438 804 q 264 627 303 714 q 225 417 225 540 q 263 210 225 297 q 369 77 301 124 q 525 31 436 31 m 833 835 l 833 0 l 675 4 l 675 835 l 833 835 m 1175 51 l 1196 0 l 831 0 l 825 51 l 1175 51 m 1125 439 l 1125 389 l 829 389 l 829 439 l 1125 439 m 1185 835 l 1185 783 l 828 783 l 828 835 l 1185 835 m 1260 235 l 1200 0 l 975 0 l 1018 51 q 1123 74 1079 51 q 1197 138 1167 97 q 1246 235 1228 179 l 1260 235 m 1125 392 l 1125 286 l 1111 286 l 1111 297 q 1088 363 1111 336 q 1022 389 1064 389 l 1022 392 l 1125 392 m 1125 543 l 1125 436 l 1022 436 l 1022 439 q 1088 466 1064 440 q 1111 532 1111 492 l 1111 543 l 1125 543 m 1185 788 l 1185 658 l 1171 658 l 1171 674 q 1144 752 1171 722 q 1065 783 1117 782 l 1065 788 l 1185 788 m 1185 857 l 1185 821 l 1039 835 q 1124 842 1079 835 q 1185 857 1168 850 z "},"p":{"ha":799,"x_min":57,"x_max":763,"o":"m 299 833 l 440 833 q 617 803 546 833 q 723 721 688 774 q 760 601 758 668 q 727 460 763 519 q 633 369 692 401 q 502 340 574 338 q 363 385 431 343 l 363 397 q 379 396 363 397 q 423 399 396 394 q 480 416 450 403 q 536 458 510 429 q 578 538 563 488 q 584 576 582 556 q 586 613 586 596 q 536 738 585 692 q 401 783 488 783 l 313 783 q 309 796 313 783 q 302 821 306 808 q 299 833 299 833 m 315 833 l 315 0 l 153 0 l 153 833 l 315 833 m 156 88 l 165 0 l 58 0 l 58 14 q 67 14 58 14 q 75 14 75 14 q 129 35 107 14 q 153 88 151 57 l 156 88 m 156 746 l 153 746 q 129 799 151 778 q 75 819 107 819 q 66 819 74 819 q 57 819 58 819 l 57 833 l 165 833 l 156 746 m 311 88 l 314 88 q 337 35 315 57 q 392 14 358 14 q 401 14 393 14 q 410 14 408 14 l 408 0 l 301 0 l 311 88 z "},"þ":{"ha":774,"x_min":65,"x_max":756,"o":"m 297 663 l 443 663 q 615 633 547 663 q 717 550 683 603 q 753 429 751 497 q 722 289 756 349 q 630 199 688 229 q 503 171 572 168 q 368 214 435 174 l 367 226 q 383 225 367 226 q 426 227 400 224 q 481 244 451 231 q 535 287 510 257 q 575 368 561 317 q 583 405 581 385 q 583 442 585 425 q 535 567 583 522 q 406 613 488 613 l 311 613 q 308 625 311 613 q 301 650 304 638 q 297 663 297 663 m 318 833 l 318 0 l 157 0 l 157 833 l 318 833 m 161 89 l 169 0 l 65 0 l 65 14 q 74 14 65 14 q 82 14 82 14 q 135 36 114 14 q 157 89 157 58 l 161 89 m 161 746 l 157 746 q 135 799 157 778 q 82 819 114 819 q 74 819 82 819 q 65 819 65 819 l 65 833 l 169 833 l 161 746 m 314 89 l 318 89 q 340 36 318 58 q 393 14 361 14 q 401 14 393 14 q 410 14 410 14 l 410 0 l 304 0 l 314 89 m 314 746 l 304 833 l 410 833 l 410 819 q 401 819 410 819 q 393 819 393 819 q 340 799 361 819 q 318 746 318 778 l 314 746 z "},"q":{"ha":1069,"x_min":56,"x_max":1631,"o":"m 528 851 q 719 821 632 851 q 869 733 806 790 q 966 597 932 676 q 1000 417 1000 517 q 966 237 1000 317 q 869 100 932 157 q 719 13 806 43 q 528 -18 632 -18 q 338 13 424 -18 q 188 100 251 43 q 90 237 125 157 q 56 417 56 317 q 90 597 56 517 q 188 733 125 676 q 338 821 251 790 q 528 851 424 851 m 528 32 q 682 79 615 32 q 787 213 749 126 q 825 417 825 300 q 787 621 825 535 q 682 754 749 707 q 528 801 615 801 q 374 754 442 801 q 269 621 307 707 q 232 417 232 535 q 269 213 232 300 q 374 79 307 126 q 528 32 442 32 m 526 -18 l 501 26 q 613 15 561 22 q 713 -6 664 7 q 815 -35 763 -18 q 928 -75 868 -53 q 1061 -126 988 -97 q 1218 -170 1140 -156 q 1369 -181 1296 -185 q 1508 -155 1443 -178 q 1625 -90 1574 -132 l 1631 -94 q 1594 -190 1626 -143 q 1505 -271 1561 -236 q 1372 -320 1449 -306 q 1201 -320 1294 -335 q 1003 -254 1108 -306 q 878 -184 939 -222 q 759 -110 818 -146 q 642 -49 700 -75 q 526 -18 583 -24 z "},"r":{"ha":900,"x_min":64,"x_max":944,"o":"m 306 833 l 464 833 q 578 821 525 833 q 673 781 632 808 q 737 711 714 754 q 760 607 760 668 q 738 506 760 556 q 671 423 715 457 q 560 381 626 389 q 630 333 594 369 q 685 265 665 297 q 705 234 689 258 q 744 177 721 210 q 793 113 768 144 q 843 55 821 76 q 890 24 865 33 q 944 14 914 14 l 944 0 l 853 0 q 726 14 778 0 q 640 57 675 28 q 575 129 604 86 q 549 171 565 144 q 517 226 533 197 q 486 280 500 254 q 468 319 472 306 q 419 383 447 361 q 365 407 392 406 l 365 419 q 381 419 367 419 q 415 419 394 418 q 480 429 447 421 q 539 465 513 438 q 579 551 565 493 q 585 579 583 563 q 586 617 588 596 q 569 695 585 664 q 531 744 554 726 q 479 771 507 763 q 426 781 451 779 q 356 781 386 782 q 318 781 325 781 q 314 794 317 782 q 308 820 311 807 q 306 833 306 833 m 319 833 l 319 0 l 156 0 l 156 833 l 319 833 m 160 88 l 169 0 l 64 0 l 64 14 q 72 14 64 14 q 81 14 79 14 q 134 35 113 14 q 157 88 156 57 l 160 88 m 160 746 l 157 746 q 134 799 156 778 q 82 819 113 819 q 72 819 79 819 q 64 819 64 819 l 64 833 l 169 833 l 160 746 m 317 88 l 319 88 q 344 35 321 56 q 397 14 368 14 q 404 14 397 14 q 413 14 411 14 l 414 0 l 307 0 l 317 88 z "},"ŕ":{"ha":900,"x_min":64,"x_max":944,"o":"m 306 833 l 464 833 q 578 821 525 833 q 673 781 632 808 q 737 711 714 754 q 760 607 760 668 q 738 506 760 556 q 671 423 715 457 q 560 381 626 389 q 630 333 594 369 q 685 265 665 297 q 705 234 689 258 q 744 177 721 210 q 793 113 768 144 q 843 55 821 76 q 890 24 865 33 q 944 14 914 14 l 944 0 l 853 0 q 726 14 778 0 q 640 57 675 28 q 575 129 604 86 q 549 171 565 144 q 517 226 533 197 q 486 280 500 254 q 468 319 472 306 q 419 383 447 361 q 365 407 392 406 l 365 419 q 381 419 367 419 q 415 419 394 418 q 480 429 447 421 q 539 465 513 438 q 579 551 565 493 q 585 579 583 563 q 586 617 588 596 q 569 695 585 664 q 531 744 554 726 q 479 771 507 763 q 426 781 451 779 q 356 781 386 782 q 318 781 325 781 q 314 794 317 782 q 308 820 311 807 q 306 833 306 833 m 319 833 l 319 0 l 156 0 l 156 833 l 319 833 m 160 88 l 169 0 l 64 0 l 64 14 q 72 14 64 14 q 81 14 79 14 q 134 35 113 14 q 157 88 156 57 l 160 88 m 160 746 l 157 746 q 134 799 156 778 q 82 819 113 819 q 72 819 79 819 q 64 819 64 819 l 64 833 l 169 833 l 160 746 m 317 88 l 319 88 q 344 35 321 56 q 397 14 368 14 q 404 14 397 14 q 413 14 411 14 l 414 0 l 307 0 l 317 88 z "},"ř":{"ha":900,"x_min":64,"x_max":944,"o":"m 306 833 l 464 833 q 578 821 525 833 q 673 781 632 808 q 737 711 714 754 q 760 607 760 668 q 738 506 760 556 q 671 423 715 457 q 560 381 626 389 q 630 333 594 369 q 685 265 665 297 q 705 234 689 258 q 744 177 721 210 q 793 113 768 144 q 843 55 821 76 q 890 24 865 33 q 944 14 914 14 l 944 0 l 853 0 q 726 14 778 0 q 640 57 675 28 q 575 129 604 86 q 549 171 565 144 q 517 226 533 197 q 486 280 500 254 q 468 319 472 306 q 419 383 447 361 q 365 407 392 406 l 365 419 q 381 419 367 419 q 415 419 394 418 q 480 429 447 421 q 539 465 513 438 q 579 551 565 493 q 585 579 583 563 q 586 617 588 596 q 569 695 585 664 q 531 744 554 726 q 479 771 507 763 q 426 781 451 779 q 356 781 386 782 q 318 781 325 781 q 314 794 317 782 q 308 820 311 807 q 306 833 306 833 m 319 833 l 319 0 l 156 0 l 156 833 l 319 833 m 160 88 l 169 0 l 64 0 l 64 14 q 72 14 64 14 q 81 14 79 14 q 134 35 113 14 q 157 88 156 57 l 160 88 m 160 746 l 157 746 q 134 799 156 778 q 82 819 113 819 q 72 819 79 819 q 64 819 64 819 l 64 833 l 169 833 l 160 746 m 317 88 l 319 88 q 344 35 321 56 q 397 14 368 14 q 404 14 397 14 q 413 14 411 14 l 414 0 l 307 0 l 317 88 z "},"ŗ":{"ha":900,"x_min":64,"x_max":944,"o":"m 306 833 l 464 833 q 578 821 525 833 q 673 781 632 808 q 737 711 714 754 q 760 607 760 668 q 738 506 760 556 q 671 423 715 457 q 560 381 626 389 q 630 333 594 369 q 685 265 665 297 q 705 234 689 258 q 744 177 721 210 q 793 113 768 144 q 843 55 821 76 q 890 24 865 33 q 944 14 914 14 l 944 0 l 853 0 q 726 14 778 0 q 640 57 675 28 q 575 129 604 86 q 549 171 565 144 q 517 226 533 197 q 486 280 500 254 q 468 319 472 306 q 419 383 447 361 q 365 407 392 406 l 365 419 q 381 419 367 419 q 415 419 394 418 q 480 429 447 421 q 539 465 513 438 q 579 551 565 493 q 585 579 583 563 q 586 617 588 596 q 569 695 585 664 q 531 744 554 726 q 479 771 507 763 q 426 781 451 779 q 356 781 386 782 q 318 781 325 781 q 314 794 317 782 q 308 820 311 807 q 306 833 306 833 m 319 833 l 319 0 l 156 0 l 156 833 l 319 833 m 160 88 l 169 0 l 64 0 l 64 14 q 72 14 64 14 q 81 14 79 14 q 134 35 113 14 q 157 88 156 57 l 160 88 m 160 746 l 157 746 q 134 799 156 778 q 82 819 113 819 q 72 819 79 819 q 64 819 64 819 l 64 833 l 169 833 l 160 746 m 317 88 l 319 88 q 344 35 321 56 q 397 14 368 14 q 404 14 397 14 q 413 14 411 14 l 414 0 l 307 0 l 317 88 m 479 -147 q 497 -104 479 -119 q 538 -89 514 -89 q 597 -122 578 -89 q 615 -192 615 -154 q 576 -287 615 -250 q 479 -326 538 -325 l 476 -315 q 513 -289 500 -306 q 525 -253 525 -272 q 520 -226 525 -239 q 506 -204 515 -214 q 488 -178 496 -192 q 479 -147 479 -164 z "},"s":{"ha":690,"x_min":67,"x_max":628,"o":"m 329 851 q 397 849 361 851 q 465 843 432 847 q 524 834 499 839 q 560 825 550 829 l 549 667 l 536 667 q 493 764 536 728 q 367 800 450 800 q 256 767 300 800 q 210 685 211 735 q 219 642 210 661 q 246 607 228 624 q 289 575 264 590 l 528 413 q 601 335 575 385 q 626 224 628 286 q 585 97 624 151 q 481 12 547 42 q 326 -18 414 -18 q 224 -10 274 -18 q 136 15 174 -1 q 75 53 99 31 q 68 114 67 78 q 78 188 69 150 q 100 251 88 225 l 114 251 q 135 139 110 189 q 212 60 161 89 q 332 32 263 32 q 457 72 414 33 q 500 167 500 110 q 480 232 500 203 q 414 288 460 261 l 190 443 q 106 531 131 478 q 86 644 81 585 q 122 753 90 707 q 208 826 154 800 q 329 851 261 851 m 561 839 l 560 815 l 428 815 l 428 839 l 561 839 z "},"ś":{"ha":690,"x_min":67,"x_max":628,"o":"m 329 851 q 397 849 361 851 q 465 843 432 847 q 524 834 499 839 q 560 825 550 829 l 549 667 l 536 667 q 493 764 536 728 q 367 800 450 800 q 256 767 300 800 q 210 685 211 735 q 219 642 210 661 q 246 607 228 624 q 289 575 264 590 l 528 413 q 601 335 575 385 q 626 224 628 286 q 585 97 624 151 q 481 12 547 42 q 326 -18 414 -18 q 224 -10 274 -18 q 136 15 174 -1 q 75 53 99 31 q 68 114 67 78 q 78 188 69 150 q 100 251 88 225 l 114 251 q 135 139 110 189 q 212 60 161 89 q 332 32 263 32 q 457 72 414 33 q 500 167 500 110 q 480 232 500 203 q 414 288 460 261 l 190 443 q 106 531 131 478 q 86 644 81 585 q 122 753 90 707 q 208 826 154 800 q 329 851 261 851 m 561 839 l 560 815 l 428 815 l 428 839 l 561 839 z "},"š":{"ha":690,"x_min":67,"x_max":628,"o":"m 329 851 q 397 849 361 851 q 465 843 432 847 q 524 834 499 839 q 560 825 550 829 l 549 667 l 536 667 q 493 764 536 728 q 367 800 450 800 q 256 767 300 800 q 210 685 211 735 q 219 642 210 661 q 246 607 228 624 q 289 575 264 590 l 528 413 q 601 335 575 385 q 626 224 628 286 q 585 97 624 151 q 481 12 547 42 q 326 -18 414 -18 q 224 -10 274 -18 q 136 15 174 -1 q 75 53 99 31 q 68 114 67 78 q 78 188 69 150 q 100 251 88 225 l 114 251 q 135 139 110 189 q 212 60 161 89 q 332 32 263 32 q 457 72 414 33 q 500 167 500 110 q 480 232 500 203 q 414 288 460 261 l 190 443 q 106 531 131 478 q 86 644 81 585 q 122 753 90 707 q 208 826 154 800 q 329 851 261 851 m 561 839 l 560 815 l 428 815 l 428 839 l 561 839 z "},"ş":{"ha":690,"x_min":68,"x_max":629,"o":"m 310 -15 l 367 -15 l 308 -82 q 353 -74 326 -75 q 405 -81 379 -74 q 447 -109 431 -89 q 463 -165 463 -129 q 427 -241 461 -211 q 342 -280 393 -271 q 240 -274 292 -289 l 240 -260 q 300 -251 269 -260 q 351 -220 331 -242 q 374 -164 372 -199 q 354 -121 375 -135 q 304 -106 333 -107 q 250 -115 275 -104 q 247 -108 250 -115 q 243 -101 243 -101 l 310 -15 m 329 851 q 397 849 361 851 q 465 843 432 847 q 524 834 499 839 q 560 825 550 829 l 549 667 l 536 667 q 493 764 536 728 q 367 800 450 800 q 256 767 300 800 q 210 685 213 735 q 219 642 210 661 q 246 607 228 624 q 288 575 264 590 l 529 413 q 603 335 576 385 q 626 224 629 286 q 585 97 624 151 q 480 12 546 42 q 326 -18 414 -18 q 224 -10 274 -18 q 135 15 174 -1 q 76 53 97 31 q 69 114 68 78 q 78 188 69 150 q 100 251 88 225 l 114 251 q 135 139 110 189 q 212 60 161 89 q 332 32 263 32 q 457 72 414 33 q 500 167 500 110 q 481 232 500 203 q 414 288 461 261 l 190 443 q 106 531 131 478 q 86 644 81 585 q 122 753 90 707 q 208 826 154 800 q 329 851 261 851 m 561 839 l 560 815 l 429 815 l 429 839 l 561 839 z "},"ș":{"ha":690,"x_min":67,"x_max":628,"o":"m 329 851 q 397 849 361 851 q 465 843 432 847 q 524 834 499 839 q 560 825 550 829 l 549 667 l 536 667 q 493 764 536 728 q 367 800 450 800 q 256 767 300 800 q 210 685 211 735 q 219 642 210 661 q 246 607 228 624 q 289 575 264 590 l 528 413 q 601 335 575 385 q 626 224 628 286 q 585 97 624 151 q 481 12 547 42 q 326 -18 414 -18 q 224 -10 274 -18 q 136 15 174 -1 q 75 53 99 31 q 68 114 67 78 q 78 188 69 150 q 100 251 88 225 l 114 251 q 135 139 110 189 q 212 60 161 89 q 332 32 263 32 q 457 72 414 33 q 500 167 500 110 q 480 232 500 203 q 414 288 460 261 l 190 443 q 106 531 131 478 q 86 644 81 585 q 122 753 90 707 q 208 826 154 800 q 329 851 261 851 m 561 839 l 560 815 l 428 815 l 428 839 l 561 839 m 286 -147 q 303 -104 286 -119 q 344 -89 321 -89 q 403 -122 385 -89 q 422 -192 422 -154 q 383 -287 422 -250 q 286 -326 344 -325 l 283 -315 q 319 -289 307 -306 q 332 -253 332 -272 q 327 -226 332 -239 q 313 -204 322 -214 q 294 -178 303 -192 q 286 -147 286 -164 z "},"ß":{"ha":1381,"x_min":67,"x_max":1319,"o":"m 329 851 q 397 849 361 851 q 465 843 432 847 q 524 834 499 839 q 560 825 550 829 l 549 667 l 536 667 q 493 764 536 728 q 367 800 450 800 q 256 767 300 800 q 210 685 211 735 q 219 642 210 661 q 246 607 228 624 q 289 575 264 590 l 528 413 q 601 335 575 385 q 626 224 628 286 q 585 97 624 151 q 481 12 547 42 q 326 -18 414 -18 q 224 -10 274 -18 q 136 15 174 -1 q 75 53 99 31 q 68 114 67 78 q 78 188 69 150 q 100 251 88 225 l 114 251 q 135 139 110 189 q 212 60 161 89 q 332 32 263 32 q 457 72 414 33 q 500 167 500 110 q 480 232 500 203 q 414 288 460 261 l 190 443 q 106 531 131 478 q 86 644 81 585 q 122 753 90 707 q 208 826 154 800 q 329 851 261 851 m 561 839 l 560 815 l 428 815 l 428 839 l 561 839 m 1019 851 q 1087 849 1051 851 q 1156 843 1122 847 q 1215 834 1189 839 q 1250 825 1240 829 l 1239 667 l 1226 667 q 1183 764 1226 728 q 1057 800 1140 800 q 946 767 990 800 q 900 685 901 735 q 909 642 900 661 q 936 607 918 624 q 979 575 954 590 l 1218 413 q 1292 335 1265 385 q 1317 224 1318 286 q 1276 97 1314 151 q 1171 12 1238 42 q 1017 -18 1104 -18 q 914 -10 964 -18 q 826 15 864 -1 q 765 53 789 31 q 758 114 757 78 q 769 188 760 150 q 790 251 778 225 l 804 251 q 826 139 800 189 q 902 60 851 89 q 1022 32 953 32 q 1147 72 1104 33 q 1190 167 1190 110 q 1170 232 1190 203 q 1104 288 1150 261 l 881 443 q 796 531 821 478 q 776 644 771 585 q 813 753 781 707 q 898 826 844 800 q 1019 851 951 851 m 1251 839 l 1250 815 l 1118 815 l 1118 839 l 1251 839 z "},"t":{"ha":822,"x_min":17,"x_max":807,"o":"m 494 829 l 494 0 l 329 0 l 329 829 l 494 829 m 807 835 l 807 783 l 17 783 l 17 835 l 807 835 m 807 788 l 807 657 l 792 657 l 792 674 q 765 752 793 722 q 685 783 736 782 l 685 788 l 807 788 m 807 857 l 807 821 l 657 835 q 715 838 685 835 q 772 847 746 842 q 807 857 797 853 m 332 88 l 332 0 l 236 0 l 236 14 q 244 14 236 14 q 251 14 251 14 q 306 35 283 14 q 329 88 328 57 l 332 88 m 489 88 l 494 88 q 517 35 494 57 q 572 14 540 14 q 579 14 572 14 q 586 14 586 14 l 586 0 l 489 0 l 489 88 m 139 788 l 139 783 q 59 752 88 782 q 31 674 31 722 l 31 657 l 17 657 l 17 788 l 139 788 m 17 857 q 53 847 28 853 q 108 838 78 842 q 165 835 139 835 l 17 821 l 17 857 z "},"ŧ":{"ha":822,"x_min":17,"x_max":807,"o":"m 494 829 l 494 0 l 329 0 l 329 829 l 494 829 m 807 835 l 807 783 l 17 783 l 17 835 l 807 835 m 807 788 l 807 657 l 792 657 l 792 674 q 765 752 793 722 q 685 783 736 782 l 685 788 l 807 788 m 807 857 l 807 821 l 657 835 q 715 838 685 835 q 772 847 746 842 q 807 857 797 853 m 332 88 l 332 0 l 236 0 l 236 14 q 244 14 236 14 q 251 14 251 14 q 306 35 283 14 q 329 88 328 57 l 332 88 m 489 88 l 494 88 q 517 35 494 57 q 572 14 540 14 q 579 14 572 14 q 586 14 586 14 l 586 0 l 489 0 l 489 88 m 139 788 l 139 783 q 59 752 88 782 q 31 674 31 722 l 31 657 l 17 657 l 17 788 l 139 788 m 17 857 q 53 847 28 853 q 108 838 78 842 q 165 835 139 835 l 17 821 l 17 857 m 686 474 l 686 424 l 142 424 l 142 474 l 686 474 z "},"ť":{"ha":822,"x_min":17,"x_max":807,"o":"m 599 1124 l 590 1135 l 415 1044 l 226 1135 l 217 1124 l 407 926 l 422 926 l 599 1124 m 494 829 l 494 0 l 329 0 l 329 829 l 494 829 m 807 835 l 807 783 l 17 783 l 17 835 l 807 835 m 807 788 l 807 657 l 792 657 l 792 674 q 765 752 793 722 q 685 783 736 782 l 685 788 l 807 788 m 807 857 l 807 821 l 657 835 q 715 838 685 835 q 772 847 746 842 q 807 857 797 853 m 332 88 l 332 0 l 236 0 l 236 14 q 244 14 236 14 q 251 14 251 14 q 306 35 283 14 q 329 88 328 57 l 332 88 m 489 88 l 494 88 q 517 35 494 57 q 572 14 540 14 q 579 14 572 14 q 586 14 586 14 l 586 0 l 489 0 l 489 88 m 139 788 l 139 783 q 59 752 88 782 q 31 674 31 722 l 31 657 l 17 657 l 17 788 l 139 788 m 17 857 q 53 847 28 853 q 108 838 78 842 q 165 835 139 835 l 17 821 l 17 857 z "},"ţ":{"ha":822,"x_min":17,"x_max":807,"o":"m 494 829 l 494 0 l 329 0 l 329 829 l 494 829 m 807 835 l 807 783 l 17 783 l 17 835 l 807 835 m 807 788 l 807 657 l 792 657 l 792 674 q 765 752 793 722 q 685 783 736 782 l 685 788 l 807 788 m 807 857 l 807 821 l 657 835 q 715 838 685 835 q 772 847 746 842 q 807 857 797 853 m 332 88 l 332 0 l 236 0 l 236 14 q 244 14 236 14 q 251 14 251 14 q 306 35 283 14 q 329 88 328 57 l 332 88 m 489 88 l 494 88 q 517 35 494 57 q 572 14 540 14 q 579 14 572 14 q 586 14 586 14 l 586 0 l 489 0 l 489 88 m 139 788 l 139 783 q 59 752 88 782 q 31 674 31 722 l 31 657 l 17 657 l 17 788 l 139 788 m 17 857 q 53 847 28 853 q 108 838 78 842 q 165 835 139 835 l 17 821 l 17 857 z "},"ț":{"ha":822,"x_min":17,"x_max":807,"o":"m 494 829 l 494 0 l 329 0 l 329 829 l 494 829 m 807 835 l 807 783 l 17 783 l 17 835 l 807 835 m 807 788 l 807 657 l 792 657 l 792 674 q 765 752 793 722 q 685 783 736 782 l 685 788 l 807 788 m 807 857 l 807 821 l 657 835 q 715 838 685 835 q 772 847 746 842 q 807 857 797 853 m 332 88 l 332 0 l 236 0 l 236 14 q 244 14 236 14 q 251 14 251 14 q 306 35 283 14 q 329 88 328 57 l 332 88 m 489 88 l 494 88 q 517 35 494 57 q 572 14 540 14 q 579 14 572 14 q 586 14 586 14 l 586 0 l 489 0 l 489 88 m 139 788 l 139 783 q 59 752 88 782 q 31 674 31 722 l 31 657 l 17 657 l 17 788 l 139 788 m 17 857 q 53 847 28 853 q 108 838 78 842 q 165 835 139 835 l 17 821 l 17 857 m 350 -147 q 367 -104 350 -119 q 408 -89 385 -89 q 467 -122 449 -89 q 486 -192 486 -154 q 447 -287 486 -250 q 350 -326 408 -325 l 347 -315 q 383 -289 371 -306 q 396 -253 396 -272 q 391 -226 396 -239 q 376 -204 386 -214 q 358 -178 367 -192 q 350 -147 350 -164 z "},"u":{"ha":976,"x_min":43,"x_max":942,"o":"m 292 833 l 292 308 q 354 105 292 179 q 526 31 417 31 q 709 101 643 31 q 775 293 775 171 l 775 833 l 857 833 l 857 300 q 766 67 857 151 q 510 -18 675 -18 q 225 66 322 -18 q 128 297 128 150 l 128 833 l 292 833 m 131 833 l 131 761 l 128 761 q 108 803 126 786 q 64 821 90 821 q 53 821 64 821 q 43 821 43 821 l 43 833 l 131 833 m 375 833 l 375 821 q 365 821 375 821 q 354 821 354 821 q 310 803 329 821 q 292 761 292 786 l 289 761 l 289 833 l 375 833 m 778 833 l 778 761 l 775 761 q 756 803 775 786 q 711 821 738 821 q 701 821 711 821 q 690 821 690 821 l 690 833 l 778 833 m 942 833 l 942 821 q 932 821 942 821 q 922 821 922 821 q 877 803 896 821 q 857 761 858 786 l 854 761 l 854 833 l 942 833 z "},"ú":{"ha":976,"x_min":43,"x_max":942,"o":"m 292 833 l 292 308 q 354 105 292 179 q 526 31 417 31 q 709 101 643 31 q 775 293 775 171 l 775 833 l 857 833 l 857 300 q 766 67 857 151 q 510 -18 675 -18 q 225 66 322 -18 q 128 297 128 150 l 128 833 l 292 833 m 131 833 l 131 761 l 128 761 q 108 803 126 786 q 64 821 90 821 q 53 821 64 821 q 43 821 43 821 l 43 833 l 131 833 m 375 833 l 375 821 q 365 821 375 821 q 354 821 354 821 q 310 803 329 821 q 292 761 292 786 l 289 761 l 289 833 l 375 833 m 778 833 l 778 761 l 775 761 q 756 803 775 786 q 711 821 738 821 q 701 821 711 821 q 690 821 690 821 l 690 833 l 778 833 m 942 833 l 942 821 q 932 821 942 821 q 922 821 922 821 q 877 803 896 821 q 857 761 858 786 l 854 761 l 854 833 l 942 833 z "},"û":{"ha":976,"x_min":43,"x_max":942,"o":"m 292 833 l 292 308 q 354 105 292 179 q 526 31 417 31 q 709 101 643 31 q 775 293 775 171 l 775 833 l 857 833 l 857 300 q 766 67 857 151 q 510 -18 675 -18 q 225 66 322 -18 q 128 297 128 150 l 128 833 l 292 833 m 131 833 l 131 761 l 128 761 q 108 803 126 786 q 64 821 90 821 q 53 821 64 821 q 43 821 43 821 l 43 833 l 131 833 m 375 833 l 375 821 q 365 821 375 821 q 354 821 354 821 q 310 803 329 821 q 292 761 292 786 l 289 761 l 289 833 l 375 833 m 778 833 l 778 761 l 775 761 q 756 803 775 786 q 711 821 738 821 q 701 821 711 821 q 690 821 690 821 l 690 833 l 778 833 m 942 833 l 942 821 q 932 821 942 821 q 922 821 922 821 q 877 803 896 821 q 857 761 858 786 l 854 761 l 854 833 l 942 833 z "},"ü":{"ha":976,"x_min":43,"x_max":942,"o":"m 292 833 l 292 308 q 354 105 292 179 q 526 31 417 31 q 709 101 643 31 q 775 293 775 171 l 775 833 l 857 833 l 857 300 q 766 67 857 151 q 510 -18 675 -18 q 225 66 322 -18 q 128 297 128 150 l 128 833 l 292 833 m 131 833 l 131 761 l 128 761 q 108 803 126 786 q 64 821 90 821 q 53 821 64 821 q 43 821 43 821 l 43 833 l 131 833 m 375 833 l 375 821 q 365 821 375 821 q 354 821 354 821 q 310 803 329 821 q 292 761 292 786 l 289 761 l 289 833 l 375 833 m 778 833 l 778 761 l 775 761 q 756 803 775 786 q 711 821 738 821 q 701 821 711 821 q 690 821 690 821 l 690 833 l 778 833 m 942 833 l 942 821 q 932 821 942 821 q 922 821 922 821 q 877 803 896 821 q 857 761 858 786 l 854 761 l 854 833 l 942 833 z "},"ù":{"ha":976,"x_min":43,"x_max":942,"o":"m 292 833 l 292 308 q 354 105 292 179 q 526 31 417 31 q 709 101 643 31 q 775 293 775 171 l 775 833 l 857 833 l 857 300 q 766 67 857 151 q 510 -18 675 -18 q 225 66 322 -18 q 128 297 128 150 l 128 833 l 292 833 m 131 833 l 131 761 l 128 761 q 108 803 126 786 q 64 821 90 821 q 53 821 64 821 q 43 821 43 821 l 43 833 l 131 833 m 375 833 l 375 821 q 365 821 375 821 q 354 821 354 821 q 310 803 329 821 q 292 761 292 786 l 289 761 l 289 833 l 375 833 m 778 833 l 778 761 l 775 761 q 756 803 775 786 q 711 821 738 821 q 701 821 711 821 q 690 821 690 821 l 690 833 l 778 833 m 942 833 l 942 821 q 932 821 942 821 q 922 821 922 821 q 877 803 896 821 q 857 761 858 786 l 854 761 l 854 833 l 942 833 z "},"ű":{"ha":976,"x_min":43,"x_max":942,"o":"m 292 833 l 292 308 q 354 105 292 179 q 526 31 417 31 q 709 101 643 31 q 775 293 775 171 l 775 833 l 857 833 l 857 300 q 766 67 857 151 q 510 -18 675 -18 q 225 66 322 -18 q 128 297 128 150 l 128 833 l 292 833 m 131 833 l 131 761 l 128 761 q 108 803 126 786 q 64 821 90 821 q 53 821 64 821 q 43 821 43 821 l 43 833 l 131 833 m 375 833 l 375 821 q 365 821 375 821 q 354 821 354 821 q 310 803 329 821 q 292 761 292 786 l 289 761 l 289 833 l 375 833 m 778 833 l 778 761 l 775 761 q 756 803 775 786 q 711 821 738 821 q 701 821 711 821 q 690 821 690 821 l 690 833 l 778 833 m 942 833 l 942 821 q 932 821 942 821 q 922 821 922 821 q 877 803 896 821 q 857 761 858 786 l 854 761 l 854 833 l 942 833 z "},"ū":{"ha":976,"x_min":43,"x_max":942,"o":"m 292 833 l 292 308 q 354 105 292 179 q 526 31 417 31 q 709 101 643 31 q 775 293 775 171 l 775 833 l 857 833 l 857 300 q 766 67 857 151 q 510 -18 675 -18 q 225 66 322 -18 q 128 297 128 150 l 128 833 l 292 833 m 131 833 l 131 761 l 128 761 q 108 803 126 786 q 64 821 90 821 q 53 821 64 821 q 43 821 43 821 l 43 833 l 131 833 m 375 833 l 375 821 q 365 821 375 821 q 354 821 354 821 q 310 803 329 821 q 292 761 292 786 l 289 761 l 289 833 l 375 833 m 778 833 l 778 761 l 775 761 q 756 803 775 786 q 711 821 738 821 q 701 821 711 821 q 690 821 690 821 l 690 833 l 778 833 m 942 833 l 942 821 q 932 821 942 821 q 922 821 922 821 q 877 803 896 821 q 857 761 858 786 l 854 761 l 854 833 l 942 833 z "},"ų":{"ha":976,"x_min":43,"x_max":942,"o":"m 292 833 l 292 308 q 354 105 292 179 q 526 31 417 31 q 709 101 643 31 q 775 293 775 171 l 775 833 l 857 833 l 857 300 q 766 67 857 151 q 510 -18 675 -18 q 225 66 322 -18 q 128 297 128 150 l 128 833 l 292 833 m 131 833 l 131 761 l 128 761 q 108 803 126 786 q 64 821 90 821 q 53 821 64 821 q 43 821 43 821 l 43 833 l 131 833 m 375 833 l 375 821 q 365 821 375 821 q 354 821 354 821 q 310 803 329 821 q 292 761 292 786 l 289 761 l 289 833 l 375 833 m 778 833 l 778 761 l 775 761 q 756 803 775 786 q 711 821 738 821 q 701 821 711 821 q 690 821 690 821 l 690 833 l 778 833 m 942 833 l 942 821 q 932 821 942 821 q 922 821 922 821 q 877 803 896 821 q 857 761 858 786 l 854 761 l 854 833 l 942 833 z "},"ů":{"ha":976,"x_min":43,"x_max":942,"o":"m 292 833 l 292 308 q 354 105 292 179 q 526 31 417 31 q 709 101 643 31 q 775 293 775 171 l 775 833 l 857 833 l 857 300 q 766 67 857 151 q 510 -18 675 -18 q 225 66 322 -18 q 128 297 128 150 l 128 833 l 292 833 m 131 833 l 131 761 l 128 761 q 108 803 126 786 q 64 821 90 821 q 53 821 64 821 q 43 821 43 821 l 43 833 l 131 833 m 375 833 l 375 821 q 365 821 375 821 q 354 821 354 821 q 310 803 329 821 q 292 761 292 786 l 289 761 l 289 833 l 375 833 m 778 833 l 778 761 l 775 761 q 756 803 775 786 q 711 821 738 821 q 701 821 711 821 q 690 821 690 821 l 690 833 l 778 833 m 942 833 l 942 821 q 932 821 942 821 q 922 821 922 821 q 877 803 896 821 q 857 761 858 786 l 854 761 l 854 833 l 942 833 z "},"v":{"ha":897,"x_min":-28,"x_max":925,"o":"m 450 -18 l 50 825 l 244 825 l 511 193 l 450 -18 m 450 -18 l 443 121 l 750 829 l 847 829 l 524 142 q 512 117 521 138 q 492 72 503 97 q 472 22 481 46 q 461 -18 464 -3 l 450 -18 m 710 738 q 706 799 725 778 q 663 819 688 819 l 653 819 l 653 833 l 925 833 l 925 819 q 919 819 925 819 q 914 819 914 819 q 856 801 886 819 q 804 738 825 782 l 710 738 m 281 738 l 92 738 q 41 801 71 782 q -17 819 11 819 q -22 819 -17 819 q -28 819 -28 819 l -28 833 l 339 833 l 339 819 l 328 819 q 286 799 306 819 q 281 738 267 778 z "},"w":{"ha":1222,"x_min":-25,"x_max":1243,"o":"m 64 825 l 244 825 l 444 267 l 388 -15 l 64 825 m 668 854 l 688 731 l 432 129 q 424 107 432 129 q 409 51 417 85 q 400 -15 401 18 l 388 -15 l 354 128 l 656 854 l 668 854 m 668 853 l 938 261 l 885 -15 l 590 625 l 668 853 m 1151 825 l 922 129 q 915 106 922 129 q 902 50 908 83 q 897 -15 896 17 l 885 -15 l 853 114 l 1065 825 l 1151 825 m 1039 742 q 1035 801 1051 782 q 996 819 1019 819 l 985 819 l 985 833 l 1243 833 l 1243 819 q 1238 819 1243 819 q 1233 819 1233 819 q 1167 799 1197 819 q 1124 740 1136 778 l 1039 742 m 275 742 l 96 740 q 53 799 82 778 q -14 819 24 819 q -19 819 -14 819 q -25 819 -25 819 l -25 833 l 331 833 l 331 819 l 319 819 q 279 801 297 819 q 275 742 261 782 z "},"ẃ":{"ha":1222,"x_min":-25,"x_max":1243,"o":"m 64 825 l 244 825 l 444 267 l 388 -15 l 64 825 m 668 854 l 688 731 l 432 129 q 424 107 432 129 q 409 51 417 85 q 400 -15 401 18 l 388 -15 l 354 128 l 656 854 l 668 854 m 668 853 l 938 261 l 885 -15 l 590 625 l 668 853 m 1151 825 l 922 129 q 915 106 922 129 q 902 50 908 83 q 897 -15 896 17 l 885 -15 l 853 114 l 1065 825 l 1151 825 m 1039 742 q 1035 801 1051 782 q 996 819 1019 819 l 985 819 l 985 833 l 1243 833 l 1243 819 q 1238 819 1243 819 q 1233 819 1233 819 q 1167 799 1197 819 q 1124 740 1136 778 l 1039 742 m 275 742 l 96 740 q 53 799 82 778 q -14 819 24 819 q -19 819 -14 819 q -25 819 -25 819 l -25 833 l 331 833 l 331 819 l 319 819 q 279 801 297 819 q 275 742 261 782 z "},"ŵ":{"ha":1222,"x_min":-25,"x_max":1243,"o":"m 64 825 l 244 825 l 444 267 l 388 -15 l 64 825 m 668 854 l 688 731 l 432 129 q 424 107 432 129 q 409 51 417 85 q 400 -15 401 18 l 388 -15 l 354 128 l 656 854 l 668 854 m 668 853 l 938 261 l 885 -15 l 590 625 l 668 853 m 1151 825 l 922 129 q 915 106 922 129 q 902 50 908 83 q 897 -15 896 17 l 885 -15 l 853 114 l 1065 825 l 1151 825 m 1039 742 q 1035 801 1051 782 q 996 819 1019 819 l 985 819 l 985 833 l 1243 833 l 1243 819 q 1238 819 1243 819 q 1233 819 1233 819 q 1167 799 1197 819 q 1124 740 1136 778 l 1039 742 m 275 742 l 96 740 q 53 799 82 778 q -14 819 24 819 q -19 819 -14 819 q -25 819 -25 819 l -25 833 l 331 833 l 331 819 l 319 819 q 279 801 297 819 q 275 742 261 782 z "},"ẅ":{"ha":1222,"x_min":-25,"x_max":1243,"o":"m 64 825 l 244 825 l 444 267 l 388 -15 l 64 825 m 668 854 l 688 731 l 432 129 q 424 107 432 129 q 409 51 417 85 q 400 -15 401 18 l 388 -15 l 354 128 l 656 854 l 668 854 m 668 853 l 938 261 l 885 -15 l 590 625 l 668 853 m 1151 825 l 922 129 q 915 106 922 129 q 902 50 908 83 q 897 -15 896 17 l 885 -15 l 853 114 l 1065 825 l 1151 825 m 1039 742 q 1035 801 1051 782 q 996 819 1019 819 l 985 819 l 985 833 l 1243 833 l 1243 819 q 1238 819 1243 819 q 1233 819 1233 819 q 1167 799 1197 819 q 1124 740 1136 778 l 1039 742 m 275 742 l 96 740 q 53 799 82 778 q -14 819 24 819 q -19 819 -14 819 q -25 819 -25 819 l -25 833 l 331 833 l 331 819 l 319 819 q 279 801 297 819 q 275 742 261 782 z "},"ẁ":{"ha":1222,"x_min":-25,"x_max":1243,"o":"m 64 825 l 244 825 l 444 267 l 388 -15 l 64 825 m 668 854 l 688 731 l 432 129 q 424 107 432 129 q 409 51 417 85 q 400 -15 401 18 l 388 -15 l 354 128 l 656 854 l 668 854 m 668 853 l 938 261 l 885 -15 l 590 625 l 668 853 m 1151 825 l 922 129 q 915 106 922 129 q 902 50 908 83 q 897 -15 896 17 l 885 -15 l 853 114 l 1065 825 l 1151 825 m 1039 742 q 1035 801 1051 782 q 996 819 1019 819 l 985 819 l 985 833 l 1243 833 l 1243 819 q 1238 819 1243 819 q 1233 819 1233 819 q 1167 799 1197 819 q 1124 740 1136 778 l 1039 742 m 275 742 l 96 740 q 53 799 82 778 q -14 819 24 819 q -19 819 -14 819 q -25 819 -25 819 l -25 833 l 331 833 l 331 819 l 319 819 q 279 801 297 819 q 275 742 261 782 z "},"x":{"ha":892,"x_min":-22,"x_max":915,"o":"m 274 832 l 825 1 l 633 1 l 85 832 l 274 832 m 224 86 q 224 38 206 61 q 267 14 242 14 q 274 14 267 14 q 282 14 282 14 l 282 0 l -22 0 l -22 14 l -6 14 q 67 35 35 14 q 121 82 99 56 l 224 86 m 388 429 l 436 378 l 160 1 l 61 4 l 388 429 m 578 86 l 771 82 q 824 35 790 56 q 899 14 858 14 l 915 14 l 915 0 l 518 0 l 518 14 q 526 14 518 14 q 535 14 535 14 q 576 38 560 14 q 578 86 593 61 m 389 835 l 389 821 q 381 821 389 821 q 374 821 374 821 q 331 797 349 821 q 331 749 314 774 l 139 753 q 85 801 119 781 q 13 821 51 821 l -6 821 l -6 835 l 389 835 m 800 832 l 506 410 l 464 478 l 697 832 l 800 832 m 888 835 l 888 821 l 869 821 q 797 801 831 821 q 743 751 763 781 l 642 747 q 641 797 657 774 q 599 821 625 821 q 590 821 599 821 q 582 821 582 821 l 582 835 l 888 835 z "},"y":{"ha":885,"x_min":-31,"x_max":918,"o":"m 250 832 l 511 378 l 368 349 l 58 832 l 250 832 m 524 371 l 524 0 l 358 0 l 358 369 l 524 371 m 732 832 l 829 832 l 511 343 l 450 357 l 732 832 m 681 746 q 681 796 696 772 q 639 819 667 819 q 631 819 639 819 q 622 819 622 819 l 622 833 l 918 833 l 918 819 l 900 819 q 829 799 863 819 q 776 750 796 778 l 681 746 m 300 747 l 110 751 q 57 801 89 782 q -14 819 25 819 l -31 819 l -31 833 l 357 833 l 357 819 q 349 819 357 819 q 342 819 342 819 q 299 796 313 819 q 300 747 286 772 m 363 88 l 363 0 l 264 0 l 264 14 q 273 14 265 14 q 281 14 281 14 q 335 35 313 14 q 358 88 358 57 l 363 88 m 519 88 l 524 88 q 547 35 525 57 q 601 14 569 14 q 610 14 601 14 q 618 14 618 14 l 618 0 l 519 0 l 519 88 z "},"ý":{"ha":885,"x_min":-31,"x_max":918,"o":"m 250 832 l 511 378 l 368 349 l 58 832 l 250 832 m 524 371 l 524 0 l 358 0 l 358 369 l 524 371 m 732 832 l 829 832 l 511 343 l 450 357 l 732 832 m 681 746 q 681 796 696 772 q 639 819 667 819 q 631 819 639 819 q 622 819 622 819 l 622 833 l 918 833 l 918 819 l 900 819 q 829 799 863 819 q 776 750 796 778 l 681 746 m 300 747 l 110 751 q 57 801 89 782 q -14 819 25 819 l -31 819 l -31 833 l 357 833 l 357 819 q 349 819 357 819 q 342 819 342 819 q 299 796 313 819 q 300 747 286 772 m 363 88 l 363 0 l 264 0 l 264 14 q 273 14 265 14 q 281 14 281 14 q 335 35 313 14 q 358 88 358 57 l 363 88 m 519 88 l 524 88 q 547 35 525 57 q 601 14 569 14 q 610 14 601 14 q 618 14 618 14 l 618 0 l 519 0 l 519 88 z "},"ŷ":{"ha":885,"x_min":-31,"x_max":918,"o":"m 250 832 l 511 378 l 368 349 l 58 832 l 250 832 m 524 371 l 524 0 l 358 0 l 358 369 l 524 371 m 732 832 l 829 832 l 511 343 l 450 357 l 732 832 m 681 746 q 681 796 696 772 q 639 819 667 819 q 631 819 639 819 q 622 819 622 819 l 622 833 l 918 833 l 918 819 l 900 819 q 829 799 863 819 q 776 750 796 778 l 681 746 m 300 747 l 110 751 q 57 801 89 782 q -14 819 25 819 l -31 819 l -31 833 l 357 833 l 357 819 q 349 819 357 819 q 342 819 342 819 q 299 796 313 819 q 300 747 286 772 m 363 88 l 363 0 l 264 0 l 264 14 q 273 14 265 14 q 281 14 281 14 q 335 35 313 14 q 358 88 358 57 l 363 88 m 519 88 l 524 88 q 547 35 525 57 q 601 14 569 14 q 610 14 601 14 q 618 14 618 14 l 618 0 l 519 0 l 519 88 z "},"ÿ":{"ha":885,"x_min":-31,"x_max":918,"o":"m 250 832 l 511 378 l 368 349 l 58 832 l 250 832 m 524 371 l 524 0 l 358 0 l 358 369 l 524 371 m 732 832 l 829 832 l 511 343 l 450 357 l 732 832 m 681 746 q 681 796 696 772 q 639 819 667 819 q 631 819 639 819 q 622 819 622 819 l 622 833 l 918 833 l 918 819 l 900 819 q 829 799 863 819 q 776 750 796 778 l 681 746 m 300 747 l 110 751 q 57 801 89 782 q -14 819 25 819 l -31 819 l -31 833 l 357 833 l 357 819 q 349 819 357 819 q 342 819 342 819 q 299 796 313 819 q 300 747 286 772 m 363 88 l 363 0 l 264 0 l 264 14 q 273 14 265 14 q 281 14 281 14 q 335 35 313 14 q 358 88 358 57 l 363 88 m 519 88 l 524 88 q 547 35 525 57 q 601 14 569 14 q 610 14 601 14 q 618 14 618 14 l 618 0 l 519 0 l 519 88 z "},"ỳ":{"ha":885,"x_min":-31,"x_max":918,"o":"m 250 832 l 511 378 l 368 349 l 58 832 l 250 832 m 524 371 l 524 0 l 358 0 l 358 369 l 524 371 m 732 832 l 829 832 l 511 343 l 450 357 l 732 832 m 681 746 q 681 796 696 772 q 639 819 667 819 q 631 819 639 819 q 622 819 622 819 l 622 833 l 918 833 l 918 819 l 900 819 q 829 799 863 819 q 776 750 796 778 l 681 746 m 300 747 l 110 751 q 57 801 89 782 q -14 819 25 819 l -31 819 l -31 833 l 357 833 l 357 819 q 349 819 357 819 q 342 819 342 819 q 299 796 313 819 q 300 747 286 772 m 363 88 l 363 0 l 264 0 l 264 14 q 273 14 265 14 q 281 14 281 14 q 335 35 313 14 q 358 88 358 57 l 363 88 m 519 88 l 524 88 q 547 35 525 57 q 601 14 569 14 q 610 14 601 14 q 618 14 618 14 l 618 0 l 519 0 l 519 88 z "},"z":{"ha":843,"x_min":56,"x_max":818,"o":"m 754 851 q 754 846 754 851 q 754 840 754 840 l 247 0 l 56 0 l 56 13 l 533 785 l 75 785 l 75 835 l 607 835 q 666 838 635 835 q 722 844 697 840 q 754 851 746 849 m 750 50 l 740 0 l 147 0 l 147 50 l 750 50 m 818 236 l 753 0 l 517 0 l 564 50 q 675 74 629 51 q 753 138 721 96 q 804 236 785 179 l 818 236 m 75 788 l 199 788 l 199 785 q 119 753 147 783 q 90 672 90 722 l 90 657 l 75 657 l 75 788 m 75 857 q 113 848 88 853 q 170 840 139 843 q 228 835 201 836 l 75 821 l 75 857 z "},"ź":{"ha":843,"x_min":56,"x_max":818,"o":"m 754 851 q 754 846 754 851 q 754 840 754 840 l 247 0 l 56 0 l 56 13 l 533 785 l 75 785 l 75 835 l 607 835 q 666 838 635 835 q 722 844 697 840 q 754 851 746 849 m 750 50 l 740 0 l 147 0 l 147 50 l 750 50 m 818 236 l 753 0 l 517 0 l 564 50 q 675 74 629 51 q 753 138 721 96 q 804 236 785 179 l 818 236 m 75 788 l 199 788 l 199 785 q 119 753 147 783 q 90 672 90 722 l 90 657 l 75 657 l 75 788 m 75 857 q 113 848 88 853 q 170 840 139 843 q 228 835 201 836 l 75 821 l 75 857 z "},"ž":{"ha":843,"x_min":56,"x_max":818,"o":"m 754 851 q 754 846 754 851 q 754 840 754 840 l 247 0 l 56 0 l 56 13 l 533 785 l 75 785 l 75 835 l 607 835 q 666 838 635 835 q 722 844 697 840 q 754 851 746 849 m 750 50 l 740 0 l 147 0 l 147 50 l 750 50 m 818 236 l 753 0 l 517 0 l 564 50 q 675 74 629 51 q 753 138 721 96 q 804 236 785 179 l 818 236 m 75 788 l 199 788 l 199 785 q 119 753 147 783 q 90 672 90 722 l 90 657 l 75 657 l 75 788 m 75 857 q 113 848 88 853 q 170 840 139 843 q 228 835 201 836 l 75 821 l 75 857 z "},"ż":{"ha":843,"x_min":56,"x_max":818,"o":"m 754 851 q 754 846 754 851 q 754 840 754 840 l 247 0 l 56 0 l 56 13 l 533 785 l 75 785 l 75 835 l 607 835 q 666 838 635 835 q 722 844 697 840 q 754 851 746 849 m 750 50 l 740 0 l 147 0 l 147 50 l 750 50 m 818 236 l 753 0 l 517 0 l 564 50 q 675 74 629 51 q 753 138 721 96 q 804 236 785 179 l 818 236 m 75 788 l 199 788 l 199 785 q 119 753 147 783 q 90 672 90 722 l 90 657 l 75 657 l 75 788 m 75 857 q 113 848 88 853 q 170 840 139 843 q 228 835 201 836 l 75 821 l 75 857 z "},"ﬁ":{"ha":1219,"x_min":57,"x_max":1163,"o":"m 315 833 l 315 0 l 153 0 l 153 833 l 315 833 m 606 440 l 606 389 l 313 389 l 313 440 l 606 440 m 669 833 l 669 782 l 313 782 l 313 833 l 669 833 m 606 392 l 606 283 l 592 283 l 592 296 q 568 361 592 335 q 501 389 544 388 l 501 392 l 606 392 m 606 544 l 606 438 l 501 438 l 501 440 q 568 467 544 440 q 592 532 592 493 l 592 544 l 606 544 m 669 786 l 669 654 l 654 654 l 654 669 q 626 751 654 719 q 546 782 599 782 l 546 786 l 669 786 m 669 856 l 669 819 l 519 833 q 576 837 546 833 q 633 846 607 840 q 669 856 658 851 m 157 88 l 167 0 l 57 0 l 57 14 q 66 14 57 14 q 75 14 75 14 q 130 35 107 14 q 153 88 153 57 l 157 88 m 157 746 l 153 746 q 130 799 153 778 q 75 819 107 819 q 66 819 75 819 q 57 819 57 819 l 57 833 l 167 833 l 157 746 m 313 88 l 315 88 q 339 35 317 57 q 394 14 361 14 q 403 14 394 14 q 411 14 411 14 l 411 0 l 303 0 l 313 88 m 1060 833 l 1060 0 l 897 0 l 897 833 l 1060 833 m 901 88 l 901 0 l 794 0 l 794 14 q 803 14 794 14 q 813 14 813 14 q 872 35 847 14 q 897 88 897 57 l 901 88 m 1056 88 l 1060 88 q 1085 35 1061 57 q 1146 14 1110 14 q 1153 14 1146 14 q 1163 14 1161 14 l 1163 0 l 1056 0 l 1056 88 m 1056 746 l 1056 833 l 1163 833 l 1161 819 q 1153 819 1161 819 q 1146 819 1146 819 q 1085 799 1110 819 q 1060 746 1061 778 l 1056 746 m 901 746 l 897 746 q 872 799 897 778 q 813 819 847 819 q 803 819 811 819 q 794 819 794 819 l 794 833 l 901 833 l 901 746 z "},"ﬂ":{"ha":1493,"x_min":57,"x_max":1479,"o":"m 315 833 l 315 0 l 153 0 l 153 833 l 315 833 m 606 440 l 606 389 l 313 389 l 313 440 l 606 440 m 669 833 l 669 782 l 313 782 l 313 833 l 669 833 m 606 392 l 606 283 l 592 283 l 592 296 q 568 361 592 335 q 501 389 544 388 l 501 392 l 606 392 m 606 544 l 606 438 l 501 438 l 501 440 q 568 467 544 440 q 592 532 592 493 l 592 544 l 606 544 m 669 786 l 669 654 l 654 654 l 654 669 q 626 751 654 719 q 546 782 599 782 l 546 786 l 669 786 m 669 856 l 669 819 l 519 833 q 576 837 546 833 q 633 846 607 840 q 669 856 658 851 m 157 88 l 167 0 l 57 0 l 57 14 q 66 14 57 14 q 75 14 75 14 q 130 35 107 14 q 153 88 153 57 l 157 88 m 157 746 l 153 746 q 130 799 153 778 q 75 819 107 819 q 66 819 75 819 q 57 819 57 819 l 57 833 l 167 833 l 157 746 m 313 88 l 315 88 q 339 35 317 57 q 394 14 361 14 q 403 14 394 14 q 411 14 411 14 l 411 0 l 303 0 l 313 88 m 1053 833 l 1053 0 l 890 0 l 890 833 l 1053 833 m 1393 51 l 1415 0 l 1050 0 l 1050 51 l 1393 51 m 1481 236 l 1418 0 l 1188 0 l 1232 51 q 1341 74 1296 51 q 1417 139 1386 97 q 1467 236 1447 181 l 1481 236 m 893 88 l 903 0 l 794 0 l 794 14 q 803 14 794 14 q 813 14 813 14 q 867 35 844 14 q 890 88 889 57 l 893 88 m 1049 746 l 1049 833 l 1147 833 l 1147 819 q 1140 819 1147 819 q 1132 819 1132 819 q 1076 799 1099 819 q 1053 746 1053 778 l 1049 746 m 893 746 l 890 746 q 866 799 889 778 q 811 819 843 819 q 802 819 810 819 q 794 819 794 819 l 794 833 l 893 833 l 893 746 z "},"Δ":{"ha":906,"x_min":7,"x_max":899,"o":"m 460 992 l 899 14 l 899 0 l 7 0 l 7 14 l 446 992 l 460 992 m 417 806 l 85 53 l 742 53 l 417 806 z "},"Ω":{"ha":1163,"x_min":56,"x_max":1106,"o":"m 1022 0 l 656 0 l 644 153 q 745 214 696 176 q 834 303 794 251 q 897 419 874 354 q 922 560 921 483 q 899 709 924 640 q 827 829 874 778 q 719 910 781 881 q 585 939 657 939 q 449 910 511 939 q 339 829 386 881 q 266 708 292 778 q 240 558 240 639 q 278 377 240 457 q 379 242 317 297 q 513 153 442 186 l 501 0 l 136 0 l 136 144 l 443 144 q 278 207 349 164 q 160 308 207 250 q 89 431 113 367 q 64 560 65 496 q 101 731 63 653 q 210 868 139 810 q 377 959 282 926 q 585 992 472 992 q 788 959 694 992 q 950 867 881 926 q 1059 730 1019 808 q 1099 560 1099 651 q 1071 430 1099 496 q 992 305 1043 364 q 872 203 942 246 q 715 144 801 160 l 1022 144 l 1022 0 m 69 263 q 115 192 94 218 q 164 156 136 167 q 232 144 192 144 l 247 144 l 247 0 l 122 0 l 56 263 l 69 263 m 1106 263 l 1039 0 l 914 0 l 914 144 l 929 144 q 997 156 971 144 q 1046 192 1024 167 q 1092 263 1068 218 l 1106 263 z "},"μ":{"ha":1206,"x_min":-4,"x_max":1211,"o":"m 975 851 l 988 726 l 631 117 q 619 94 631 117 q 595 40 607 72 q 581 -24 583 7 l 568 -24 l 525 81 l 975 851 m 135 90 l 135 0 l -4 0 l -4 14 q 6 14 -4 14 q 15 14 15 14 q 76 34 50 14 q 108 90 103 54 l 135 90 m 189 69 q 199 33 188 53 q 239 13 210 14 l 258 13 l 258 0 l 176 0 l 182 69 l 189 69 m 217 851 l 228 851 l 269 735 l 182 0 l 96 0 l 217 851 m 228 851 l 629 200 l 568 -24 l 197 589 l 228 851 m 988 851 l 1113 0 l 935 0 l 858 571 l 975 851 l 988 851 m 1071 90 l 1099 90 q 1131 34 1104 54 q 1190 14 1157 14 q 1201 14 1190 14 q 1211 14 1211 14 l 1211 0 l 1071 0 l 1071 90 m 925 69 l 933 69 l 939 0 l 857 0 l 857 13 l 876 13 q 918 33 908 14 q 925 69 928 53 z "},"π":{"ha":1021,"x_min":60,"x_max":964,"o":"m 319 833 l 319 0 l 151 0 l 151 833 l 319 833 m 156 89 l 156 0 l 60 0 l 60 14 q 67 14 60 14 q 75 14 75 14 q 129 36 107 14 q 151 89 151 58 l 156 89 m 317 89 l 319 89 q 343 36 321 58 q 397 14 365 14 q 404 14 397 14 q 411 14 411 14 l 413 0 l 317 0 l 317 89 m 156 744 l 151 744 q 129 798 151 776 q 75 819 107 819 q 67 819 75 819 q 60 819 60 819 l 60 833 l 156 833 l 156 744 m 872 833 l 872 0 l 704 0 l 704 833 l 872 833 m 707 89 l 707 0 l 611 0 l 613 14 q 619 14 613 14 q 626 14 626 14 q 681 36 658 14 q 704 89 703 58 l 707 89 m 868 89 l 872 89 q 895 36 872 58 q 949 14 918 14 q 956 14 949 14 q 964 14 964 14 l 964 0 l 868 0 l 868 89 m 868 744 l 868 833 l 964 833 l 964 819 q 956 819 964 819 q 949 819 949 819 q 895 798 918 819 q 872 744 872 776 l 868 744 m 736 781 l 707 781 l 707 706 l 704 706 q 681 758 703 736 q 629 781 660 781 l 394 781 q 342 758 364 781 q 319 706 321 736 l 317 706 l 317 781 l 283 781 l 283 833 l 736 833 l 736 781 z "},"⁄":{"ha":785,"x_min":28,"x_max":738,"o":"m 28 8 l 75 -22 l 738 965 l 692 997 l 28 8 z "},"½":{"ha":1143,"x_min":61,"x_max":1088,"o":"m 317 428 l 317 438 l 299 438 q 265 451 279 438 q 251 482 251 464 l 251 992 l 243 992 q 201 968 225 978 q 151 952 176 958 q 101 942 125 946 q 61 938 78 939 l 61 929 l 83 929 q 119 917 107 929 q 132 878 132 906 l 132 483 q 119 451 132 464 q 85 438 106 438 l 68 438 l 68 428 l 317 428 m 136 8 l 183 -22 l 846 965 l 800 997 l 136 8 m 678 378 l 640 506 q 724 551 674 535 q 826 567 775 567 q 938 547 889 567 q 1017 490 988 526 q 1046 403 1046 454 q 1020 304 1046 350 q 956 221 994 258 q 877 154 918 183 q 804 106 836 125 l 971 106 q 1033 124 1008 106 q 1079 186 1057 143 l 1088 186 l 1039 0 l 638 0 l 638 8 q 727 104 679 56 q 817 204 775 153 q 888 308 860 256 q 915 411 915 360 q 883 499 915 467 q 801 528 851 531 q 718 487 750 525 q 688 378 686 449 l 678 378 z "},"¼":{"ha":1011,"x_min":50,"x_max":975,"o":"m 306 428 l 306 438 l 288 438 q 254 451 268 438 q 240 482 240 464 l 240 992 l 232 992 q 190 968 214 978 q 140 952 165 958 q 90 942 114 946 q 50 938 67 939 l 50 929 l 72 929 q 108 917 96 929 q 121 878 121 906 l 121 483 q 108 451 121 464 q 74 438 94 438 l 57 438 l 57 428 l 306 428 m 139 8 l 186 -22 l 849 965 l 803 997 l 139 8 m 757 431 l 865 565 l 874 565 l 874 1 l 757 1 l 757 431 m 864 565 l 874 514 l 608 229 l 913 229 q 947 235 938 229 q 965 256 957 242 l 974 256 l 951 160 l 497 160 l 497 169 l 864 565 m 874 57 q 888 24 874 38 q 922 10 903 10 l 932 10 l 932 0 l 697 0 l 697 10 l 707 10 q 742 23 728 10 q 757 57 757 36 l 874 57 z "},"¾":{"ha":1058,"x_min":40,"x_max":1032,"o":"m 210 990 q 344 956 293 990 q 396 860 396 921 q 371 792 396 821 q 311 751 346 764 q 243 747 276 739 q 320 737 279 751 q 390 690 361 722 q 418 607 418 658 q 385 494 418 540 q 297 424 351 449 q 175 397 242 399 q 40 418 108 396 l 42 426 q 167 445 111 425 q 258 508 224 465 q 292 613 292 550 q 269 684 292 657 q 210 723 247 711 q 129 735 174 735 l 131 743 q 235 778 192 742 q 274 872 278 815 q 243 935 271 915 q 179 953 215 954 q 106 921 129 950 q 85 825 83 892 l 76 825 l 44 938 q 112 976 69 963 q 210 990 154 990 m 221 8 l 268 -22 l 931 965 l 885 997 l 221 8 m 815 431 l 924 565 l 932 565 l 932 1 l 815 1 l 815 431 m 922 565 l 932 514 l 667 229 l 971 229 q 1006 235 996 229 q 1024 256 1015 242 l 1032 256 l 1010 160 l 556 160 l 556 169 l 922 565 m 932 57 q 947 24 932 38 q 981 10 961 10 l 990 10 l 990 0 l 756 0 l 756 10 l 765 10 q 801 23 786 10 q 815 57 815 36 l 932 57 z "},"¹":{"ha":339,"x_min":50,"x_max":306,"o":"m 306 428 l 306 438 l 288 438 q 254 451 268 438 q 240 482 240 464 l 240 992 l 232 992 q 190 968 214 978 q 140 952 165 958 q 90 942 114 946 q 50 938 67 939 l 50 929 l 72 929 q 108 917 96 929 q 121 878 121 906 l 121 483 q 108 451 121 464 q 74 438 94 438 l 57 438 l 57 428 l 306 428 z "},"²":{"ha":546,"x_min":46,"x_max":496,"o":"m 86 806 l 49 933 q 133 978 82 963 q 235 994 183 994 q 347 974 297 994 q 425 918 396 954 q 454 831 454 882 q 428 732 454 778 q 365 649 403 686 q 285 582 326 611 q 213 533 244 553 l 379 533 q 441 552 417 533 q 488 614 465 571 l 496 614 l 447 428 l 46 428 l 46 436 q 135 532 88 483 q 226 632 183 581 q 296 735 268 683 q 324 839 324 788 q 292 926 324 894 q 210 956 260 958 q 126 915 158 953 q 96 806 94 876 l 86 806 z "},"³":{"ha":467,"x_min":40,"x_max":418,"o":"m 210 990 q 344 956 293 990 q 396 860 396 921 q 371 792 396 821 q 311 751 346 764 q 243 747 276 739 q 320 737 279 751 q 390 690 361 722 q 418 607 418 658 q 385 494 418 540 q 297 424 351 449 q 175 397 242 399 q 40 418 108 396 l 42 426 q 167 445 111 425 q 258 508 224 465 q 292 613 292 550 q 269 684 292 657 q 210 723 247 711 q 129 735 174 735 l 131 743 q 235 778 192 742 q 274 872 278 815 q 243 935 271 915 q 179 953 215 954 q 106 921 129 950 q 85 825 83 892 l 76 825 l 44 938 q 112 976 69 963 q 210 990 154 990 z "},"ª":{"ha":524,"x_min":-3,"x_max":526,"o":"m 260 989 l 485 529 l 361 529 l 224 863 l 260 989 m 122 578 q 124 543 113 556 q 149 531 135 531 l 156 531 l 156 525 l -3 525 l -3 531 q 0 531 -3 531 q 3 531 3 531 q 36 542 19 531 q 64 578 53 553 l 122 578 m 260 989 l 264 890 l 100 526 l 40 526 l 219 899 q 230 921 222 903 q 245 959 238 939 q 254 989 253 979 l 260 989 m 332 683 l 332 649 l 135 649 l 135 683 l 332 683 m 342 578 l 461 578 q 490 542 474 553 q 521 531 506 531 q 524 531 521 531 q 526 531 526 531 l 526 525 l 310 525 l 310 531 l 317 531 q 340 543 329 531 q 342 578 351 556 z "},"º":{"ha":565,"x_min":36,"x_max":531,"o":"m 283 989 q 413 959 357 989 q 499 876 468 929 q 531 753 531 824 q 499 631 531 683 q 413 548 468 578 q 283 518 357 518 q 155 548 211 518 q 67 631 99 578 q 36 753 36 683 q 67 876 36 824 q 155 959 99 929 q 283 989 211 989 m 283 550 q 381 606 344 550 q 417 753 417 663 q 381 901 417 846 q 283 957 344 957 q 212 931 242 957 q 165 860 182 906 q 149 753 149 815 q 165 647 149 693 q 212 576 182 601 q 283 550 242 550 z "},"*":{"ha":539,"x_min":51,"x_max":489,"o":"m 406 658 l 347 640 l 286 756 l 269 835 l 279 840 l 349 801 l 440 707 l 406 658 m 135 658 l 100 707 l 190 801 l 261 840 l 269 835 l 254 756 l 193 640 l 135 658 m 51 914 l 88 963 l 206 906 l 264 851 l 261 840 l 181 832 l 51 854 l 51 914 m 269 1074 l 328 1054 l 310 925 l 276 851 l 264 851 l 232 925 l 213 1054 l 269 1074 m 489 915 l 488 854 l 360 832 l 279 840 l 276 851 l 335 906 l 451 964 l 489 915 m 275 853 l 279 849 l 281 842 l 279 839 l 271 833 q 268 835 269 835 q 267 835 267 835 l 260 840 l 260 843 l 263 851 l 267 853 l 275 853 z "},"\\":{"ha":582,"x_min":11,"x_max":572,"o":"m 71 997 l 572 13 l 513 -19 l 11 968 l 71 997 z "},"•":{"ha":496,"x_min":82,"x_max":411,"o":"m 271 304 q 226 304 249 297 q 169 325 190 315 q 134 348 147 335 q 112 383 121 361 q 90 440 103 404 q 90 485 82 463 q 112 542 103 521 q 134 576 121 564 q 169 599 147 589 q 226 621 190 608 q 271 621 249 629 q 328 599 307 608 q 363 576 350 589 q 385 542 375 564 q 407 485 394 521 q 411 462 411 472 q 406 436 411 451 q 385 381 394 401 q 363 347 375 360 q 328 324 350 333 q 271 304 307 315 z "},":":{"ha":289,"x_min":57,"x_max":232,"o":"m 144 521 q 83 547 108 521 q 57 608 57 572 q 83 671 57 646 q 144 696 108 696 q 207 671 182 696 q 232 608 232 646 q 207 547 232 572 q 144 521 182 521 m 144 -11 q 83 15 108 -11 q 57 76 57 40 q 83 139 57 114 q 144 164 108 164 q 207 139 182 164 q 232 76 232 114 q 207 15 232 40 q 144 -11 182 -11 z "},",":{"ha":299,"x_min":60,"x_max":247,"o":"m 83 138 q 131 162 103 158 q 185 152 158 165 q 226 106 213 139 q 242 12 247 58 q 211 -72 236 -35 q 148 -130 186 -110 q 64 -146 110 -150 l 60 -132 q 111 -95 96 -119 q 123 -42 126 -71 q 97 13 119 -12 q 74 52 82 31 q 67 97 65 74 q 83 138 69 119 z "},"…":{"ha":886,"x_min":57,"x_max":831,"o":"m 447 -11 q 385 15 411 -11 q 360 76 360 40 q 385 139 360 114 q 447 164 411 164 q 510 139 485 164 q 535 76 535 114 q 510 15 535 40 q 447 -11 485 -11 m 742 -11 q 680 15 706 -11 q 654 76 654 40 q 680 139 654 114 q 742 164 706 164 q 804 139 779 164 q 829 76 829 114 q 804 15 829 40 q 742 -11 779 -11 m 144 -11 q 83 15 108 -11 q 57 76 57 40 q 83 139 57 114 q 144 164 108 164 q 207 139 182 164 q 232 76 232 114 q 207 15 232 40 q 144 -11 182 -11 z "},"!":{"ha":356,"x_min":89,"x_max":267,"o":"m 176 -11 q 115 15 140 -11 q 89 76 89 40 q 115 139 89 114 q 176 164 140 164 q 239 139 214 164 q 264 76 264 114 q 239 15 264 40 q 176 -11 214 -11 m 201 269 l 153 269 l 111 538 l 89 975 l 267 975 l 243 538 l 201 269 z "},"¡":{"ha":356,"x_min":90,"x_max":267,"o":"m 179 986 q 241 960 215 986 q 267 899 267 935 q 241 837 267 863 q 179 811 215 811 q 117 837 143 811 q 92 899 92 863 q 117 960 92 935 q 179 986 143 986 m 156 703 l 203 703 l 244 438 l 267 0 l 90 0 l 113 438 l 156 703 z "},"#":{"ha":781,"x_min":28,"x_max":733,"o":"m 294 972 l 356 972 l 185 0 l 124 0 l 294 972 m 572 972 l 633 972 l 463 0 l 401 0 l 572 972 m 733 690 l 733 632 l 89 632 l 89 690 l 733 690 m 672 360 l 672 301 l 28 301 l 28 360 l 672 360 z "},".":{"ha":289,"x_min":57,"x_max":232,"o":"m 144 -11 q 83 15 108 -11 q 57 76 57 40 q 83 139 57 114 q 144 164 108 164 q 207 139 182 164 q 232 76 232 114 q 207 15 232 40 q 144 -11 182 -11 z "},"·":{"ha":281,"x_min":53,"x_max":228,"o":"m 140 401 q 78 427 104 401 q 53 489 53 453 q 78 551 53 526 q 140 576 104 576 q 203 551 178 576 q 228 489 228 526 q 203 427 228 453 q 140 401 178 401 z "},"?":{"ha":618,"x_min":17,"x_max":560,"o":"m 17 868 q 113 958 49 925 q 263 992 176 992 q 482 928 404 992 q 560 751 560 865 q 544 667 560 704 q 503 597 529 629 q 446 536 476 565 q 385 476 415 507 q 332 410 356 446 q 305 367 317 389 q 293 322 293 346 q 311 269 293 299 l 301 261 q 231 325 256 288 q 208 411 206 363 q 228 477 210 447 q 271 535 246 507 q 320 595 296 564 q 361 665 344 626 q 378 757 378 704 q 338 891 376 843 q 228 939 299 939 q 109 884 151 939 q 67 725 67 829 l 53 725 l 17 868 m 276 -11 q 213 15 239 -11 q 188 76 188 40 q 213 139 188 114 q 276 164 239 164 q 338 139 313 164 q 363 76 363 114 q 338 15 363 40 q 276 -11 313 -11 z "},"¿":{"ha":651,"x_min":58,"x_max":601,"o":"m 601 104 q 507 14 571 47 q 357 -19 443 -19 q 137 44 215 -19 q 58 221 58 108 q 74 306 58 268 q 116 375 90 343 q 173 436 142 407 q 234 496 204 465 q 288 563 264 526 q 314 605 303 583 q 326 650 325 626 q 307 703 326 674 l 318 711 q 389 647 364 685 q 411 561 414 610 q 392 495 410 525 q 349 437 374 465 q 299 377 324 408 q 257 307 274 346 q 242 215 240 268 q 282 81 242 129 q 392 33 322 33 q 510 88 467 33 q 551 247 553 143 l 565 247 l 601 104 m 343 983 q 405 958 379 983 q 431 896 431 933 q 405 834 431 860 q 343 808 379 808 q 281 834 306 808 q 256 896 256 860 q 281 958 256 933 q 343 983 306 983 z "},"\"":{"ha":482,"x_min":58,"x_max":425,"o":"m 88 972 l 219 992 q 215 922 221 965 q 192 834 208 879 q 148 751 176 789 q 75 694 119 713 l 58 701 q 84 804 76 763 q 92 884 92 846 q 88 972 93 922 m 293 972 l 425 992 q 419 922 425 965 q 398 834 414 879 q 353 751 382 789 q 281 694 325 713 l 264 701 q 290 804 282 763 q 298 884 297 846 q 293 972 299 922 z "},"'":{"ha":264,"x_min":46,"x_max":208,"o":"m 75 972 l 207 992 q 202 922 208 965 q 180 834 196 879 q 135 751 164 789 q 63 694 107 713 l 46 701 q 72 804 64 763 q 80 884 79 846 q 75 972 81 922 z "},";":{"ha":299,"x_min":57,"x_max":247,"o":"m 83 138 q 131 162 103 158 q 185 152 158 165 q 226 106 213 139 q 242 12 247 58 q 211 -72 236 -35 q 148 -130 186 -110 q 64 -146 110 -150 l 60 -132 q 111 -95 96 -119 q 123 -42 126 -71 q 97 13 119 -12 q 74 52 82 31 q 67 97 65 74 q 83 138 69 119 m 144 560 q 83 585 108 560 q 57 647 57 611 q 83 710 57 685 q 144 735 108 735 q 207 710 182 735 q 232 647 232 685 q 207 585 232 611 q 144 560 182 560 z "},"/":{"ha":582,"x_min":11,"x_max":572,"o":"m 513 997 l 572 968 l 71 -19 l 11 13 l 513 997 z "},"_":{"ha":694,"x_min":0,"x_max":694,"o":"m 0 -83 l 694 -83 l 694 -136 l 0 -136 l 0 -83 z "},"{":{"ha":507,"x_min":118,"x_max":464,"o":"m 186 472 q 186 531 193 490 q 170 622 179 571 q 161 721 161 672 q 192 870 161 803 q 290 978 224 938 q 461 1018 356 1018 l 464 1007 q 372 952 400 990 q 338 857 344 914 q 331 729 331 800 q 326 608 331 658 q 308 525 321 558 q 273 471 296 492 q 213 439 250 450 q 273 407 250 429 q 308 349 296 385 q 326 267 321 314 q 331 158 331 219 q 332 57 331 104 q 344 -27 333 10 q 379 -90 354 -64 q 453 -128 404 -115 l 450 -139 q 281 -98 344 -139 q 190 10 218 -57 q 161 157 161 78 q 169 257 161 207 q 184 347 178 307 q 182 406 190 388 q 156 429 175 424 q 118 436 136 435 l 118 450 q 158 454 138 451 q 186 472 178 457 z "},"}":{"ha":507,"x_min":44,"x_max":390,"o":"m 47 1018 q 220 978 154 1018 q 317 870 286 938 q 347 721 347 803 q 338 622 347 672 q 322 531 329 571 q 322 472 315 490 q 351 454 329 457 q 390 450 372 451 l 390 436 q 353 429 374 435 q 326 406 333 424 q 325 347 319 388 q 339 257 331 307 q 347 157 347 207 q 319 10 347 78 q 228 -98 292 -57 q 58 -139 165 -139 l 56 -128 q 129 -90 104 -115 q 165 -27 154 -64 q 176 57 175 10 q 178 158 178 104 q 183 267 178 219 q 200 349 188 314 q 236 407 213 385 q 296 439 260 429 q 236 471 260 450 q 200 525 213 492 q 183 608 188 558 q 178 729 178 658 q 171 857 178 800 q 136 952 164 914 q 44 1007 108 990 l 47 1018 z "},"[":{"ha":540,"x_min":167,"x_max":485,"o":"m 167 1003 l 481 1003 l 481 989 l 336 944 l 336 -67 l 485 -111 l 485 -125 l 167 -125 l 167 1003 z "},"]":{"ha":540,"x_min":56,"x_max":374,"o":"m 374 1003 l 374 -125 l 56 -125 l 56 -111 l 204 -67 l 204 944 l 60 989 l 60 1003 l 374 1003 z "},"(":{"ha":549,"x_min":124,"x_max":508,"o":"m 508 1006 q 396 900 444 976 q 321 713 347 824 q 296 467 294 603 q 326 202 299 321 q 401 -1 354 83 q 506 -126 447 -85 l 497 -139 q 342 -49 410 -108 q 225 91 274 10 q 151 267 176 172 q 125 464 126 363 q 149 659 124 567 q 224 825 175 751 q 342 949 272 899 q 500 1017 411 999 l 508 1006 z "},")":{"ha":549,"x_min":42,"x_max":425,"o":"m 42 1006 l 50 1017 q 207 949 138 999 q 325 825 276 899 q 399 659 374 751 q 425 464 425 567 q 398 267 424 363 q 324 91 372 172 q 207 -49 275 10 q 53 -139 139 -108 l 44 -126 q 149 -1 103 -85 q 224 202 196 83 q 254 467 253 321 q 228 713 256 603 q 153 900 201 824 q 42 1006 106 976 z "},"—":{"ha":1111,"x_min":0,"x_max":1111,"o":"m 0 438 l 1111 438 l 1111 371 l 0 371 l 0 438 z "},"–":{"ha":694,"x_min":0,"x_max":694,"o":"m 0 438 l 694 438 l 694 371 l 0 371 l 0 438 z "},"-":{"ha":528,"x_min":44,"x_max":483,"o":"m 56 446 l 472 446 l 483 406 l 472 364 l 56 364 l 44 406 l 56 446 z "},"­":{"ha":528,"x_min":44,"x_max":483,"o":"m 56 446 l 472 446 l 483 406 l 472 364 l 56 364 l 44 406 l 56 446 z "},"«":{"ha":679,"x_min":56,"x_max":597,"o":"m 56 406 l 326 124 l 339 132 l 196 406 l 338 674 l 326 681 l 56 406 m 313 406 l 585 124 l 597 132 l 454 406 l 596 674 l 585 681 l 313 406 z "},"»":{"ha":679,"x_min":83,"x_max":625,"o":"m 625 406 l 353 681 l 342 674 l 483 406 l 340 132 l 353 124 l 625 406 m 367 406 l 96 681 l 85 674 l 226 406 l 83 132 l 96 124 l 367 406 z "},"‹":{"ha":421,"x_min":56,"x_max":339,"o":"m 56 406 l 326 124 l 339 132 l 196 406 l 338 674 l 326 681 l 56 406 z "},"›":{"ha":421,"x_min":83,"x_max":367,"o":"m 367 406 l 96 681 l 85 674 l 226 406 l 83 132 l 96 124 l 367 406 z "},"„":{"ha":561,"x_min":60,"x_max":511,"o":"m 331 150 q 381 178 350 174 q 442 167 413 182 q 486 117 472 151 q 503 13 510 64 q 470 -80 497 -39 q 401 -143 443 -121 q 308 -161 358 -165 l 304 -144 q 360 -103 343 -131 q 372 -45 376 -76 q 344 14 368 -14 q 319 58 329 33 q 312 107 310 82 q 331 150 314 132 m 86 150 q 137 178 106 174 q 198 167 168 182 q 242 117 228 151 q 259 13 265 64 q 226 -80 253 -39 q 156 -143 199 -121 q 64 -161 114 -165 l 60 -144 q 115 -103 99 -131 q 128 -45 132 -76 q 100 14 124 -14 q 75 58 85 33 q 67 107 65 82 q 86 150 69 132 z "},"“":{"ha":567,"x_min":49,"x_max":506,"o":"m 479 811 q 430 785 461 789 q 369 795 399 781 q 324 844 339 810 q 306 949 300 897 q 340 1041 313 1000 q 410 1104 368 1082 q 501 1122 453 1126 l 506 1106 q 450 1065 467 1093 q 438 1006 433 1038 q 465 947 442 975 q 491 904 482 928 q 498 856 500 881 q 479 811 496 832 m 228 811 q 178 785 210 789 q 117 795 147 781 q 72 844 88 810 q 55 949 49 897 q 89 1041 61 1000 q 159 1104 117 1082 q 250 1122 201 1126 l 254 1106 q 199 1065 215 1093 q 186 1006 182 1038 q 214 947 190 975 q 240 904 231 928 q 247 856 249 881 q 228 811 244 832 z "},"”":{"ha":561,"x_min":60,"x_max":511,"o":"m 331 1093 q 381 1121 350 1117 q 442 1110 413 1125 q 486 1060 472 1094 q 503 956 510 1007 q 470 863 497 904 q 401 800 443 822 q 308 782 358 778 l 304 799 q 360 840 343 813 q 372 898 376 867 q 344 957 368 929 q 319 1001 329 976 q 312 1050 310 1025 q 331 1093 314 1075 m 86 1093 q 137 1121 106 1117 q 198 1110 168 1125 q 242 1060 228 1094 q 259 956 265 1007 q 226 863 253 904 q 156 800 199 822 q 64 782 114 778 l 60 799 q 115 840 99 813 q 128 898 132 867 q 100 957 124 929 q 75 1001 85 976 q 67 1050 65 1025 q 86 1093 69 1075 z "},"‘":{"ha":315,"x_min":51,"x_max":257,"o":"m 231 811 q 181 785 213 789 q 120 795 150 781 q 75 844 90 810 q 58 949 51 897 q 92 1041 64 1000 q 162 1104 119 1082 q 253 1122 204 1126 l 257 1106 q 201 1065 218 1093 q 189 1006 185 1038 q 217 947 193 975 q 242 904 233 928 q 249 856 251 881 q 231 811 247 832 z "},"’":{"ha":315,"x_min":60,"x_max":265,"o":"m 86 1093 q 137 1121 106 1117 q 198 1110 168 1125 q 242 1060 228 1094 q 259 956 265 1007 q 226 863 253 904 q 156 800 199 822 q 64 782 114 778 l 60 799 q 115 840 99 813 q 128 898 132 867 q 100 957 124 929 q 75 1001 85 976 q 67 1050 65 1025 q 86 1093 69 1075 z "},"‚":{"ha":315,"x_min":60,"x_max":265,"o":"m 86 150 q 137 178 106 174 q 198 167 168 182 q 242 117 228 151 q 259 13 265 64 q 226 -80 253 -39 q 156 -143 199 -121 q 64 -161 114 -165 l 60 -144 q 115 -103 99 -131 q 128 -45 132 -76 q 100 14 124 -14 q 75 58 85 33 q 67 107 65 82 q 86 150 69 132 z "}," ":{"ha":347,"x_min":0,"x_max":0,"o":""}}}
